{"glyphs":{"0":{"ha":956,"x_min":56,"x_max":900,"o":"m 478 -21 q 297 19 376 -21 q 165 128 218 58 q 83 290 111 199 q 56 486 56 382 q 83 683 56 591 q 165 844 111 774 q 297 953 218 914 q 478 993 376 993 q 659 953 580 993 q 791 844 738 914 q 872 683 844 774 q 900 486 900 591 q 872 290 900 382 q 791 128 844 199 q 659 19 738 58 q 478 -21 580 -21 m 478 217 q 544 234 515 217 q 594 284 573 251 q 626 368 615 318 q 638 486 638 419 q 618 636 638 576 q 562 726 598 696 q 478 756 526 756 q 412 739 442 756 q 361 688 383 722 q 329 604 340 654 q 318 486 318 553 q 338 337 318 397 q 393 247 358 277 q 478 217 429 217 z "},"1":{"ha":663,"x_min":1,"x_max":529,"o":"m 274 0 l 274 665 l 75 597 l 1 817 l 511 993 l 529 993 l 529 0 l 274 0 z "},"2":{"ha":835,"x_min":35,"x_max":775,"o":"m 58 0 l 58 178 l 263 358 q 405 492 356 441 q 473 579 455 543 q 492 651 492 615 q 457 733 492 706 q 356 761 422 761 q 235 734 292 761 q 128 656 177 708 l 35 858 q 198 958 106 922 q 382 993 290 993 q 577 955 495 993 q 704 847 660 916 q 749 689 749 778 q 725 575 749 630 q 644 451 702 519 q 482 283 586 383 l 422 226 l 775 226 l 775 0 l 58 0 z "},"3":{"ha":817,"x_min":42,"x_max":747,"o":"m 369 -21 q 238 -6 302 -21 q 121 36 173 10 q 42 94 69 62 l 122 313 q 221 239 158 266 q 351 211 284 211 q 424 224 392 211 q 473 260 455 237 q 490 313 490 283 q 454 390 490 363 q 361 417 417 417 q 307 413 335 417 q 249 400 278 408 l 176 572 l 397 749 l 56 749 l 56 972 l 706 972 l 706 767 l 508 575 q 622 532 567 567 q 712 437 676 497 q 747 290 747 376 q 699 131 747 201 q 566 20 651 60 q 369 -21 481 -21 z "},"4":{"ha":838,"x_min":14,"x_max":810,"o":"m 461 0 l 461 171 l 14 171 l 14 367 l 294 972 l 567 972 l 299 392 l 461 392 l 461 564 l 689 564 l 689 392 l 810 392 l 810 171 l 689 171 l 689 0 l 461 0 z "},"5":{"ha":825,"x_min":42,"x_max":754,"o":"m 371 -21 q 186 7 272 -21 q 42 86 99 35 l 118 301 q 225 232 163 253 q 356 211 287 211 q 431 222 399 211 q 480 256 463 233 q 497 318 497 280 q 480 370 497 348 q 431 403 463 392 q 353 415 399 415 q 288 408 322 415 q 218 385 253 401 l 104 513 l 156 972 l 732 969 l 732 732 l 346 732 l 329 618 q 366 622 347 620 q 406 624 385 624 q 588 585 510 624 q 710 476 667 547 q 754 304 754 404 q 707 133 754 206 q 573 19 659 60 q 371 -21 487 -21 z "},"6":{"ha":906,"x_min":60,"x_max":842,"o":"m 458 -21 q 253 28 342 -21 q 112 166 163 77 q 60 376 60 256 q 109 603 60 499 q 245 787 158 707 q 448 919 333 867 q 695 993 563 972 l 788 790 q 652 764 714 780 q 541 725 590 747 q 453 674 491 702 q 387 611 415 646 q 448 629 416 623 q 513 635 480 635 q 683 594 609 635 q 800 483 758 553 q 842 321 842 412 q 815 187 842 249 q 736 78 787 125 q 614 5 685 31 q 458 -21 544 -21 m 458 199 q 523 214 494 199 q 569 255 552 228 q 585 314 585 281 q 569 373 585 347 q 523 414 552 399 q 458 429 494 429 q 392 414 421 429 q 347 373 363 399 q 330 314 330 347 q 347 255 330 281 q 392 214 363 228 q 458 199 421 199 z "},"7":{"ha":807,"x_min":49,"x_max":758,"o":"m 93 0 l 447 724 l 49 724 l 49 972 l 758 972 l 758 779 l 386 0 l 93 0 z "},"8":{"ha":854,"x_min":47,"x_max":808,"o":"m 420 -21 q 218 17 301 -21 q 90 122 134 56 q 47 271 47 188 q 67 375 47 328 q 125 457 87 422 q 215 514 163 492 q 125 589 167 537 q 83 722 83 640 q 127 862 83 801 q 249 958 172 923 q 427 993 327 993 q 607 958 528 993 q 730 861 685 922 q 774 722 774 800 q 755 626 774 667 q 704 557 735 585 q 642 514 674 529 q 761 419 715 482 q 808 271 808 356 q 758 122 808 188 q 620 17 708 56 q 420 -21 533 -21 m 427 192 q 487 205 458 192 q 534 243 515 218 q 552 304 552 268 q 535 366 552 341 q 489 403 517 390 q 427 415 460 415 q 339 386 376 415 q 302 304 302 358 q 320 243 302 268 q 366 205 338 218 q 427 192 394 192 m 428 619 q 484 632 460 619 q 523 666 509 644 q 537 716 537 688 q 506 784 537 757 q 428 811 476 811 q 373 799 397 811 q 334 765 348 786 q 320 716 320 743 q 351 647 320 674 q 428 619 382 619 z "},"9":{"ha":889,"x_min":63,"x_max":828,"o":"m 201 -21 l 108 182 q 241 211 181 194 q 351 254 302 229 q 438 309 400 278 q 502 378 475 340 q 445 360 475 367 q 384 354 415 354 q 218 395 291 354 q 105 506 146 435 q 63 668 63 577 q 110 833 63 760 q 243 950 158 907 q 440 993 328 993 q 640 945 553 993 q 778 810 728 897 q 828 604 828 723 q 780 374 828 479 q 645 188 731 269 q 445 54 559 107 q 201 -21 331 1 m 440 560 q 501 574 474 560 q 543 612 528 588 q 559 667 559 636 q 543 722 559 698 q 501 760 528 746 q 440 774 474 774 q 378 760 406 774 q 336 722 351 746 q 320 667 320 698 q 336 612 320 636 q 378 574 351 588 q 440 560 406 560 z "},"A":{"ha":1036,"x_min":-2,"x_max":1038,"o":"m -2 0 l 352 972 l 685 972 l 1038 0 l 722 0 l 667 174 l 360 174 l 306 0 l -2 0 m 420 406 l 606 406 l 515 683 l 420 406 z "},"Á":{"ha":1036,"x_min":-2,"x_max":1038,"o":"m -2 0 l 352 972 l 685 972 l 1038 0 l 722 0 l 667 174 l 360 174 l 306 0 l -2 0 m 420 406 l 606 406 l 515 683 l 420 406 m 373 1047 l 513 1293 l 801 1293 l 634 1047 l 373 1047 z "},"Ă":{"ha":1036,"x_min":-2,"x_max":1038,"o":"m -2 0 l 352 972 l 685 972 l 1038 0 l 722 0 l 667 174 l 360 174 l 306 0 l -2 0 m 420 406 l 606 406 l 515 683 l 420 406 m 519 1040 q 352 1072 423 1040 q 242 1160 281 1103 q 205 1293 203 1217 l 438 1293 q 458 1240 436 1260 q 519 1219 479 1219 q 580 1240 558 1219 q 599 1293 601 1260 l 831 1293 q 793 1160 833 1217 q 682 1072 753 1103 q 519 1040 611 1040 z "},"Ắ":{"ha":1036,"x_min":-2,"x_max":1038,"o":"m -2 0 l 352 972 l 685 972 l 1038 0 l 722 0 l 667 174 l 360 174 l 306 0 l -2 0 m 420 406 l 606 406 l 515 683 l 420 406 m 519 1040 q 352 1072 423 1040 q 242 1160 281 1103 q 205 1293 203 1217 l 438 1293 q 458 1240 436 1260 q 519 1219 479 1219 q 580 1240 558 1219 q 599 1293 601 1260 l 831 1293 q 793 1160 833 1217 q 682 1072 753 1103 q 519 1040 611 1040 m 373 1335 l 513 1581 l 801 1581 l 634 1335 l 373 1335 z "},"Ặ":{"ha":1036,"x_min":-2,"x_max":1038,"o":"m -2 0 l 352 972 l 685 972 l 1038 0 l 722 0 l 667 174 l 360 174 l 306 0 l -2 0 m 420 406 l 606 406 l 515 683 l 420 406 m 519 -387 q 407 -348 454 -387 q 359 -240 359 -309 q 407 -132 359 -172 q 519 -93 454 -93 q 631 -132 583 -93 q 678 -240 678 -172 q 631 -348 678 -309 q 519 -387 583 -387 m 519 1040 q 352 1072 423 1040 q 242 1160 281 1103 q 205 1293 203 1217 l 438 1293 q 458 1240 436 1260 q 519 1219 479 1219 q 580 1240 558 1219 q 599 1293 601 1260 l 831 1293 q 793 1160 833 1217 q 682 1072 753 1103 q 519 1040 611 1040 z "},"Ằ":{"ha":1036,"x_min":-2,"x_max":1038,"o":"m -2 0 l 352 972 l 685 972 l 1038 0 l 722 0 l 667 174 l 360 174 l 306 0 l -2 0 m 420 406 l 606 406 l 515 683 l 420 406 m 519 1040 q 352 1072 423 1040 q 242 1160 281 1103 q 205 1293 203 1217 l 438 1293 q 458 1240 436 1260 q 519 1219 479 1219 q 580 1240 558 1219 q 599 1293 601 1260 l 831 1293 q 793 1160 833 1217 q 682 1072 753 1103 q 519 1040 611 1040 m 395 1335 l 233 1581 l 526 1581 l 663 1335 l 395 1335 z "},"Ẳ":{"ha":1036,"x_min":-2,"x_max":1038,"o":"m -2 0 l 352 972 l 685 972 l 1038 0 l 722 0 l 667 174 l 360 174 l 306 0 l -2 0 m 420 406 l 606 406 l 515 683 l 420 406 m 519 1040 q 352 1072 423 1040 q 242 1160 281 1103 q 205 1293 203 1217 l 438 1293 q 458 1240 436 1260 q 519 1219 479 1219 q 580 1240 558 1219 q 599 1293 601 1260 l 831 1293 q 793 1160 833 1217 q 682 1072 753 1103 q 519 1040 611 1040 m 428 1335 q 412 1405 401 1376 q 467 1446 423 1433 q 500 1457 490 1452 q 510 1471 510 1462 q 496 1482 510 1478 q 462 1486 482 1486 q 405 1480 430 1486 q 355 1461 380 1474 l 317 1592 q 410 1623 355 1612 q 519 1635 466 1635 q 632 1620 584 1635 q 705 1577 679 1605 q 731 1510 731 1549 q 713 1446 731 1472 q 645 1396 695 1420 q 601 1366 611 1379 q 603 1335 591 1353 l 428 1335 z "},"Ẵ":{"ha":1036,"x_min":-2,"x_max":1038,"o":"m -2 0 l 352 972 l 685 972 l 1038 0 l 722 0 l 667 174 l 360 174 l 306 0 l -2 0 m 420 406 l 606 406 l 515 683 l 420 406 m 519 1040 q 352 1072 423 1040 q 242 1160 281 1103 q 205 1293 203 1217 l 438 1293 q 458 1240 436 1260 q 519 1219 479 1219 q 580 1240 558 1219 q 599 1293 601 1260 l 831 1293 q 793 1160 833 1217 q 682 1072 753 1103 q 519 1040 611 1040 m 295 1310 l 191 1426 q 278 1548 224 1507 q 401 1589 332 1589 q 492 1571 451 1589 q 570 1536 533 1553 q 645 1518 607 1518 q 703 1538 678 1518 q 744 1604 728 1558 l 847 1486 q 780 1367 833 1407 q 653 1328 726 1328 q 558 1345 602 1328 q 475 1380 514 1363 q 399 1397 435 1397 q 339 1376 366 1397 q 295 1310 312 1356 z "},"Ǎ":{"ha":1036,"x_min":-2,"x_max":1038,"o":"m -2 0 l 352 972 l 685 972 l 1038 0 l 722 0 l 667 174 l 360 174 l 306 0 l -2 0 m 420 406 l 606 406 l 515 683 l 420 406 m 395 1047 l 174 1293 l 445 1293 l 524 1203 l 603 1293 l 865 1293 l 642 1047 l 395 1047 z "},"Â":{"ha":1036,"x_min":-2,"x_max":1038,"o":"m -2 0 l 352 972 l 685 972 l 1038 0 l 722 0 l 667 174 l 360 174 l 306 0 l -2 0 m 420 406 l 606 406 l 515 683 l 420 406 m 174 1047 l 395 1293 l 642 1293 l 865 1047 l 594 1047 l 515 1138 l 434 1047 l 174 1047 z "},"Ấ":{"ha":1036,"x_min":-2,"x_max":1147,"o":"m -2 0 l 352 972 l 685 972 l 1038 0 l 722 0 l 667 174 l 360 174 l 306 0 l -2 0 m 420 406 l 606 406 l 515 683 l 420 406 m 174 1047 l 395 1293 l 642 1293 l 865 1047 l 594 1047 l 515 1138 l 434 1047 l 174 1047 m 719 1279 l 859 1525 l 1147 1525 l 980 1279 l 719 1279 z "},"Ậ":{"ha":1036,"x_min":-2,"x_max":1038,"o":"m -2 0 l 352 972 l 685 972 l 1038 0 l 722 0 l 667 174 l 360 174 l 306 0 l -2 0 m 420 406 l 606 406 l 515 683 l 420 406 m 519 -387 q 407 -348 454 -387 q 359 -240 359 -309 q 407 -132 359 -172 q 519 -93 454 -93 q 631 -132 583 -93 q 678 -240 678 -172 q 631 -348 678 -309 q 519 -387 583 -387 m 174 1047 l 395 1293 l 642 1293 l 865 1047 l 594 1047 l 515 1138 l 434 1047 l 174 1047 z "},"Ầ":{"ha":1036,"x_min":-2,"x_max":1038,"o":"m -2 0 l 352 972 l 685 972 l 1038 0 l 722 0 l 667 174 l 360 174 l 306 0 l -2 0 m 420 406 l 606 406 l 515 683 l 420 406 m 174 1047 l 395 1293 l 642 1293 l 865 1047 l 594 1047 l 515 1138 l 434 1047 l 174 1047 m 741 1279 l 578 1525 l 872 1525 l 1009 1279 l 741 1279 z "},"Ẩ":{"ha":1036,"x_min":-2,"x_max":1077,"o":"m -2 0 l 352 972 l 685 972 l 1038 0 l 722 0 l 667 174 l 360 174 l 306 0 l -2 0 m 420 406 l 606 406 l 515 683 l 420 406 m 174 1047 l 395 1293 l 642 1293 l 865 1047 l 594 1047 l 515 1138 l 434 1047 l 174 1047 m 774 1279 q 758 1349 747 1321 q 813 1390 769 1378 q 846 1401 836 1397 q 856 1415 856 1406 q 842 1427 856 1423 q 808 1431 828 1431 q 751 1424 776 1431 q 701 1406 726 1418 l 663 1536 q 756 1568 701 1556 q 865 1579 812 1579 q 977 1564 930 1579 q 1051 1521 1025 1549 q 1077 1454 1077 1493 q 1059 1391 1077 1417 q 991 1340 1041 1365 q 947 1310 957 1324 q 949 1279 937 1297 l 774 1279 z "},"Ẫ":{"ha":1036,"x_min":-2,"x_max":1038,"o":"m -2 0 l 352 972 l 685 972 l 1038 0 l 722 0 l 667 174 l 360 174 l 306 0 l -2 0 m 420 406 l 606 406 l 515 683 l 420 406 m 174 1047 l 395 1293 l 642 1293 l 865 1047 l 594 1047 l 515 1138 l 434 1047 l 174 1047 m 295 1304 l 191 1421 q 278 1542 224 1501 q 401 1583 332 1583 q 492 1566 451 1583 q 570 1530 533 1548 q 645 1513 607 1513 q 703 1533 678 1513 q 744 1599 728 1553 l 847 1481 q 780 1362 833 1401 q 653 1322 726 1322 q 558 1340 602 1322 q 475 1374 514 1357 q 399 1392 435 1392 q 339 1371 366 1392 q 295 1304 312 1350 z "},"Ȁ":{"ha":1036,"x_min":-2,"x_max":1038,"o":"m -2 0 l 352 972 l 685 972 l 1038 0 l 722 0 l 667 174 l 360 174 l 306 0 l -2 0 m 420 406 l 606 406 l 515 683 l 420 406 m 858 1047 l 597 1047 l 430 1293 l 716 1293 l 858 1047 m 469 1047 l 208 1047 l 41 1293 l 328 1293 l 469 1047 z "},"Ä":{"ha":1036,"x_min":-2,"x_max":1038,"o":"m -2 0 l 352 972 l 685 972 l 1038 0 l 722 0 l 667 174 l 360 174 l 306 0 l -2 0 m 420 406 l 606 406 l 515 683 l 420 406 m 322 1049 q 216 1087 263 1049 q 169 1193 169 1126 q 190 1270 169 1238 q 247 1320 212 1302 q 322 1338 282 1338 q 426 1299 380 1338 q 473 1193 473 1260 q 451 1116 473 1148 q 394 1066 429 1083 q 322 1049 360 1049 m 716 1049 q 610 1087 658 1049 q 563 1193 563 1126 q 585 1270 563 1238 q 642 1320 607 1302 q 716 1338 676 1338 q 821 1299 774 1338 q 867 1193 867 1260 q 845 1116 867 1148 q 789 1066 824 1083 q 716 1049 754 1049 z "},"Ạ":{"ha":1036,"x_min":-2,"x_max":1038,"o":"m -2 0 l 352 972 l 685 972 l 1038 0 l 722 0 l 667 174 l 360 174 l 306 0 l -2 0 m 420 406 l 606 406 l 515 683 l 420 406 m 519 -387 q 407 -348 454 -387 q 359 -240 359 -309 q 407 -132 359 -172 q 519 -93 454 -93 q 631 -132 583 -93 q 678 -240 678 -172 q 631 -348 678 -309 q 519 -387 583 -387 z "},"À":{"ha":1036,"x_min":-2,"x_max":1038,"o":"m -2 0 l 352 972 l 685 972 l 1038 0 l 722 0 l 667 174 l 360 174 l 306 0 l -2 0 m 420 406 l 606 406 l 515 683 l 420 406 m 395 1047 l 233 1293 l 526 1293 l 663 1047 l 395 1047 z "},"Ả":{"ha":1036,"x_min":-2,"x_max":1038,"o":"m -2 0 l 352 972 l 685 972 l 1038 0 l 722 0 l 667 174 l 360 174 l 306 0 l -2 0 m 420 406 l 606 406 l 515 683 l 420 406 m 428 1047 q 412 1117 401 1089 q 467 1158 423 1146 q 500 1169 490 1165 q 510 1183 510 1174 q 496 1195 510 1191 q 462 1199 482 1199 q 405 1192 430 1199 q 355 1174 380 1186 l 317 1304 q 410 1336 355 1324 q 519 1347 466 1347 q 632 1332 584 1347 q 705 1289 679 1317 q 731 1222 731 1261 q 713 1159 731 1185 q 645 1108 695 1133 q 601 1078 611 1092 q 603 1047 591 1065 l 428 1047 z "},"Ȃ":{"ha":1036,"x_min":-2,"x_max":1038,"o":"m -2 0 l 352 972 l 685 972 l 1038 0 l 722 0 l 667 174 l 360 174 l 306 0 l -2 0 m 420 406 l 606 406 l 515 683 l 420 406 m 205 1047 q 242 1181 203 1124 q 352 1269 281 1238 q 519 1300 424 1300 q 683 1268 613 1300 q 793 1179 754 1236 q 831 1047 833 1122 l 599 1047 q 579 1101 601 1082 q 519 1121 556 1121 q 458 1101 481 1121 q 438 1047 436 1082 l 205 1047 z "},"Ā":{"ha":1036,"x_min":-2,"x_max":1038,"o":"m -2 0 l 352 972 l 685 972 l 1038 0 l 722 0 l 667 174 l 360 174 l 306 0 l -2 0 m 420 406 l 606 406 l 515 683 l 420 406 m 241 1086 l 241 1250 l 797 1250 l 797 1086 l 241 1086 z "},"Ą":{"ha":1036,"x_min":-2,"x_max":1038,"o":"m -2 0 l 352 972 l 685 972 l 1038 0 l 722 0 l 667 174 l 360 174 l 306 0 l -2 0 m 420 406 l 606 406 l 515 683 l 420 406 m 821 -312 q 696 -267 745 -312 q 647 -152 647 -222 q 689 -36 647 -87 q 806 45 731 15 q 981 81 881 76 l 994 0 q 891 -13 932 0 q 830 -48 850 -26 q 810 -101 810 -71 q 825 -140 810 -125 q 867 -154 841 -154 q 904 -145 885 -154 q 938 -121 923 -136 l 998 -257 q 914 -298 960 -284 q 821 -312 869 -312 z "},"Å":{"ha":1036,"x_min":-2,"x_max":1038,"o":"m -2 0 l 352 972 l 685 972 l 1038 0 l 722 0 l 667 174 l 360 174 l 306 0 l -2 0 m 420 406 l 606 406 l 515 683 l 420 406 m 519 1025 q 399 1053 452 1025 q 314 1132 345 1082 q 283 1246 283 1182 q 314 1359 283 1309 q 399 1438 345 1409 q 519 1467 452 1467 q 638 1438 585 1467 q 723 1359 692 1409 q 755 1246 755 1309 q 723 1132 755 1182 q 638 1053 692 1082 q 519 1025 585 1025 m 519 1171 q 574 1192 553 1171 q 594 1246 594 1213 q 574 1300 594 1279 q 519 1321 553 1321 q 464 1300 485 1321 q 444 1246 444 1279 q 464 1192 444 1213 q 519 1171 485 1171 z "},"Ǻ":{"ha":1036,"x_min":-2,"x_max":1038,"o":"m -2 0 l 352 972 l 685 972 l 1038 0 l 722 0 l 667 174 l 360 174 l 306 0 l -2 0 m 420 406 l 606 406 l 515 683 l 420 406 m 519 1025 q 399 1053 452 1025 q 314 1132 345 1082 q 283 1246 283 1182 q 314 1359 283 1309 q 399 1438 345 1409 q 519 1467 452 1467 q 638 1438 585 1467 q 723 1359 692 1409 q 755 1246 755 1309 q 723 1132 755 1182 q 638 1053 692 1082 q 519 1025 585 1025 m 519 1171 q 574 1192 553 1171 q 594 1246 594 1213 q 574 1300 594 1279 q 519 1321 553 1321 q 464 1300 485 1321 q 444 1246 444 1279 q 464 1192 444 1213 q 519 1171 485 1171 m 373 1503 l 513 1749 l 801 1749 l 634 1503 l 373 1503 z "},"Ã":{"ha":1036,"x_min":-2,"x_max":1038,"o":"m -2 0 l 352 972 l 685 972 l 1038 0 l 722 0 l 667 174 l 360 174 l 306 0 l -2 0 m 420 406 l 606 406 l 515 683 l 420 406 m 295 1022 l 191 1139 q 278 1260 224 1219 q 401 1301 332 1301 q 492 1284 451 1301 q 570 1248 533 1266 q 645 1231 607 1231 q 703 1251 678 1231 q 744 1317 728 1271 l 847 1199 q 780 1080 833 1119 q 653 1040 726 1040 q 558 1058 602 1040 q 475 1092 514 1075 q 399 1110 435 1110 q 339 1089 366 1110 q 295 1022 312 1068 z "},"Æ":{"ha":1278,"x_min":-72,"x_max":1208,"o":"m -72 0 l 349 972 l 1202 972 l 1202 731 l 820 731 l 820 604 l 1145 604 l 1145 382 l 820 382 l 820 244 l 1208 244 l 1208 0 l 540 0 l 540 174 l 297 174 l 226 0 l -72 0 m 385 393 l 540 393 l 540 774 l 385 393 z "},"Ǽ":{"ha":1278,"x_min":-72,"x_max":1208,"o":"m -72 0 l 349 972 l 1202 972 l 1202 731 l 820 731 l 820 604 l 1145 604 l 1145 382 l 820 382 l 820 244 l 1208 244 l 1208 0 l 540 0 l 540 174 l 297 174 l 226 0 l -72 0 m 385 393 l 540 393 l 540 774 l 385 393 m 674 1047 l 815 1293 l 1102 1293 l 935 1047 l 674 1047 z "},"B":{"ha":936,"x_min":106,"x_max":890,"o":"m 106 0 l 106 972 l 512 972 q 757 910 666 972 q 848 725 848 848 q 832 647 848 682 q 788 584 816 612 q 722 538 759 557 q 844 443 799 508 q 890 293 890 378 q 844 136 890 202 q 715 35 799 71 q 516 0 631 0 l 106 0 m 387 201 l 478 201 q 567 227 537 201 q 597 300 597 252 q 569 372 597 346 q 492 399 542 399 l 387 399 l 387 201 m 387 585 l 476 585 q 530 596 508 585 q 565 628 553 607 q 577 679 577 649 q 550 747 577 723 q 472 771 523 771 l 387 771 l 387 585 z "},"C":{"ha":972,"x_min":47,"x_max":953,"o":"m 562 -21 q 294 40 410 -21 q 112 214 178 101 q 47 482 47 327 q 85 689 47 595 q 193 851 123 783 q 358 956 263 919 q 566 993 453 993 q 778 960 695 993 q 933 868 862 928 l 795 638 q 704 699 758 678 q 584 719 650 719 q 480 703 525 719 q 404 656 435 687 q 357 583 373 626 q 341 486 341 540 q 370 361 341 413 q 454 281 399 309 q 587 253 509 253 q 708 272 647 253 q 826 331 769 290 l 953 96 q 792 13 888 46 q 562 -21 695 -21 z "},"Ć":{"ha":972,"x_min":47,"x_max":953,"o":"m 562 -21 q 294 40 410 -21 q 112 214 178 101 q 47 482 47 327 q 85 689 47 595 q 193 851 123 783 q 358 956 263 919 q 566 993 453 993 q 778 960 695 993 q 933 868 862 928 l 795 638 q 704 699 758 678 q 584 719 650 719 q 480 703 525 719 q 404 656 435 687 q 357 583 373 626 q 341 486 341 540 q 370 361 341 413 q 454 281 399 309 q 587 253 509 253 q 708 272 647 253 q 826 331 769 290 l 953 96 q 792 13 888 46 q 562 -21 695 -21 m 388 1047 l 528 1293 l 816 1293 l 649 1047 l 388 1047 z "},"Č":{"ha":972,"x_min":47,"x_max":953,"o":"m 562 -21 q 294 40 410 -21 q 112 214 178 101 q 47 482 47 327 q 85 689 47 595 q 193 851 123 783 q 358 956 263 919 q 566 993 453 993 q 778 960 695 993 q 933 868 862 928 l 795 638 q 704 699 758 678 q 584 719 650 719 q 480 703 525 719 q 404 656 435 687 q 357 583 373 626 q 341 486 341 540 q 370 361 341 413 q 454 281 399 309 q 587 253 509 253 q 708 272 647 253 q 826 331 769 290 l 953 96 q 792 13 888 46 q 562 -21 695 -21 m 410 1047 l 190 1293 l 460 1293 l 540 1203 l 619 1293 l 880 1293 l 658 1047 l 410 1047 z "},"Ç":{"ha":972,"x_min":47,"x_max":953,"o":"m 562 -21 q 294 40 410 -21 q 112 214 178 101 q 47 482 47 327 q 85 689 47 595 q 193 851 123 783 q 358 956 263 919 q 566 993 453 993 q 778 960 695 993 q 933 868 862 928 l 795 638 q 704 699 758 678 q 584 719 650 719 q 480 703 525 719 q 404 656 435 687 q 357 583 373 626 q 341 486 341 540 q 370 361 341 413 q 454 281 399 309 q 587 253 509 253 q 708 272 647 253 q 826 331 769 290 l 953 96 q 792 13 888 46 q 562 -21 695 -21 m 516 -312 q 406 -297 457 -312 q 320 -260 356 -281 l 366 -144 q 435 -177 393 -167 q 506 -186 477 -186 q 547 -181 533 -186 q 560 -168 560 -176 q 532 -150 560 -156 q 470 -151 503 -145 l 420 -58 l 459 28 l 601 28 l 580 -36 q 704 -77 659 -44 q 749 -168 749 -110 q 715 -250 749 -218 q 626 -297 680 -282 q 516 -312 573 -312 z "},"Ĉ":{"ha":972,"x_min":47,"x_max":953,"o":"m 562 -21 q 294 40 410 -21 q 112 214 178 101 q 47 482 47 327 q 85 689 47 595 q 193 851 123 783 q 358 956 263 919 q 566 993 453 993 q 778 960 695 993 q 933 868 862 928 l 795 638 q 704 699 758 678 q 584 719 650 719 q 480 703 525 719 q 404 656 435 687 q 357 583 373 626 q 341 486 341 540 q 370 361 341 413 q 454 281 399 309 q 587 253 509 253 q 708 272 647 253 q 826 331 769 290 l 953 96 q 792 13 888 46 q 562 -21 695 -21 m 190 1047 l 410 1293 l 658 1293 l 880 1047 l 609 1047 l 530 1138 l 449 1047 l 190 1047 z "},"Ċ":{"ha":972,"x_min":47,"x_max":953,"o":"m 562 -21 q 294 40 410 -21 q 112 214 178 101 q 47 482 47 327 q 85 689 47 595 q 193 851 123 783 q 358 956 263 919 q 566 993 453 993 q 778 960 695 993 q 933 868 862 928 l 795 638 q 704 699 758 678 q 584 719 650 719 q 480 703 525 719 q 404 656 435 687 q 357 583 373 626 q 341 486 341 540 q 370 361 341 413 q 454 281 399 309 q 587 253 509 253 q 708 272 647 253 q 826 331 769 290 l 953 96 q 792 13 888 46 q 562 -21 695 -21 m 534 1051 q 417 1091 467 1051 q 367 1201 367 1131 q 417 1313 367 1272 q 534 1353 467 1353 q 651 1313 602 1353 q 701 1201 701 1272 q 651 1092 701 1132 q 534 1051 602 1051 z "},"D":{"ha":1024,"x_min":106,"x_max":977,"o":"m 106 0 l 106 972 l 459 972 q 731 911 615 972 q 913 740 848 849 q 977 486 977 631 q 940 288 977 377 q 835 134 903 198 q 672 35 767 69 q 459 0 576 0 l 106 0 m 387 261 l 452 261 q 545 275 503 261 q 618 316 588 288 q 666 387 649 344 q 683 486 683 429 q 653 613 683 563 q 572 687 624 663 q 452 711 520 711 l 387 711 l 387 261 z "},"Ǆ":{"ha":1846,"x_min":106,"x_max":1802,"o":"m 106 0 l 106 972 l 459 972 q 731 911 615 972 q 913 740 848 849 q 977 486 977 631 q 940 288 977 377 q 835 134 903 198 q 672 35 767 69 q 459 0 576 0 l 106 0 m 387 261 l 452 261 q 545 275 503 261 q 618 316 588 288 q 666 387 649 344 q 683 486 683 429 q 653 613 683 563 q 572 687 624 663 q 452 711 520 711 l 387 711 l 387 261 m 1070 0 l 1070 233 l 1459 717 l 1087 717 l 1087 972 l 1799 972 l 1799 740 l 1413 256 l 1802 256 l 1802 0 l 1070 0 m 1313 1047 l 1092 1293 l 1363 1293 l 1442 1203 l 1522 1293 l 1783 1293 l 1560 1047 l 1313 1047 z "},"Ð":{"ha":1051,"x_min":-17,"x_max":1005,"o":"m -17 388 l -17 601 l 598 601 l 598 388 l -17 388 m 134 0 l 134 972 l 487 972 q 759 911 642 972 q 940 740 876 849 q 1005 486 1005 631 q 968 288 1005 377 q 863 134 931 198 q 699 35 794 69 q 487 0 604 0 l 134 0 m 415 261 l 480 261 q 573 275 531 261 q 646 316 615 288 q 694 387 677 344 q 710 486 710 429 q 681 613 710 563 q 600 687 652 663 q 480 711 548 711 l 415 711 l 415 261 z "},"Ď":{"ha":1024,"x_min":106,"x_max":977,"o":"m 106 0 l 106 972 l 459 972 q 731 911 615 972 q 913 740 848 849 q 977 486 977 631 q 940 288 977 377 q 835 134 903 198 q 672 35 767 69 q 459 0 576 0 l 106 0 m 387 261 l 452 261 q 545 275 503 261 q 618 316 588 288 q 666 387 649 344 q 683 486 683 429 q 653 613 683 563 q 572 687 624 663 q 452 711 520 711 l 387 711 l 387 261 m 377 1047 l 156 1293 l 427 1293 l 506 1203 l 585 1293 l 847 1293 l 624 1047 l 377 1047 z "},"Đ":{"ha":1051,"x_min":-17,"x_max":1005,"o":"m -17 388 l -17 601 l 598 601 l 598 388 l -17 388 m 134 0 l 134 972 l 487 972 q 759 911 642 972 q 940 740 876 849 q 1005 486 1005 631 q 968 288 1005 377 q 863 134 931 198 q 699 35 794 69 q 487 0 604 0 l 134 0 m 415 261 l 480 261 q 573 275 531 261 q 646 316 615 288 q 694 387 677 344 q 710 486 710 429 q 681 613 710 563 q 600 687 652 663 q 480 711 548 711 l 415 711 l 415 261 z "},"ǅ":{"ha":1763,"x_min":106,"x_max":1727,"o":"m 106 0 l 106 972 l 459 972 q 731 911 615 972 q 913 740 848 849 q 977 486 977 631 q 940 288 977 377 q 835 134 903 198 q 672 35 767 69 q 459 0 576 0 l 106 0 m 387 261 l 452 261 q 545 275 503 261 q 618 316 588 288 q 666 387 649 344 q 683 486 683 429 q 653 613 683 563 q 572 687 624 663 q 452 711 520 711 l 387 711 l 387 261 m 1077 0 l 1077 181 l 1359 479 l 1090 479 l 1090 722 l 1703 722 l 1703 542 l 1442 243 l 1709 243 l 1709 0 l 1077 0 m 1276 813 l 1060 1072 l 1319 1072 l 1398 963 l 1478 1072 l 1727 1072 l 1512 813 l 1276 813 z "},"E":{"ha":903,"x_min":106,"x_max":833,"o":"m 106 0 l 106 972 l 827 972 l 827 731 l 387 731 l 387 604 l 748 604 l 748 383 l 387 383 l 387 244 l 833 244 l 833 0 l 106 0 z "},"É":{"ha":903,"x_min":106,"x_max":833,"o":"m 106 0 l 106 972 l 827 972 l 827 731 l 387 731 l 387 604 l 748 604 l 748 383 l 387 383 l 387 244 l 833 244 l 833 0 l 106 0 m 317 1047 l 458 1293 l 745 1293 l 578 1047 l 317 1047 z "},"Ĕ":{"ha":903,"x_min":106,"x_max":833,"o":"m 106 0 l 106 972 l 827 972 l 827 731 l 387 731 l 387 604 l 748 604 l 748 383 l 387 383 l 387 244 l 833 244 l 833 0 l 106 0 m 463 1040 q 296 1072 367 1040 q 186 1160 225 1103 q 149 1293 148 1217 l 383 1293 q 402 1240 381 1260 q 463 1219 424 1219 q 524 1240 502 1219 q 544 1293 546 1260 l 776 1293 q 738 1160 777 1217 q 627 1072 698 1103 q 463 1040 556 1040 z "},"Ě":{"ha":903,"x_min":106,"x_max":833,"o":"m 106 0 l 106 972 l 827 972 l 827 731 l 387 731 l 387 604 l 748 604 l 748 383 l 387 383 l 387 244 l 833 244 l 833 0 l 106 0 m 340 1047 l 119 1293 l 390 1293 l 469 1203 l 548 1293 l 809 1293 l 587 1047 l 340 1047 z "},"Ê":{"ha":903,"x_min":106,"x_max":833,"o":"m 106 0 l 106 972 l 827 972 l 827 731 l 387 731 l 387 604 l 748 604 l 748 383 l 387 383 l 387 244 l 833 244 l 833 0 l 106 0 m 119 1047 l 340 1293 l 587 1293 l 809 1047 l 538 1047 l 459 1138 l 378 1047 l 119 1047 z "},"Ế":{"ha":903,"x_min":106,"x_max":1091,"o":"m 106 0 l 106 972 l 827 972 l 827 731 l 387 731 l 387 604 l 748 604 l 748 383 l 387 383 l 387 244 l 833 244 l 833 0 l 106 0 m 119 1047 l 340 1293 l 587 1293 l 809 1047 l 538 1047 l 459 1138 l 378 1047 l 119 1047 m 663 1279 l 803 1525 l 1091 1525 l 924 1279 l 663 1279 z "},"Ệ":{"ha":903,"x_min":106,"x_max":833,"o":"m 106 0 l 106 972 l 827 972 l 827 731 l 387 731 l 387 604 l 748 604 l 748 383 l 387 383 l 387 244 l 833 244 l 833 0 l 106 0 m 463 -387 q 351 -348 399 -387 q 303 -240 303 -309 q 351 -132 303 -172 q 463 -93 399 -93 q 575 -132 528 -93 q 623 -240 623 -172 q 575 -348 623 -309 q 463 -387 528 -387 m 119 1047 l 340 1293 l 587 1293 l 809 1047 l 538 1047 l 459 1138 l 378 1047 l 119 1047 z "},"Ề":{"ha":903,"x_min":106,"x_max":953,"o":"m 106 0 l 106 972 l 827 972 l 827 731 l 387 731 l 387 604 l 748 604 l 748 383 l 387 383 l 387 244 l 833 244 l 833 0 l 106 0 m 119 1047 l 340 1293 l 587 1293 l 809 1047 l 538 1047 l 459 1138 l 378 1047 l 119 1047 m 685 1279 l 523 1525 l 816 1525 l 953 1279 l 685 1279 z "},"Ể":{"ha":903,"x_min":106,"x_max":1022,"o":"m 106 0 l 106 972 l 827 972 l 827 731 l 387 731 l 387 604 l 748 604 l 748 383 l 387 383 l 387 244 l 833 244 l 833 0 l 106 0 m 119 1047 l 340 1293 l 587 1293 l 809 1047 l 538 1047 l 459 1138 l 378 1047 l 119 1047 m 719 1279 q 702 1349 692 1321 q 758 1390 713 1378 q 791 1401 781 1397 q 801 1415 801 1406 q 786 1427 801 1423 q 752 1431 772 1431 q 695 1424 720 1431 q 645 1406 670 1418 l 608 1536 q 701 1568 645 1556 q 809 1579 756 1579 q 922 1564 874 1579 q 995 1521 969 1549 q 1022 1454 1022 1493 q 1003 1391 1022 1417 q 935 1340 985 1365 q 891 1310 901 1324 q 894 1279 881 1297 l 719 1279 z "},"Ễ":{"ha":903,"x_min":106,"x_max":833,"o":"m 106 0 l 106 972 l 827 972 l 827 731 l 387 731 l 387 604 l 748 604 l 748 383 l 387 383 l 387 244 l 833 244 l 833 0 l 106 0 m 119 1047 l 340 1293 l 587 1293 l 809 1047 l 538 1047 l 459 1138 l 378 1047 l 119 1047 m 240 1304 l 135 1421 q 222 1542 168 1501 q 345 1583 276 1583 q 437 1566 396 1583 q 515 1530 478 1548 q 590 1513 551 1513 q 648 1533 622 1513 q 688 1599 673 1553 l 791 1481 q 724 1362 778 1401 q 598 1322 671 1322 q 502 1340 547 1322 q 419 1374 458 1357 q 344 1392 380 1392 q 283 1371 310 1392 q 240 1304 256 1350 z "},"Ȅ":{"ha":903,"x_min":-15,"x_max":833,"o":"m 106 0 l 106 972 l 827 972 l 827 731 l 387 731 l 387 604 l 748 604 l 748 383 l 387 383 l 387 244 l 833 244 l 833 0 l 106 0 m 802 1047 l 541 1047 l 374 1293 l 660 1293 l 802 1047 m 413 1047 l 152 1047 l -15 1293 l 273 1293 l 413 1047 z "},"Ë":{"ha":903,"x_min":106,"x_max":833,"o":"m 106 0 l 106 972 l 827 972 l 827 731 l 387 731 l 387 604 l 748 604 l 748 383 l 387 383 l 387 244 l 833 244 l 833 0 l 106 0 m 266 1049 q 160 1087 208 1049 q 113 1193 113 1126 q 135 1270 113 1238 q 191 1320 156 1302 q 266 1338 226 1338 q 371 1299 324 1338 q 417 1193 417 1260 q 395 1116 417 1148 q 339 1066 374 1083 q 266 1049 304 1049 m 660 1049 q 555 1087 602 1049 q 508 1193 508 1126 q 530 1270 508 1238 q 586 1320 551 1302 q 660 1338 621 1338 q 765 1299 719 1338 q 812 1193 812 1260 q 790 1116 812 1148 q 733 1066 768 1083 q 660 1049 699 1049 z "},"Ė":{"ha":903,"x_min":106,"x_max":833,"o":"m 106 0 l 106 972 l 827 972 l 827 731 l 387 731 l 387 604 l 748 604 l 748 383 l 387 383 l 387 244 l 833 244 l 833 0 l 106 0 m 463 1051 q 347 1091 397 1051 q 297 1201 297 1131 q 346 1313 297 1272 q 463 1353 396 1353 q 581 1313 531 1353 q 630 1201 630 1272 q 581 1092 630 1132 q 463 1051 531 1051 z "},"Ẹ":{"ha":903,"x_min":106,"x_max":833,"o":"m 106 0 l 106 972 l 827 972 l 827 731 l 387 731 l 387 604 l 748 604 l 748 383 l 387 383 l 387 244 l 833 244 l 833 0 l 106 0 m 463 -387 q 351 -348 399 -387 q 303 -240 303 -309 q 351 -132 303 -172 q 463 -93 399 -93 q 575 -132 528 -93 q 623 -240 623 -172 q 575 -348 623 -309 q 463 -387 528 -387 z "},"È":{"ha":903,"x_min":106,"x_max":833,"o":"m 106 0 l 106 972 l 827 972 l 827 731 l 387 731 l 387 604 l 748 604 l 748 383 l 387 383 l 387 244 l 833 244 l 833 0 l 106 0 m 340 1047 l 177 1293 l 470 1293 l 608 1047 l 340 1047 z "},"Ẻ":{"ha":903,"x_min":106,"x_max":833,"o":"m 106 0 l 106 972 l 827 972 l 827 731 l 387 731 l 387 604 l 748 604 l 748 383 l 387 383 l 387 244 l 833 244 l 833 0 l 106 0 m 373 1047 q 357 1117 346 1089 q 412 1158 367 1146 q 445 1169 435 1165 q 455 1183 455 1174 q 441 1195 455 1191 q 406 1199 426 1199 q 349 1192 374 1199 q 299 1174 324 1186 l 262 1304 q 355 1336 299 1324 q 463 1347 410 1347 q 576 1332 528 1347 q 650 1289 624 1317 q 676 1222 676 1261 q 658 1159 676 1185 q 590 1108 640 1133 q 545 1078 556 1092 q 548 1047 535 1065 l 373 1047 z "},"Ȇ":{"ha":903,"x_min":106,"x_max":833,"o":"m 106 0 l 106 972 l 827 972 l 827 731 l 387 731 l 387 604 l 748 604 l 748 383 l 387 383 l 387 244 l 833 244 l 833 0 l 106 0 m 149 1047 q 187 1181 148 1124 q 297 1269 226 1238 q 463 1300 368 1300 q 628 1268 557 1300 q 738 1179 699 1236 q 776 1047 777 1122 l 544 1047 q 523 1101 546 1082 q 463 1121 501 1121 q 403 1101 425 1121 q 383 1047 381 1082 l 149 1047 z "},"Ē":{"ha":903,"x_min":106,"x_max":833,"o":"m 106 0 l 106 972 l 827 972 l 827 731 l 387 731 l 387 604 l 748 604 l 748 383 l 387 383 l 387 244 l 833 244 l 833 0 l 106 0 m 185 1086 l 185 1250 l 741 1250 l 741 1086 l 185 1086 z "},"Ę":{"ha":903,"x_min":106,"x_max":836,"o":"m 106 0 l 106 972 l 827 972 l 827 731 l 387 731 l 387 604 l 748 604 l 748 383 l 387 383 l 387 244 l 833 244 l 833 0 l 106 0 m 659 -312 q 534 -267 583 -312 q 485 -152 485 -222 q 527 -36 485 -87 q 644 45 569 15 q 819 81 719 76 l 833 0 q 729 -13 770 0 q 668 -48 688 -26 q 648 -101 648 -71 q 664 -140 648 -125 q 705 -154 679 -154 q 742 -145 724 -154 q 776 -121 761 -136 l 836 -257 q 752 -298 798 -284 q 659 -312 707 -312 z "},"Ẽ":{"ha":903,"x_min":106,"x_max":833,"o":"m 106 0 l 106 972 l 827 972 l 827 731 l 387 731 l 387 604 l 748 604 l 748 383 l 387 383 l 387 244 l 833 244 l 833 0 l 106 0 m 240 1022 l 135 1139 q 222 1260 168 1219 q 345 1301 276 1301 q 437 1284 396 1301 q 515 1248 478 1266 q 590 1231 551 1231 q 648 1251 622 1231 q 688 1317 673 1271 l 791 1199 q 724 1080 778 1119 q 598 1040 671 1040 q 502 1058 547 1040 q 419 1092 458 1075 q 344 1110 380 1110 q 283 1089 310 1110 q 240 1022 256 1068 z "},"Ə":{"ha":1113,"x_min":35,"x_max":1066,"o":"m 538 -21 q 317 19 415 -21 q 154 136 219 60 q 62 323 89 213 q 53 571 35 433 l 898 571 l 894 365 l 203 365 l 322 475 q 331 359 317 408 q 374 278 345 310 q 445 230 403 246 q 540 214 488 214 q 647 233 602 214 q 722 287 692 251 q 765 373 751 322 q 778 486 778 423 q 748 618 778 563 q 655 703 717 674 q 501 733 593 733 q 355 710 426 733 q 234 642 284 688 l 109 858 q 278 952 177 912 q 519 993 379 993 q 804 934 681 993 q 997 762 927 875 q 1066 486 1066 649 q 1030 292 1066 383 q 924 130 993 201 q 758 19 856 60 q 538 -21 660 -21 z "},"F":{"ha":840,"x_min":106,"x_max":773,"o":"m 106 0 l 106 972 l 773 972 l 773 717 l 387 717 l 387 568 l 730 568 l 730 324 l 387 324 l 387 0 l 106 0 z "},"G":{"ha":1046,"x_min":47,"x_max":953,"o":"m 598 -21 q 388 14 487 -21 q 211 113 288 48 q 91 273 135 178 q 47 486 47 367 q 89 698 47 604 q 206 858 131 792 q 379 958 281 924 q 588 993 477 993 q 697 985 639 993 q 816 957 754 978 q 941 897 878 936 l 826 681 q 725 727 778 712 q 610 742 673 742 q 494 724 545 742 q 407 673 442 706 q 354 592 372 640 q 335 483 335 544 q 374 336 335 394 q 476 249 413 278 q 616 221 540 221 q 663 224 638 221 q 710 232 687 227 l 710 363 l 526 363 l 526 582 l 953 582 l 953 58 q 844 16 906 34 q 718 -11 783 -2 q 598 -21 653 -21 z "},"Ğ":{"ha":1046,"x_min":47,"x_max":953,"o":"m 598 -21 q 388 14 487 -21 q 211 113 288 48 q 91 273 135 178 q 47 486 47 367 q 89 698 47 604 q 206 858 131 792 q 379 958 281 924 q 588 993 477 993 q 697 985 639 993 q 816 957 754 978 q 941 897 878 936 l 826 681 q 725 727 778 712 q 610 742 673 742 q 494 724 545 742 q 407 673 442 706 q 354 592 372 640 q 335 483 335 544 q 374 336 335 394 q 476 249 413 278 q 616 221 540 221 q 663 224 638 221 q 710 232 687 227 l 710 363 l 526 363 l 526 582 l 953 582 l 953 58 q 844 16 906 34 q 718 -11 783 -2 q 598 -21 653 -21 m 547 1040 q 380 1072 451 1040 q 270 1160 308 1103 q 233 1293 231 1217 l 466 1293 q 485 1240 464 1260 q 547 1219 507 1219 q 607 1240 585 1219 q 627 1293 629 1260 l 859 1293 q 821 1160 860 1217 q 710 1072 781 1103 q 547 1040 639 1040 z "},"Ǧ":{"ha":1046,"x_min":47,"x_max":953,"o":"m 598 -21 q 388 14 487 -21 q 211 113 288 48 q 91 273 135 178 q 47 486 47 367 q 89 698 47 604 q 206 858 131 792 q 379 958 281 924 q 588 993 477 993 q 697 985 639 993 q 816 957 754 978 q 941 897 878 936 l 826 681 q 725 727 778 712 q 610 742 673 742 q 494 724 545 742 q 407 673 442 706 q 354 592 372 640 q 335 483 335 544 q 374 336 335 394 q 476 249 413 278 q 616 221 540 221 q 663 224 638 221 q 710 232 687 227 l 710 363 l 526 363 l 526 582 l 953 582 l 953 58 q 844 16 906 34 q 718 -11 783 -2 q 598 -21 653 -21 m 423 1047 l 202 1293 l 473 1293 l 552 1203 l 631 1293 l 892 1293 l 670 1047 l 423 1047 z "},"Ĝ":{"ha":1046,"x_min":47,"x_max":953,"o":"m 598 -21 q 388 14 487 -21 q 211 113 288 48 q 91 273 135 178 q 47 486 47 367 q 89 698 47 604 q 206 858 131 792 q 379 958 281 924 q 588 993 477 993 q 697 985 639 993 q 816 957 754 978 q 941 897 878 936 l 826 681 q 725 727 778 712 q 610 742 673 742 q 494 724 545 742 q 407 673 442 706 q 354 592 372 640 q 335 483 335 544 q 374 336 335 394 q 476 249 413 278 q 616 221 540 221 q 663 224 638 221 q 710 232 687 227 l 710 363 l 526 363 l 526 582 l 953 582 l 953 58 q 844 16 906 34 q 718 -11 783 -2 q 598 -21 653 -21 m 202 1047 l 423 1293 l 670 1293 l 892 1047 l 622 1047 l 542 1138 l 462 1047 l 202 1047 z "},"Ģ":{"ha":1046,"x_min":47,"x_max":953,"o":"m 598 -21 q 388 14 487 -21 q 211 113 288 48 q 91 273 135 178 q 47 486 47 367 q 89 698 47 604 q 206 858 131 792 q 379 958 281 924 q 588 993 477 993 q 697 985 639 993 q 816 957 754 978 q 941 897 878 936 l 826 681 q 725 727 778 712 q 610 742 673 742 q 494 724 545 742 q 407 673 442 706 q 354 592 372 640 q 335 483 335 544 q 374 336 335 394 q 476 249 413 278 q 616 221 540 221 q 663 224 638 221 q 710 232 687 227 l 710 363 l 526 363 l 526 582 l 953 582 l 953 58 q 844 16 906 34 q 718 -11 783 -2 q 598 -21 653 -21 m 493 -581 l 424 -481 q 525 -432 480 -465 q 597 -364 570 -400 q 516 -351 553 -366 q 456 -307 478 -336 q 433 -236 433 -277 q 474 -132 433 -170 q 580 -93 515 -93 q 699 -141 652 -93 q 746 -264 746 -189 q 719 -379 746 -324 q 636 -484 692 -434 q 493 -581 580 -534 z "},"Ġ":{"ha":1046,"x_min":47,"x_max":953,"o":"m 598 -21 q 388 14 487 -21 q 211 113 288 48 q 91 273 135 178 q 47 486 47 367 q 89 698 47 604 q 206 858 131 792 q 379 958 281 924 q 588 993 477 993 q 697 985 639 993 q 816 957 754 978 q 941 897 878 936 l 826 681 q 725 727 778 712 q 610 742 673 742 q 494 724 545 742 q 407 673 442 706 q 354 592 372 640 q 335 483 335 544 q 374 336 335 394 q 476 249 413 278 q 616 221 540 221 q 663 224 638 221 q 710 232 687 227 l 710 363 l 526 363 l 526 582 l 953 582 l 953 58 q 844 16 906 34 q 718 -11 783 -2 q 598 -21 653 -21 m 547 1051 q 430 1091 480 1051 q 380 1201 380 1131 q 430 1313 380 1272 q 547 1353 479 1353 q 664 1313 615 1353 q 713 1201 713 1272 q 664 1092 713 1132 q 547 1051 615 1051 z "},"H":{"ha":1099,"x_min":106,"x_max":992,"o":"m 106 0 l 106 972 l 387 972 l 387 629 l 712 629 l 712 972 l 992 972 l 992 0 l 712 0 l 712 374 l 387 374 l 387 0 l 106 0 z "},"Ħ":{"ha":1126,"x_min":9,"x_max":1117,"o":"m 726 0 l 726 972 l 1006 972 l 1006 0 l 726 0 m 120 0 l 120 972 l 401 972 l 401 0 l 120 0 m 378 318 l 378 574 l 748 574 l 748 318 l 378 318 m 9 664 l 9 878 l 1117 878 l 1117 664 l 9 664 z "},"Ĥ":{"ha":1099,"x_min":106,"x_max":992,"o":"m 106 0 l 106 972 l 387 972 l 387 629 l 712 629 l 712 972 l 992 972 l 992 0 l 712 0 l 712 374 l 387 374 l 387 0 l 106 0 m 205 1047 l 426 1293 l 673 1293 l 895 1047 l 624 1047 l 545 1138 l 465 1047 l 205 1047 z "},"I":{"ha":493,"x_min":106,"x_max":387,"o":"m 106 0 l 106 972 l 387 972 l 387 0 l 106 0 z "},"Ĳ":{"ha":1253,"x_min":106,"x_max":1148,"o":"m 106 0 l 106 972 l 387 972 l 387 0 l 106 0 m 785 -21 q 622 3 697 -21 q 491 65 547 26 l 570 290 q 663 249 620 263 q 745 235 706 235 q 834 268 801 235 q 867 374 867 302 l 867 972 l 1148 972 l 1148 311 q 1105 139 1148 213 q 982 22 1063 64 q 785 -21 901 -21 z "},"Í":{"ha":493,"x_min":106,"x_max":505,"o":"m 106 0 l 106 972 l 387 972 l 387 0 l 106 0 m 109 1063 l 231 1322 l 505 1322 l 356 1063 l 109 1063 z "},"Ĭ":{"ha":493,"x_min":-29,"x_max":522,"o":"m 106 0 l 106 972 l 387 972 l 387 0 l 106 0 m 247 1056 q 100 1089 163 1056 q 5 1182 38 1122 q -28 1322 -29 1242 l 192 1322 q 206 1255 190 1280 q 247 1229 221 1229 q 287 1255 272 1229 q 301 1322 303 1280 l 522 1322 q 488 1184 522 1244 q 391 1090 453 1124 q 247 1056 329 1056 z "},"Î":{"ha":493,"x_min":-60,"x_max":555,"o":"m 106 0 l 106 972 l 387 972 l 387 0 l 106 0 m -60 1063 l 130 1322 l 362 1322 l 555 1063 l 298 1063 l 241 1172 l 185 1063 l -60 1063 z "},"Ȉ":{"ha":493,"x_min":-90,"x_max":508,"o":"m 106 0 l 106 972 l 387 972 l 387 0 l 106 0 m 508 1063 l 302 1063 l 205 1322 l 435 1322 l 508 1063 m 219 1063 l 8 1063 l -90 1322 l 147 1322 l 219 1063 z "},"Ï":{"ha":493,"x_min":-49,"x_max":542,"o":"m 106 0 l 106 972 l 387 972 l 387 0 l 106 0 m 85 1063 q -11 1101 27 1063 q -49 1204 -49 1139 q -11 1308 -49 1270 q 85 1346 27 1346 q 180 1308 142 1346 q 219 1204 219 1270 q 180 1101 219 1139 q 85 1063 142 1063 m 408 1063 q 313 1101 351 1063 q 274 1204 274 1139 q 313 1308 274 1270 q 408 1346 351 1346 q 504 1308 466 1346 q 542 1204 542 1270 q 504 1101 542 1139 q 408 1063 466 1063 z "},"İ":{"ha":493,"x_min":80,"x_max":413,"o":"m 106 0 l 106 972 l 387 972 l 387 0 l 106 0 m 247 1051 q 130 1091 180 1051 q 80 1201 80 1131 q 130 1313 80 1272 q 247 1353 179 1353 q 364 1313 315 1353 q 413 1201 413 1272 q 364 1092 413 1132 q 247 1051 315 1051 z "},"Ị":{"ha":493,"x_min":87,"x_max":406,"o":"m 106 0 l 106 972 l 387 972 l 387 0 l 106 0 m 247 -387 q 134 -348 182 -387 q 87 -240 87 -309 q 134 -132 87 -172 q 247 -93 182 -93 q 359 -132 311 -93 q 406 -240 406 -172 q 359 -348 406 -309 q 247 -387 311 -387 z "},"Ì":{"ha":493,"x_min":-40,"x_max":391,"o":"m 106 0 l 106 972 l 387 972 l 387 0 l 106 0 m 123 1047 l -40 1293 l 253 1293 l 391 1047 l 123 1047 z "},"Ỉ":{"ha":493,"x_min":67,"x_max":435,"o":"m 106 0 l 106 972 l 387 972 l 387 0 l 106 0 m 163 1063 q 148 1139 138 1110 q 195 1185 157 1168 q 219 1199 212 1192 q 226 1217 226 1206 q 215 1234 226 1228 q 190 1240 204 1240 q 142 1233 162 1240 q 101 1214 122 1226 l 67 1340 q 150 1373 100 1361 q 247 1385 200 1385 q 385 1350 334 1385 q 435 1254 435 1315 q 420 1186 435 1215 q 363 1133 404 1158 q 325 1099 331 1114 q 327 1063 318 1085 l 163 1063 z "},"Ȋ":{"ha":493,"x_min":-29,"x_max":522,"o":"m 106 0 l 106 972 l 387 972 l 387 0 l 106 0 m -28 1063 q 5 1202 -29 1142 q 100 1296 38 1263 q 247 1329 163 1329 q 391 1295 329 1329 q 488 1201 453 1261 q 522 1063 522 1141 l 301 1063 q 288 1131 303 1106 q 247 1156 273 1156 q 206 1131 221 1156 q 192 1063 190 1106 l -28 1063 z "},"Ī":{"ha":493,"x_min":3,"x_max":491,"o":"m 106 0 l 106 972 l 387 972 l 387 0 l 106 0 m 3 1104 l 3 1265 l 491 1265 l 491 1104 l 3 1104 z "},"Į":{"ha":493,"x_min":40,"x_max":390,"o":"m 106 0 l 106 972 l 387 972 l 387 0 l 106 0 m 213 -312 q 89 -267 138 -312 q 40 -152 40 -222 q 81 -36 40 -87 q 198 45 123 15 q 374 81 274 76 l 387 0 q 283 -13 324 0 q 222 -48 242 -26 q 202 -101 202 -71 q 218 -140 202 -125 q 259 -154 233 -154 q 297 -145 278 -154 q 330 -121 315 -136 l 390 -257 q 307 -298 352 -284 q 213 -312 261 -312 z "},"Ĩ":{"ha":493,"x_min":-41,"x_max":533,"o":"m 106 0 l 106 972 l 387 972 l 387 0 l 106 0 m 53 1044 l -41 1156 q 35 1280 -12 1237 q 145 1322 83 1322 q 225 1303 190 1322 q 291 1266 260 1285 q 356 1247 323 1247 q 405 1269 383 1247 q 440 1339 426 1291 l 533 1226 q 476 1104 524 1145 q 363 1063 428 1063 q 280 1081 318 1063 q 208 1119 242 1100 q 144 1138 175 1138 q 94 1117 118 1138 q 53 1044 69 1096 z "},"J":{"ha":760,"x_min":-2,"x_max":655,"o":"m 292 -21 q 129 3 203 -21 q -2 65 54 26 l 77 290 q 170 249 127 263 q 252 235 213 235 q 341 268 308 235 q 374 374 374 302 l 374 972 l 655 972 l 655 311 q 612 139 655 213 q 489 22 569 64 q 292 -21 408 -21 z "},"Ĵ":{"ha":760,"x_min":-2,"x_max":823,"o":"m 292 -21 q 129 3 203 -21 q -2 65 54 26 l 77 290 q 170 249 127 263 q 252 235 213 235 q 341 268 308 235 q 374 374 374 302 l 374 972 l 655 972 l 655 311 q 612 139 655 213 q 489 22 569 64 q 292 -21 408 -21 m 208 1063 l 398 1322 l 630 1322 l 823 1063 l 566 1063 l 509 1172 l 453 1063 l 208 1063 z "},"K":{"ha":1053,"x_min":106,"x_max":1062,"o":"m 106 0 l 106 972 l 387 972 l 387 613 l 669 972 l 1020 972 l 658 521 l 1062 0 l 702 0 l 473 310 l 387 217 l 387 0 l 106 0 z "},"Ķ":{"ha":1053,"x_min":106,"x_max":1062,"o":"m 106 0 l 106 972 l 387 972 l 387 613 l 669 972 l 1020 972 l 658 521 l 1062 0 l 702 0 l 473 310 l 387 217 l 387 0 l 106 0 m 453 -581 l 384 -481 q 485 -432 440 -465 q 557 -364 530 -400 q 476 -351 513 -366 q 415 -307 438 -336 q 392 -236 392 -277 q 433 -132 392 -170 q 540 -93 474 -93 q 659 -141 612 -93 q 706 -264 706 -189 q 678 -379 706 -324 q 595 -484 651 -434 q 453 -581 540 -534 z "},"L":{"ha":794,"x_min":106,"x_max":755,"o":"m 106 0 l 106 972 l 387 972 l 387 256 l 755 256 l 755 0 l 106 0 z "},"Ǉ":{"ha":1554,"x_min":106,"x_max":1449,"o":"m 106 0 l 106 972 l 387 972 l 387 256 l 755 256 l 755 0 l 106 0 m 1087 -21 q 923 3 998 -21 q 792 65 849 26 l 872 290 q 964 249 922 263 q 1047 235 1007 235 q 1136 268 1103 235 q 1169 374 1169 302 l 1169 972 l 1449 972 l 1449 311 q 1407 139 1449 213 q 1283 22 1364 64 q 1087 -21 1202 -21 z "},"Ĺ":{"ha":794,"x_min":101,"x_max":755,"o":"m 106 0 l 106 972 l 387 972 l 387 256 l 755 256 l 755 0 l 106 0 m 101 1047 l 241 1293 l 528 1293 l 362 1047 l 101 1047 z "},"Ľ":{"ha":794,"x_min":106,"x_max":755,"o":"m 106 0 l 106 972 l 387 972 l 387 256 l 755 256 l 755 0 l 106 0 m 463 750 l 463 1000 l 723 1000 l 663 750 l 463 750 z "},"Ļ":{"ha":794,"x_min":106,"x_max":755,"o":"m 106 0 l 106 972 l 387 972 l 387 256 l 755 256 l 755 0 l 106 0 m 336 -581 l 267 -481 q 368 -432 323 -465 q 440 -364 413 -400 q 359 -351 397 -366 q 299 -307 322 -336 q 276 -236 276 -277 q 317 -132 276 -170 q 423 -93 358 -93 q 542 -141 495 -93 q 589 -264 589 -189 q 562 -379 589 -324 q 479 -484 535 -434 q 336 -581 423 -534 z "},"Ŀ":{"ha":794,"x_min":106,"x_max":806,"o":"m 106 0 l 106 972 l 387 972 l 387 256 l 755 256 l 755 0 l 106 0 m 644 397 q 530 439 578 397 q 481 551 481 480 q 504 635 481 600 q 563 688 526 669 q 644 707 600 707 q 758 666 710 707 q 806 551 806 624 q 784 469 806 503 q 725 416 762 435 q 644 397 688 397 z "},"ǈ":{"ha":1246,"x_min":106,"x_max":1180,"o":"m 106 0 l 106 972 l 387 972 l 387 256 l 755 256 l 755 0 l 106 0 m 873 -312 q 771 -304 812 -312 q 687 -272 731 -295 l 738 -69 q 774 -83 756 -78 q 810 -87 791 -87 q 864 -68 846 -87 q 881 -10 881 -49 l 881 722 l 1159 722 l 1159 -25 q 1123 -175 1159 -110 q 1022 -276 1087 -240 q 873 -312 958 -312 m 1020 815 q 908 855 956 815 q 860 963 860 894 q 908 1070 860 1031 q 1020 1110 956 1110 q 1132 1070 1085 1110 q 1180 963 1180 1031 q 1132 855 1180 894 q 1020 815 1085 815 z "},"Ł":{"ha":822,"x_min":-64,"x_max":783,"o":"m 29 269 l -64 467 l 255 615 l 255 588 l 663 778 l 756 580 l 255 346 l 255 374 l 29 269 m 134 0 l 134 972 l 415 972 l 415 256 l 783 256 l 783 0 l 134 0 z "},"M":{"ha":1321,"x_min":106,"x_max":1215,"o":"m 106 0 l 106 972 l 376 972 l 727 381 l 615 379 l 945 972 l 1215 972 l 1215 0 l 944 0 l 949 619 l 998 601 l 751 165 l 570 165 l 309 601 l 358 619 l 363 0 l 106 0 z "},"N":{"ha":1104,"x_min":106,"x_max":998,"o":"m 106 0 l 106 972 l 387 972 l 727 450 l 727 972 l 998 972 l 998 0 l 717 0 l 377 531 l 377 0 l 106 0 z "},"Ǌ":{"ha":1864,"x_min":106,"x_max":1759,"o":"m 106 0 l 106 972 l 387 972 l 727 450 l 727 972 l 998 972 l 998 0 l 717 0 l 377 531 l 377 0 l 106 0 m 1397 -21 q 1233 3 1308 -21 q 1102 65 1158 26 l 1181 290 q 1274 249 1231 263 q 1356 235 1317 235 q 1445 268 1413 235 q 1478 374 1478 302 l 1478 972 l 1759 972 l 1759 311 q 1716 139 1759 213 q 1593 22 1674 64 q 1397 -21 1512 -21 z "},"Ń":{"ha":1104,"x_min":106,"x_max":998,"o":"m 106 0 l 106 972 l 387 972 l 727 450 l 727 972 l 998 972 l 998 0 l 717 0 l 377 531 l 377 0 l 106 0 m 406 1047 l 547 1293 l 834 1293 l 667 1047 l 406 1047 z "},"Ň":{"ha":1104,"x_min":106,"x_max":998,"o":"m 106 0 l 106 972 l 387 972 l 727 450 l 727 972 l 998 972 l 998 0 l 717 0 l 377 531 l 377 0 l 106 0 m 428 1047 l 208 1293 l 478 1293 l 558 1203 l 637 1293 l 898 1293 l 676 1047 l 428 1047 z "},"Ņ":{"ha":1104,"x_min":106,"x_max":998,"o":"m 106 0 l 106 972 l 387 972 l 727 450 l 727 972 l 998 972 l 998 0 l 717 0 l 377 531 l 377 0 l 106 0 m 457 -581 l 388 -481 q 489 -432 444 -465 q 561 -364 534 -400 q 480 -351 517 -366 q 419 -307 442 -336 q 397 -236 397 -277 q 438 -132 397 -170 q 544 -93 478 -93 q 663 -141 616 -93 q 710 -264 710 -189 q 683 -379 710 -324 q 600 -484 656 -434 q 457 -581 544 -534 z "},"ǋ":{"ha":1556,"x_min":106,"x_max":1490,"o":"m 106 0 l 106 972 l 387 972 l 727 450 l 727 972 l 998 972 l 998 0 l 717 0 l 377 531 l 377 0 l 106 0 m 1183 -312 q 1081 -304 1122 -312 q 997 -272 1040 -295 l 1048 -69 q 1083 -83 1066 -78 q 1120 -87 1101 -87 q 1173 -68 1156 -87 q 1191 -10 1191 -49 l 1191 722 l 1469 722 l 1469 -25 q 1433 -175 1469 -110 q 1332 -276 1397 -240 q 1183 -312 1267 -312 m 1330 815 q 1218 855 1265 815 q 1170 963 1170 894 q 1218 1070 1170 1031 q 1330 1110 1265 1110 q 1442 1070 1394 1110 q 1490 963 1490 1031 q 1442 855 1490 894 q 1330 815 1394 815 z "},"Ñ":{"ha":1104,"x_min":106,"x_max":998,"o":"m 106 0 l 106 972 l 387 972 l 727 450 l 727 972 l 998 972 l 998 0 l 717 0 l 377 531 l 377 0 l 106 0 m 328 1022 l 224 1139 q 311 1260 257 1219 q 434 1301 365 1301 q 526 1284 485 1301 q 603 1248 567 1266 q 678 1231 640 1231 q 736 1251 711 1231 q 777 1317 762 1271 l 880 1199 q 813 1080 867 1119 q 687 1040 760 1040 q 591 1058 635 1040 q 508 1092 547 1075 q 433 1110 469 1110 q 372 1089 399 1110 q 328 1022 345 1068 z "},"Ŋ":{"ha":1104,"x_min":106,"x_max":998,"o":"m 740 -35 l 377 531 l 377 0 l 106 0 l 106 972 l 387 972 l 740 432 l 740 -35 m 712 -312 q 610 -303 651 -312 q 526 -271 569 -294 l 577 -69 q 614 -83 596 -78 q 653 -87 633 -87 q 709 -71 690 -87 q 727 -28 727 -55 l 727 972 l 998 972 l 998 -25 q 962 -175 998 -110 q 861 -276 926 -240 q 712 -312 797 -312 z "},"O":{"ha":1140,"x_min":47,"x_max":1094,"o":"m 570 -21 q 360 18 456 -21 q 194 125 265 56 q 85 286 124 194 q 47 486 47 378 q 85 687 47 594 q 194 848 124 779 q 360 955 265 917 q 570 993 456 993 q 780 954 684 993 q 945 846 875 915 q 1055 684 1016 776 q 1094 486 1094 592 q 1055 286 1094 378 q 945 125 1016 194 q 780 18 875 56 q 570 -21 684 -21 m 570 242 q 663 259 621 242 q 735 308 705 276 q 783 385 766 340 q 799 486 799 430 q 770 616 799 561 q 689 701 741 671 q 570 731 638 731 q 477 714 519 731 q 405 665 435 697 q 358 588 374 633 q 341 486 341 542 q 370 356 341 411 q 451 272 399 301 q 570 242 503 242 z "},"Ó":{"ha":1140,"x_min":47,"x_max":1094,"o":"m 570 -21 q 360 18 456 -21 q 194 125 265 56 q 85 286 124 194 q 47 486 47 378 q 85 687 47 594 q 194 848 124 779 q 360 955 265 917 q 570 993 456 993 q 780 954 684 993 q 945 846 875 915 q 1055 684 1016 776 q 1094 486 1094 592 q 1055 286 1094 378 q 945 125 1016 194 q 780 18 875 56 q 570 -21 684 -21 m 570 242 q 663 259 621 242 q 735 308 705 276 q 783 385 766 340 q 799 486 799 430 q 770 616 799 561 q 689 701 741 671 q 570 731 638 731 q 477 714 519 731 q 405 665 435 697 q 358 588 374 633 q 341 486 341 542 q 370 356 341 411 q 451 272 399 301 q 570 242 503 242 m 424 1047 l 565 1293 l 852 1293 l 685 1047 l 424 1047 z "},"Ŏ":{"ha":1140,"x_min":47,"x_max":1094,"o":"m 570 -21 q 360 18 456 -21 q 194 125 265 56 q 85 286 124 194 q 47 486 47 378 q 85 687 47 594 q 194 848 124 779 q 360 955 265 917 q 570 993 456 993 q 780 954 684 993 q 945 846 875 915 q 1055 684 1016 776 q 1094 486 1094 592 q 1055 286 1094 378 q 945 125 1016 194 q 780 18 875 56 q 570 -21 684 -21 m 570 242 q 663 259 621 242 q 735 308 705 276 q 783 385 766 340 q 799 486 799 430 q 770 616 799 561 q 689 701 741 671 q 570 731 638 731 q 477 714 519 731 q 405 665 435 697 q 358 588 374 633 q 341 486 341 542 q 370 356 341 411 q 451 272 399 301 q 570 242 503 242 m 570 1040 q 403 1072 474 1040 q 293 1160 332 1103 q 256 1293 255 1217 l 490 1293 q 509 1240 488 1260 q 570 1219 531 1219 q 631 1240 609 1219 q 651 1293 653 1260 l 883 1293 q 844 1160 884 1217 q 734 1072 805 1103 q 570 1040 663 1040 z "},"Ô":{"ha":1140,"x_min":47,"x_max":1094,"o":"m 570 -21 q 360 18 456 -21 q 194 125 265 56 q 85 286 124 194 q 47 486 47 378 q 85 687 47 594 q 194 848 124 779 q 360 955 265 917 q 570 993 456 993 q 780 954 684 993 q 945 846 875 915 q 1055 684 1016 776 q 1094 486 1094 592 q 1055 286 1094 378 q 945 125 1016 194 q 780 18 875 56 q 570 -21 684 -21 m 570 242 q 663 259 621 242 q 735 308 705 276 q 783 385 766 340 q 799 486 799 430 q 770 616 799 561 q 689 701 741 671 q 570 731 638 731 q 477 714 519 731 q 405 665 435 697 q 358 588 374 633 q 341 486 341 542 q 370 356 341 411 q 451 272 399 301 q 570 242 503 242 m 226 1047 l 447 1293 l 694 1293 l 916 1047 l 645 1047 l 566 1138 l 485 1047 l 226 1047 z "},"Ố":{"ha":1140,"x_min":47,"x_max":1198,"o":"m 570 -21 q 360 18 456 -21 q 194 125 265 56 q 85 286 124 194 q 47 486 47 378 q 85 687 47 594 q 194 848 124 779 q 360 955 265 917 q 570 993 456 993 q 780 954 684 993 q 945 846 875 915 q 1055 684 1016 776 q 1094 486 1094 592 q 1055 286 1094 378 q 945 125 1016 194 q 780 18 875 56 q 570 -21 684 -21 m 570 242 q 663 259 621 242 q 735 308 705 276 q 783 385 766 340 q 799 486 799 430 q 770 616 799 561 q 689 701 741 671 q 570 731 638 731 q 477 714 519 731 q 405 665 435 697 q 358 588 374 633 q 341 486 341 542 q 370 356 341 411 q 451 272 399 301 q 570 242 503 242 m 226 1047 l 447 1293 l 694 1293 l 916 1047 l 645 1047 l 566 1138 l 485 1047 l 226 1047 m 770 1279 l 910 1525 l 1198 1525 l 1031 1279 l 770 1279 z "},"Ộ":{"ha":1140,"x_min":47,"x_max":1094,"o":"m 570 -21 q 360 18 456 -21 q 194 125 265 56 q 85 286 124 194 q 47 486 47 378 q 85 687 47 594 q 194 848 124 779 q 360 955 265 917 q 570 993 456 993 q 780 954 684 993 q 945 846 875 915 q 1055 684 1016 776 q 1094 486 1094 592 q 1055 286 1094 378 q 945 125 1016 194 q 780 18 875 56 q 570 -21 684 -21 m 570 242 q 663 259 621 242 q 735 308 705 276 q 783 385 766 340 q 799 486 799 430 q 770 616 799 561 q 689 701 741 671 q 570 731 638 731 q 477 714 519 731 q 405 665 435 697 q 358 588 374 633 q 341 486 341 542 q 370 356 341 411 q 451 272 399 301 q 570 242 503 242 m 570 -387 q 458 -348 506 -387 q 410 -240 410 -309 q 458 -132 410 -172 q 570 -93 506 -93 q 682 -132 635 -93 q 730 -240 730 -172 q 682 -348 730 -309 q 570 -387 635 -387 m 226 1047 l 447 1293 l 694 1293 l 916 1047 l 645 1047 l 566 1138 l 485 1047 l 226 1047 z "},"Ồ":{"ha":1140,"x_min":47,"x_max":1094,"o":"m 570 -21 q 360 18 456 -21 q 194 125 265 56 q 85 286 124 194 q 47 486 47 378 q 85 687 47 594 q 194 848 124 779 q 360 955 265 917 q 570 993 456 993 q 780 954 684 993 q 945 846 875 915 q 1055 684 1016 776 q 1094 486 1094 592 q 1055 286 1094 378 q 945 125 1016 194 q 780 18 875 56 q 570 -21 684 -21 m 570 242 q 663 259 621 242 q 735 308 705 276 q 783 385 766 340 q 799 486 799 430 q 770 616 799 561 q 689 701 741 671 q 570 731 638 731 q 477 714 519 731 q 405 665 435 697 q 358 588 374 633 q 341 486 341 542 q 370 356 341 411 q 451 272 399 301 q 570 242 503 242 m 226 1047 l 447 1293 l 694 1293 l 916 1047 l 645 1047 l 566 1138 l 485 1047 l 226 1047 m 792 1279 l 630 1525 l 923 1525 l 1060 1279 l 792 1279 z "},"Ổ":{"ha":1140,"x_min":47,"x_max":1128,"o":"m 570 -21 q 360 18 456 -21 q 194 125 265 56 q 85 286 124 194 q 47 486 47 378 q 85 687 47 594 q 194 848 124 779 q 360 955 265 917 q 570 993 456 993 q 780 954 684 993 q 945 846 875 915 q 1055 684 1016 776 q 1094 486 1094 592 q 1055 286 1094 378 q 945 125 1016 194 q 780 18 875 56 q 570 -21 684 -21 m 570 242 q 663 259 621 242 q 735 308 705 276 q 783 385 766 340 q 799 486 799 430 q 770 616 799 561 q 689 701 741 671 q 570 731 638 731 q 477 714 519 731 q 405 665 435 697 q 358 588 374 633 q 341 486 341 542 q 370 356 341 411 q 451 272 399 301 q 570 242 503 242 m 226 1047 l 447 1293 l 694 1293 l 916 1047 l 645 1047 l 566 1138 l 485 1047 l 226 1047 m 826 1279 q 809 1349 799 1321 q 865 1390 820 1378 q 898 1401 888 1397 q 908 1415 908 1406 q 893 1427 908 1423 q 859 1431 879 1431 q 802 1424 827 1431 q 752 1406 777 1418 l 715 1536 q 808 1568 752 1556 q 916 1579 863 1579 q 1029 1564 981 1579 q 1102 1521 1076 1549 q 1128 1454 1128 1493 q 1110 1391 1128 1417 q 1042 1340 1092 1365 q 998 1310 1008 1324 q 1001 1279 988 1297 l 826 1279 z "},"Ỗ":{"ha":1140,"x_min":47,"x_max":1094,"o":"m 570 -21 q 360 18 456 -21 q 194 125 265 56 q 85 286 124 194 q 47 486 47 378 q 85 687 47 594 q 194 848 124 779 q 360 955 265 917 q 570 993 456 993 q 780 954 684 993 q 945 846 875 915 q 1055 684 1016 776 q 1094 486 1094 592 q 1055 286 1094 378 q 945 125 1016 194 q 780 18 875 56 q 570 -21 684 -21 m 570 242 q 663 259 621 242 q 735 308 705 276 q 783 385 766 340 q 799 486 799 430 q 770 616 799 561 q 689 701 741 671 q 570 731 638 731 q 477 714 519 731 q 405 665 435 697 q 358 588 374 633 q 341 486 341 542 q 370 356 341 411 q 451 272 399 301 q 570 242 503 242 m 226 1047 l 447 1293 l 694 1293 l 916 1047 l 645 1047 l 566 1138 l 485 1047 l 226 1047 m 347 1304 l 242 1421 q 329 1542 275 1501 q 452 1583 383 1583 q 544 1566 503 1583 q 622 1530 585 1548 q 697 1513 658 1513 q 755 1533 729 1513 q 795 1599 780 1553 l 898 1481 q 831 1362 885 1401 q 705 1322 778 1322 q 609 1340 653 1322 q 526 1374 565 1357 q 451 1392 487 1392 q 390 1371 417 1392 q 347 1304 363 1350 z "},"Ȍ":{"ha":1140,"x_min":47,"x_max":1094,"o":"m 570 -21 q 360 18 456 -21 q 194 125 265 56 q 85 286 124 194 q 47 486 47 378 q 85 687 47 594 q 194 848 124 779 q 360 955 265 917 q 570 993 456 993 q 780 954 684 993 q 945 846 875 915 q 1055 684 1016 776 q 1094 486 1094 592 q 1055 286 1094 378 q 945 125 1016 194 q 780 18 875 56 q 570 -21 684 -21 m 570 242 q 663 259 621 242 q 735 308 705 276 q 783 385 766 340 q 799 486 799 430 q 770 616 799 561 q 689 701 741 671 q 570 731 638 731 q 477 714 519 731 q 405 665 435 697 q 358 588 374 633 q 341 486 341 542 q 370 356 341 411 q 451 272 399 301 q 570 242 503 242 m 909 1047 l 648 1047 l 481 1293 l 767 1293 l 909 1047 m 520 1047 l 259 1047 l 92 1293 l 380 1293 l 520 1047 z "},"Ö":{"ha":1140,"x_min":47,"x_max":1094,"o":"m 570 -21 q 360 18 456 -21 q 194 125 265 56 q 85 286 124 194 q 47 486 47 378 q 85 687 47 594 q 194 848 124 779 q 360 955 265 917 q 570 993 456 993 q 780 954 684 993 q 945 846 875 915 q 1055 684 1016 776 q 1094 486 1094 592 q 1055 286 1094 378 q 945 125 1016 194 q 780 18 875 56 q 570 -21 684 -21 m 570 242 q 663 259 621 242 q 735 308 705 276 q 783 385 766 340 q 799 486 799 430 q 770 616 799 561 q 689 701 741 671 q 570 731 638 731 q 477 714 519 731 q 405 665 435 697 q 358 588 374 633 q 341 486 341 542 q 370 356 341 411 q 451 272 399 301 q 570 242 503 242 m 373 1049 q 267 1087 315 1049 q 220 1193 220 1126 q 242 1270 220 1238 q 298 1320 263 1302 q 373 1338 333 1338 q 478 1299 431 1338 q 524 1193 524 1260 q 502 1116 524 1148 q 446 1066 481 1083 q 373 1049 411 1049 m 767 1049 q 662 1087 709 1049 q 615 1193 615 1126 q 636 1270 615 1238 q 693 1320 658 1302 q 767 1338 728 1338 q 872 1299 826 1338 q 919 1193 919 1260 q 897 1116 919 1148 q 840 1066 875 1083 q 767 1049 806 1049 z "},"Ȫ":{"ha":1140,"x_min":47,"x_max":1094,"o":"m 570 -21 q 360 18 456 -21 q 194 125 265 56 q 85 286 124 194 q 47 486 47 378 q 85 687 47 594 q 194 848 124 779 q 360 955 265 917 q 570 993 456 993 q 780 954 684 993 q 945 846 875 915 q 1055 684 1016 776 q 1094 486 1094 592 q 1055 286 1094 378 q 945 125 1016 194 q 780 18 875 56 q 570 -21 684 -21 m 570 242 q 663 259 621 242 q 735 308 705 276 q 783 385 766 340 q 799 486 799 430 q 770 616 799 561 q 689 701 741 671 q 570 731 638 731 q 477 714 519 731 q 405 665 435 697 q 358 588 374 633 q 341 486 341 542 q 370 356 341 411 q 451 272 399 301 q 570 242 503 242 m 373 1049 q 267 1087 315 1049 q 220 1193 220 1126 q 242 1270 220 1238 q 298 1320 263 1302 q 373 1338 333 1338 q 478 1299 431 1338 q 524 1193 524 1260 q 502 1116 524 1148 q 446 1066 481 1083 q 373 1049 411 1049 m 767 1049 q 662 1087 709 1049 q 615 1193 615 1126 q 636 1270 615 1238 q 693 1320 658 1302 q 767 1338 728 1338 q 872 1299 826 1338 q 919 1193 919 1260 q 897 1116 919 1148 q 840 1066 875 1083 q 767 1049 806 1049 m 292 1388 l 292 1551 l 848 1551 l 848 1388 l 292 1388 z "},"Ȱ":{"ha":1140,"x_min":47,"x_max":1094,"o":"m 570 -21 q 360 18 456 -21 q 194 125 265 56 q 85 286 124 194 q 47 486 47 378 q 85 687 47 594 q 194 848 124 779 q 360 955 265 917 q 570 993 456 993 q 780 954 684 993 q 945 846 875 915 q 1055 684 1016 776 q 1094 486 1094 592 q 1055 286 1094 378 q 945 125 1016 194 q 780 18 875 56 q 570 -21 684 -21 m 570 242 q 663 259 621 242 q 735 308 705 276 q 783 385 766 340 q 799 486 799 430 q 770 616 799 561 q 689 701 741 671 q 570 731 638 731 q 477 714 519 731 q 405 665 435 697 q 358 588 374 633 q 341 486 341 542 q 370 356 341 411 q 451 272 399 301 q 570 242 503 242 m 570 1051 q 453 1091 503 1051 q 403 1201 403 1131 q 453 1313 403 1272 q 570 1353 503 1353 q 688 1313 638 1353 q 737 1201 737 1272 q 688 1092 737 1132 q 570 1051 638 1051 m 292 1388 l 292 1551 l 848 1551 l 848 1388 l 292 1388 z "},"Ọ":{"ha":1140,"x_min":47,"x_max":1094,"o":"m 570 -21 q 360 18 456 -21 q 194 125 265 56 q 85 286 124 194 q 47 486 47 378 q 85 687 47 594 q 194 848 124 779 q 360 955 265 917 q 570 993 456 993 q 780 954 684 993 q 945 846 875 915 q 1055 684 1016 776 q 1094 486 1094 592 q 1055 286 1094 378 q 945 125 1016 194 q 780 18 875 56 q 570 -21 684 -21 m 570 242 q 663 259 621 242 q 735 308 705 276 q 783 385 766 340 q 799 486 799 430 q 770 616 799 561 q 689 701 741 671 q 570 731 638 731 q 477 714 519 731 q 405 665 435 697 q 358 588 374 633 q 341 486 341 542 q 370 356 341 411 q 451 272 399 301 q 570 242 503 242 m 570 -387 q 458 -348 506 -387 q 410 -240 410 -309 q 458 -132 410 -172 q 570 -93 506 -93 q 682 -132 635 -93 q 730 -240 730 -172 q 682 -348 730 -309 q 570 -387 635 -387 z "},"Ò":{"ha":1140,"x_min":47,"x_max":1094,"o":"m 570 -21 q 360 18 456 -21 q 194 125 265 56 q 85 286 124 194 q 47 486 47 378 q 85 687 47 594 q 194 848 124 779 q 360 955 265 917 q 570 993 456 993 q 780 954 684 993 q 945 846 875 915 q 1055 684 1016 776 q 1094 486 1094 592 q 1055 286 1094 378 q 945 125 1016 194 q 780 18 875 56 q 570 -21 684 -21 m 570 242 q 663 259 621 242 q 735 308 705 276 q 783 385 766 340 q 799 486 799 430 q 770 616 799 561 q 689 701 741 671 q 570 731 638 731 q 477 714 519 731 q 405 665 435 697 q 358 588 374 633 q 341 486 341 542 q 370 356 341 411 q 451 272 399 301 q 570 242 503 242 m 447 1047 l 284 1293 l 577 1293 l 715 1047 l 447 1047 z "},"Ỏ":{"ha":1140,"x_min":47,"x_max":1094,"o":"m 570 -21 q 360 18 456 -21 q 194 125 265 56 q 85 286 124 194 q 47 486 47 378 q 85 687 47 594 q 194 848 124 779 q 360 955 265 917 q 570 993 456 993 q 780 954 684 993 q 945 846 875 915 q 1055 684 1016 776 q 1094 486 1094 592 q 1055 286 1094 378 q 945 125 1016 194 q 780 18 875 56 q 570 -21 684 -21 m 570 242 q 663 259 621 242 q 735 308 705 276 q 783 385 766 340 q 799 486 799 430 q 770 616 799 561 q 689 701 741 671 q 570 731 638 731 q 477 714 519 731 q 405 665 435 697 q 358 588 374 633 q 341 486 341 542 q 370 356 341 411 q 451 272 399 301 q 570 242 503 242 m 480 1047 q 464 1117 453 1089 q 519 1158 474 1146 q 552 1169 542 1165 q 562 1183 562 1174 q 548 1195 562 1191 q 513 1199 533 1199 q 456 1192 481 1199 q 406 1174 431 1186 l 369 1304 q 462 1336 406 1324 q 570 1347 517 1347 q 683 1332 635 1347 q 757 1289 731 1317 q 783 1222 783 1261 q 765 1159 783 1185 q 697 1108 747 1133 q 652 1078 663 1092 q 655 1047 642 1065 l 480 1047 z "},"Ơ":{"ha":1140,"x_min":47,"x_max":1208,"o":"m 570 -21 q 360 18 456 -21 q 194 125 265 56 q 85 286 124 194 q 47 486 47 378 q 85 687 47 594 q 194 848 124 779 q 360 955 265 917 q 570 993 456 993 q 780 954 684 993 q 945 846 875 915 q 1055 684 1016 776 q 1094 486 1094 592 q 1055 286 1094 378 q 945 125 1016 194 q 780 18 875 56 q 570 -21 684 -21 m 570 242 q 663 259 621 242 q 735 308 705 276 q 783 385 766 340 q 799 486 799 430 q 770 616 799 561 q 689 701 741 671 q 570 731 638 731 q 477 714 519 731 q 405 665 435 697 q 358 588 374 633 q 341 486 341 542 q 370 356 341 411 q 451 272 399 301 q 570 242 503 242 m 984 747 q 883 761 934 747 q 779 794 831 776 q 674 827 726 813 q 570 842 622 842 l 569 993 q 692 980 637 993 q 792 951 748 967 q 871 921 836 934 q 934 908 906 908 q 983 923 965 908 q 1001 960 1001 937 q 989 1007 1001 981 q 948 1064 976 1034 l 1106 1153 q 1183 1050 1158 1106 q 1208 942 1208 993 q 1180 843 1208 887 q 1101 773 1151 799 q 984 747 1051 747 z "},"Ớ":{"ha":1140,"x_min":47,"x_max":1208,"o":"m 570 -21 q 360 18 456 -21 q 194 125 265 56 q 85 286 124 194 q 47 486 47 378 q 85 687 47 594 q 194 848 124 779 q 360 955 265 917 q 570 993 456 993 q 780 954 684 993 q 945 846 875 915 q 1055 684 1016 776 q 1094 486 1094 592 q 1055 286 1094 378 q 945 125 1016 194 q 780 18 875 56 q 570 -21 684 -21 m 570 242 q 663 259 621 242 q 735 308 705 276 q 783 385 766 340 q 799 486 799 430 q 770 616 799 561 q 689 701 741 671 q 570 731 638 731 q 477 714 519 731 q 405 665 435 697 q 358 588 374 633 q 341 486 341 542 q 370 356 341 411 q 451 272 399 301 q 570 242 503 242 m 984 747 q 883 761 934 747 q 779 794 831 776 q 674 827 726 813 q 570 842 622 842 l 569 993 q 692 980 637 993 q 792 951 748 967 q 871 921 836 934 q 934 908 906 908 q 983 923 965 908 q 1001 960 1001 937 q 989 1007 1001 981 q 948 1064 976 1034 l 1106 1153 q 1183 1050 1158 1106 q 1208 942 1208 993 q 1180 843 1208 887 q 1101 773 1151 799 q 984 747 1051 747 m 424 1047 l 565 1293 l 852 1293 l 685 1047 l 424 1047 z "},"Ợ":{"ha":1140,"x_min":47,"x_max":1208,"o":"m 570 -21 q 360 18 456 -21 q 194 125 265 56 q 85 286 124 194 q 47 486 47 378 q 85 687 47 594 q 194 848 124 779 q 360 955 265 917 q 570 993 456 993 q 780 954 684 993 q 945 846 875 915 q 1055 684 1016 776 q 1094 486 1094 592 q 1055 286 1094 378 q 945 125 1016 194 q 780 18 875 56 q 570 -21 684 -21 m 570 242 q 663 259 621 242 q 735 308 705 276 q 783 385 766 340 q 799 486 799 430 q 770 616 799 561 q 689 701 741 671 q 570 731 638 731 q 477 714 519 731 q 405 665 435 697 q 358 588 374 633 q 341 486 341 542 q 370 356 341 411 q 451 272 399 301 q 570 242 503 242 m 984 747 q 883 761 934 747 q 779 794 831 776 q 674 827 726 813 q 570 842 622 842 l 569 993 q 692 980 637 993 q 792 951 748 967 q 871 921 836 934 q 934 908 906 908 q 983 923 965 908 q 1001 960 1001 937 q 989 1007 1001 981 q 948 1064 976 1034 l 1106 1153 q 1183 1050 1158 1106 q 1208 942 1208 993 q 1180 843 1208 887 q 1101 773 1151 799 q 984 747 1051 747 m 570 -387 q 458 -348 506 -387 q 410 -240 410 -309 q 458 -132 410 -172 q 570 -93 506 -93 q 682 -132 635 -93 q 730 -240 730 -172 q 682 -348 730 -309 q 570 -387 635 -387 z "},"Ờ":{"ha":1140,"x_min":47,"x_max":1208,"o":"m 570 -21 q 360 18 456 -21 q 194 125 265 56 q 85 286 124 194 q 47 486 47 378 q 85 687 47 594 q 194 848 124 779 q 360 955 265 917 q 570 993 456 993 q 780 954 684 993 q 945 846 875 915 q 1055 684 1016 776 q 1094 486 1094 592 q 1055 286 1094 378 q 945 125 1016 194 q 780 18 875 56 q 570 -21 684 -21 m 570 242 q 663 259 621 242 q 735 308 705 276 q 783 385 766 340 q 799 486 799 430 q 770 616 799 561 q 689 701 741 671 q 570 731 638 731 q 477 714 519 731 q 405 665 435 697 q 358 588 374 633 q 341 486 341 542 q 370 356 341 411 q 451 272 399 301 q 570 242 503 242 m 984 747 q 883 761 934 747 q 779 794 831 776 q 674 827 726 813 q 570 842 622 842 l 569 993 q 692 980 637 993 q 792 951 748 967 q 871 921 836 934 q 934 908 906 908 q 983 923 965 908 q 1001 960 1001 937 q 989 1007 1001 981 q 948 1064 976 1034 l 1106 1153 q 1183 1050 1158 1106 q 1208 942 1208 993 q 1180 843 1208 887 q 1101 773 1151 799 q 984 747 1051 747 m 447 1047 l 284 1293 l 577 1293 l 715 1047 l 447 1047 z "},"Ở":{"ha":1140,"x_min":47,"x_max":1208,"o":"m 570 -21 q 360 18 456 -21 q 194 125 265 56 q 85 286 124 194 q 47 486 47 378 q 85 687 47 594 q 194 848 124 779 q 360 955 265 917 q 570 993 456 993 q 780 954 684 993 q 945 846 875 915 q 1055 684 1016 776 q 1094 486 1094 592 q 1055 286 1094 378 q 945 125 1016 194 q 780 18 875 56 q 570 -21 684 -21 m 570 242 q 663 259 621 242 q 735 308 705 276 q 783 385 766 340 q 799 486 799 430 q 770 616 799 561 q 689 701 741 671 q 570 731 638 731 q 477 714 519 731 q 405 665 435 697 q 358 588 374 633 q 341 486 341 542 q 370 356 341 411 q 451 272 399 301 q 570 242 503 242 m 984 747 q 883 761 934 747 q 779 794 831 776 q 674 827 726 813 q 570 842 622 842 l 569 993 q 692 980 637 993 q 792 951 748 967 q 871 921 836 934 q 934 908 906 908 q 983 923 965 908 q 1001 960 1001 937 q 989 1007 1001 981 q 948 1064 976 1034 l 1106 1153 q 1183 1050 1158 1106 q 1208 942 1208 993 q 1180 843 1208 887 q 1101 773 1151 799 q 984 747 1051 747 m 480 1047 q 464 1117 453 1089 q 519 1158 474 1146 q 552 1169 542 1165 q 562 1183 562 1174 q 548 1195 562 1191 q 513 1199 533 1199 q 456 1192 481 1199 q 406 1174 431 1186 l 369 1304 q 462 1336 406 1324 q 570 1347 517 1347 q 683 1332 635 1347 q 757 1289 731 1317 q 783 1222 783 1261 q 765 1159 783 1185 q 697 1108 747 1133 q 652 1078 663 1092 q 655 1047 642 1065 l 480 1047 z "},"Ỡ":{"ha":1140,"x_min":47,"x_max":1208,"o":"m 570 -21 q 360 18 456 -21 q 194 125 265 56 q 85 286 124 194 q 47 486 47 378 q 85 687 47 594 q 194 848 124 779 q 360 955 265 917 q 570 993 456 993 q 780 954 684 993 q 945 846 875 915 q 1055 684 1016 776 q 1094 486 1094 592 q 1055 286 1094 378 q 945 125 1016 194 q 780 18 875 56 q 570 -21 684 -21 m 570 242 q 663 259 621 242 q 735 308 705 276 q 783 385 766 340 q 799 486 799 430 q 770 616 799 561 q 689 701 741 671 q 570 731 638 731 q 477 714 519 731 q 405 665 435 697 q 358 588 374 633 q 341 486 341 542 q 370 356 341 411 q 451 272 399 301 q 570 242 503 242 m 984 747 q 883 761 934 747 q 779 794 831 776 q 674 827 726 813 q 570 842 622 842 l 569 993 q 692 980 637 993 q 792 951 748 967 q 871 921 836 934 q 934 908 906 908 q 983 923 965 908 q 1001 960 1001 937 q 989 1007 1001 981 q 948 1064 976 1034 l 1106 1153 q 1183 1050 1158 1106 q 1208 942 1208 993 q 1180 843 1208 887 q 1101 773 1151 799 q 984 747 1051 747 m 347 1022 l 242 1139 q 329 1260 275 1219 q 452 1301 383 1301 q 544 1284 503 1301 q 622 1248 585 1266 q 697 1231 658 1231 q 755 1251 729 1231 q 795 1317 780 1271 l 898 1199 q 831 1080 885 1119 q 705 1040 778 1040 q 609 1058 653 1040 q 526 1092 565 1075 q 451 1110 487 1110 q 390 1089 417 1110 q 347 1022 363 1068 z "},"Ő":{"ha":1140,"x_min":47,"x_max":1094,"o":"m 570 -21 q 360 18 456 -21 q 194 125 265 56 q 85 286 124 194 q 47 486 47 378 q 85 687 47 594 q 194 848 124 779 q 360 955 265 917 q 570 993 456 993 q 780 954 684 993 q 945 846 875 915 q 1055 684 1016 776 q 1094 486 1094 592 q 1055 286 1094 378 q 945 125 1016 194 q 780 18 875 56 q 570 -21 684 -21 m 570 242 q 663 259 621 242 q 735 308 705 276 q 783 385 766 340 q 799 486 799 430 q 770 616 799 561 q 689 701 741 671 q 570 731 638 731 q 477 714 519 731 q 405 665 435 697 q 358 588 374 633 q 341 486 341 542 q 370 356 341 411 q 451 272 399 301 q 570 242 503 242 m 620 1047 l 760 1293 l 1048 1293 l 880 1047 l 620 1047 m 231 1047 l 372 1293 l 659 1293 l 492 1047 l 231 1047 z "},"Ȏ":{"ha":1140,"x_min":47,"x_max":1094,"o":"m 570 -21 q 360 18 456 -21 q 194 125 265 56 q 85 286 124 194 q 47 486 47 378 q 85 687 47 594 q 194 848 124 779 q 360 955 265 917 q 570 993 456 993 q 780 954 684 993 q 945 846 875 915 q 1055 684 1016 776 q 1094 486 1094 592 q 1055 286 1094 378 q 945 125 1016 194 q 780 18 875 56 q 570 -21 684 -21 m 570 242 q 663 259 621 242 q 735 308 705 276 q 783 385 766 340 q 799 486 799 430 q 770 616 799 561 q 689 701 741 671 q 570 731 638 731 q 477 714 519 731 q 405 665 435 697 q 358 588 374 633 q 341 486 341 542 q 370 356 341 411 q 451 272 399 301 q 570 242 503 242 m 256 1047 q 294 1181 255 1124 q 404 1269 333 1238 q 570 1300 475 1300 q 735 1268 664 1300 q 845 1179 806 1236 q 883 1047 884 1122 l 651 1047 q 630 1101 653 1082 q 570 1121 608 1121 q 510 1101 532 1121 q 490 1047 488 1082 l 256 1047 z "},"Ō":{"ha":1140,"x_min":47,"x_max":1094,"o":"m 570 -21 q 360 18 456 -21 q 194 125 265 56 q 85 286 124 194 q 47 486 47 378 q 85 687 47 594 q 194 848 124 779 q 360 955 265 917 q 570 993 456 993 q 780 954 684 993 q 945 846 875 915 q 1055 684 1016 776 q 1094 486 1094 592 q 1055 286 1094 378 q 945 125 1016 194 q 780 18 875 56 q 570 -21 684 -21 m 570 242 q 663 259 621 242 q 735 308 705 276 q 783 385 766 340 q 799 486 799 430 q 770 616 799 561 q 689 701 741 671 q 570 731 638 731 q 477 714 519 731 q 405 665 435 697 q 358 588 374 633 q 341 486 341 542 q 370 356 341 411 q 451 272 399 301 q 570 242 503 242 m 292 1086 l 292 1250 l 848 1250 l 848 1086 l 292 1086 z "},"Ǫ":{"ha":1140,"x_min":47,"x_max":1094,"o":"m 577 -312 q 452 -267 501 -312 q 403 -152 403 -222 q 439 -47 403 -94 q 538 30 474 -1 q 689 70 602 60 l 673 -12 q 592 -45 619 -22 q 566 -101 566 -68 q 582 -140 566 -125 q 623 -154 597 -154 q 648 -150 635 -154 q 672 -139 660 -146 q 694 -121 684 -131 l 754 -257 q 670 -298 716 -284 q 577 -312 625 -312 m 570 -21 q 360 18 456 -21 q 194 125 265 56 q 85 286 124 194 q 47 486 47 378 q 85 687 47 594 q 194 848 124 779 q 360 955 265 917 q 570 993 456 993 q 780 954 684 993 q 945 846 875 915 q 1055 684 1016 776 q 1094 486 1094 592 q 1055 286 1094 378 q 945 125 1016 194 q 780 18 875 56 q 570 -21 684 -21 m 570 242 q 663 259 621 242 q 735 308 705 276 q 783 385 766 340 q 799 486 799 430 q 770 616 799 561 q 689 701 741 671 q 570 731 638 731 q 477 714 519 731 q 405 665 435 697 q 358 588 374 633 q 341 486 341 542 q 370 356 341 411 q 451 272 399 301 q 570 242 503 242 z "},"Ø":{"ha":1140,"x_min":47,"x_max":1094,"o":"m 224 -86 l 62 58 l 152 167 q 74 314 101 233 q 47 486 47 394 q 86 686 47 594 q 197 847 126 778 q 363 955 267 916 q 570 993 458 993 q 692 980 636 993 q 794 943 748 966 l 898 1069 l 1060 926 l 973 822 q 1063 669 1031 756 q 1094 486 1094 582 q 1054 286 1094 378 q 943 125 1015 194 q 777 18 872 56 q 570 -21 682 -21 q 442 -6 503 -21 q 326 38 380 10 l 224 -86 m 349 397 l 626 732 q 598 738 613 736 q 570 740 584 740 q 475 723 518 740 q 400 672 431 705 q 351 591 369 638 q 334 486 334 544 q 338 439 334 461 q 349 397 342 417 m 570 232 q 667 250 624 232 q 742 302 710 268 q 790 382 773 335 q 806 486 806 429 q 801 547 806 517 q 784 603 796 577 l 488 246 q 527 236 507 240 q 570 232 547 232 z "},"Ǿ":{"ha":1140,"x_min":47,"x_max":1094,"o":"m 224 -86 l 62 58 l 152 167 q 74 314 101 233 q 47 486 47 394 q 86 686 47 594 q 197 847 126 778 q 363 955 267 916 q 570 993 458 993 q 692 980 636 993 q 794 943 748 966 l 898 1069 l 1060 926 l 973 822 q 1063 669 1031 756 q 1094 486 1094 582 q 1054 286 1094 378 q 943 125 1015 194 q 777 18 872 56 q 570 -21 682 -21 q 442 -6 503 -21 q 326 38 380 10 l 224 -86 m 349 397 l 626 732 q 598 738 613 736 q 570 740 584 740 q 475 723 518 740 q 400 672 431 705 q 351 591 369 638 q 334 486 334 544 q 338 439 334 461 q 349 397 342 417 m 570 232 q 667 250 624 232 q 742 302 710 268 q 790 382 773 335 q 806 486 806 429 q 801 547 806 517 q 784 603 796 577 l 488 246 q 527 236 507 240 q 570 232 547 232 m 424 1047 l 565 1293 l 852 1293 l 685 1047 l 424 1047 z "},"Õ":{"ha":1140,"x_min":47,"x_max":1094,"o":"m 570 -21 q 360 18 456 -21 q 194 125 265 56 q 85 286 124 194 q 47 486 47 378 q 85 687 47 594 q 194 848 124 779 q 360 955 265 917 q 570 993 456 993 q 780 954 684 993 q 945 846 875 915 q 1055 684 1016 776 q 1094 486 1094 592 q 1055 286 1094 378 q 945 125 1016 194 q 780 18 875 56 q 570 -21 684 -21 m 570 242 q 663 259 621 242 q 735 308 705 276 q 783 385 766 340 q 799 486 799 430 q 770 616 799 561 q 689 701 741 671 q 570 731 638 731 q 477 714 519 731 q 405 665 435 697 q 358 588 374 633 q 341 486 341 542 q 370 356 341 411 q 451 272 399 301 q 570 242 503 242 m 347 1022 l 242 1139 q 329 1260 275 1219 q 452 1301 383 1301 q 544 1284 503 1301 q 622 1248 585 1266 q 697 1231 658 1231 q 755 1251 729 1231 q 795 1317 780 1271 l 898 1199 q 831 1080 885 1119 q 705 1040 778 1040 q 609 1058 653 1040 q 526 1092 565 1075 q 451 1110 487 1110 q 390 1089 417 1110 q 347 1022 363 1068 z "},"Ȭ":{"ha":1140,"x_min":47,"x_max":1094,"o":"m 570 -21 q 360 18 456 -21 q 194 125 265 56 q 85 286 124 194 q 47 486 47 378 q 85 687 47 594 q 194 848 124 779 q 360 955 265 917 q 570 993 456 993 q 780 954 684 993 q 945 846 875 915 q 1055 684 1016 776 q 1094 486 1094 592 q 1055 286 1094 378 q 945 125 1016 194 q 780 18 875 56 q 570 -21 684 -21 m 570 242 q 663 259 621 242 q 735 308 705 276 q 783 385 766 340 q 799 486 799 430 q 770 616 799 561 q 689 701 741 671 q 570 731 638 731 q 477 714 519 731 q 405 665 435 697 q 358 588 374 633 q 341 486 341 542 q 370 356 341 411 q 451 272 399 301 q 570 242 503 242 m 347 1022 l 242 1139 q 329 1260 275 1219 q 452 1301 383 1301 q 544 1284 503 1301 q 622 1248 585 1266 q 697 1231 658 1231 q 755 1251 729 1231 q 795 1317 780 1271 l 898 1199 q 831 1080 885 1119 q 705 1040 778 1040 q 609 1058 653 1040 q 526 1092 565 1075 q 451 1110 487 1110 q 390 1089 417 1110 q 347 1022 363 1068 m 292 1365 l 292 1529 l 848 1529 l 848 1365 l 292 1365 z "},"Œ":{"ha":1596,"x_min":47,"x_max":1526,"o":"m 556 -21 q 352 18 445 -21 q 191 125 259 56 q 84 286 122 194 q 47 486 47 378 q 84 687 47 594 q 191 848 122 779 q 352 955 259 917 q 556 993 445 993 q 681 979 622 993 q 794 938 741 965 q 892 872 847 910 l 827 794 l 827 972 l 1520 972 l 1520 731 l 1080 731 l 1080 604 l 1441 604 l 1441 383 l 1080 383 l 1080 244 l 1526 244 l 1526 0 l 827 0 l 827 176 l 892 97 q 740 11 825 42 q 556 -21 654 -21 m 570 242 q 663 259 621 242 q 735 308 705 276 q 783 385 766 340 q 799 486 799 430 q 770 616 799 561 q 689 701 741 671 q 570 731 638 731 q 477 714 519 731 q 405 665 435 697 q 358 588 374 633 q 341 486 341 542 q 370 356 341 411 q 451 272 399 301 q 570 242 503 242 z "},"P":{"ha":935,"x_min":106,"x_max":909,"o":"m 106 0 l 106 972 l 522 972 q 721 933 633 972 q 859 818 808 893 q 909 636 909 742 q 863 454 909 529 q 728 340 816 379 q 515 300 640 300 l 387 300 l 387 0 l 106 0 m 387 532 l 503 532 q 595 554 562 532 q 628 632 628 576 q 594 712 628 690 q 505 733 559 733 l 387 733 l 387 532 z "},"Þ":{"ha":954,"x_min":106,"x_max":922,"o":"m 106 0 l 106 972 l 387 972 l 387 836 l 534 836 q 733 797 646 836 q 871 682 821 757 q 922 500 922 606 q 875 318 922 393 q 740 203 828 243 q 527 164 652 164 l 387 164 l 387 0 l 106 0 m 387 396 l 516 396 q 608 418 574 396 q 641 496 641 440 q 606 576 641 554 q 517 597 572 597 l 387 597 l 387 396 z "},"Q":{"ha":1140,"x_min":47,"x_max":1094,"o":"m 926 -86 l 815 38 q 692 -6 756 10 q 559 -21 628 -21 q 359 17 452 -21 q 196 122 266 54 q 86 283 126 190 q 47 486 47 376 q 86 687 47 594 q 196 848 125 779 q 362 955 267 917 q 570 993 458 993 q 775 955 680 993 q 941 850 869 917 q 1053 691 1013 782 q 1094 492 1094 599 q 1063 314 1094 397 q 978 167 1033 231 l 1084 51 l 926 -86 m 570 213 q 613 216 591 213 q 656 226 635 219 l 547 356 l 691 481 l 801 357 q 820 416 813 384 q 827 486 827 449 q 793 626 827 567 q 701 717 759 685 q 570 749 642 749 q 471 730 516 749 q 393 678 426 712 q 342 595 360 644 q 324 486 324 547 q 356 344 324 406 q 442 247 387 282 q 570 213 498 213 z "},"R":{"ha":975,"x_min":106,"x_max":953,"o":"m 106 0 l 106 972 l 519 972 q 718 937 633 972 q 850 834 803 901 q 897 669 897 766 q 872 545 897 599 q 805 455 847 492 q 713 397 763 418 l 953 0 l 623 0 l 441 335 l 387 335 l 387 0 l 106 0 m 387 556 l 490 556 q 580 576 547 556 q 613 650 613 597 q 580 724 613 703 q 491 744 547 744 l 387 744 l 387 556 z "},"Ŕ":{"ha":975,"x_min":106,"x_max":953,"o":"m 106 0 l 106 972 l 519 972 q 718 937 633 972 q 850 834 803 901 q 897 669 897 766 q 872 545 897 599 q 805 455 847 492 q 713 397 763 418 l 953 0 l 623 0 l 441 335 l 387 335 l 387 0 l 106 0 m 387 556 l 490 556 q 580 576 547 556 q 613 650 613 597 q 580 724 613 703 q 491 744 547 744 l 387 744 l 387 556 m 316 1047 l 456 1293 l 744 1293 l 577 1047 l 316 1047 z "},"Ř":{"ha":975,"x_min":106,"x_max":953,"o":"m 106 0 l 106 972 l 519 972 q 718 937 633 972 q 850 834 803 901 q 897 669 897 766 q 872 545 897 599 q 805 455 847 492 q 713 397 763 418 l 953 0 l 623 0 l 441 335 l 387 335 l 387 0 l 106 0 m 387 556 l 490 556 q 580 576 547 556 q 613 650 613 597 q 580 724 613 703 q 491 744 547 744 l 387 744 l 387 556 m 338 1047 l 117 1293 l 388 1293 l 467 1203 l 547 1293 l 808 1293 l 585 1047 l 338 1047 z "},"Ŗ":{"ha":975,"x_min":106,"x_max":953,"o":"m 106 0 l 106 972 l 519 972 q 718 937 633 972 q 850 834 803 901 q 897 669 897 766 q 872 545 897 599 q 805 455 847 492 q 713 397 763 418 l 953 0 l 623 0 l 441 335 l 387 335 l 387 0 l 106 0 m 387 556 l 490 556 q 580 576 547 556 q 613 650 613 597 q 580 724 613 703 q 491 744 547 744 l 387 744 l 387 556 m 413 -581 l 344 -481 q 444 -432 399 -465 q 517 -364 490 -400 q 435 -351 473 -366 q 375 -307 398 -336 q 352 -236 352 -277 q 393 -132 352 -170 q 499 -93 434 -93 q 618 -141 572 -93 q 665 -264 665 -189 q 638 -379 665 -324 q 555 -484 611 -434 q 413 -581 499 -534 z "},"Ȑ":{"ha":975,"x_min":-16,"x_max":953,"o":"m 106 0 l 106 972 l 519 972 q 718 937 633 972 q 850 834 803 901 q 897 669 897 766 q 872 545 897 599 q 805 455 847 492 q 713 397 763 418 l 953 0 l 623 0 l 441 335 l 387 335 l 387 0 l 106 0 m 387 556 l 490 556 q 580 576 547 556 q 613 650 613 597 q 580 724 613 703 q 491 744 547 744 l 387 744 l 387 556 m 801 1047 l 540 1047 l 373 1293 l 659 1293 l 801 1047 m 412 1047 l 151 1047 l -16 1293 l 272 1293 l 412 1047 z "},"Ȓ":{"ha":975,"x_min":106,"x_max":953,"o":"m 106 0 l 106 972 l 519 972 q 718 937 633 972 q 850 834 803 901 q 897 669 897 766 q 872 545 897 599 q 805 455 847 492 q 713 397 763 418 l 953 0 l 623 0 l 441 335 l 387 335 l 387 0 l 106 0 m 387 556 l 490 556 q 580 576 547 556 q 613 650 613 597 q 580 724 613 703 q 491 744 547 744 l 387 744 l 387 556 m 148 1047 q 185 1181 147 1124 q 295 1269 224 1238 q 462 1300 367 1300 q 626 1268 556 1300 q 736 1179 697 1236 q 774 1047 776 1122 l 542 1047 q 522 1101 544 1082 q 462 1121 499 1121 q 401 1101 424 1121 q 381 1047 379 1082 l 148 1047 z "},"S":{"ha":897,"x_min":49,"x_max":863,"o":"m 462 -21 q 235 15 345 -21 q 49 117 125 50 l 178 324 q 255 265 207 290 q 358 226 303 240 q 462 213 413 213 q 553 228 517 213 q 590 274 590 244 q 562 320 590 302 q 459 358 534 339 l 387 378 q 160 498 228 421 q 92 679 92 574 q 121 802 92 745 q 202 902 150 859 q 324 968 253 944 q 476 992 394 992 q 695 957 594 992 q 858 863 797 923 l 723 661 q 660 711 699 690 q 576 746 622 733 q 484 758 531 758 q 420 750 447 758 q 378 726 393 741 q 363 692 363 711 q 376 663 363 674 q 417 642 388 652 q 495 617 446 631 l 566 596 q 794 481 724 549 q 863 306 863 413 q 813 135 863 209 q 673 20 763 62 q 462 -21 583 -21 z "},"Ś":{"ha":897,"x_min":49,"x_max":863,"o":"m 462 -21 q 235 15 345 -21 q 49 117 125 50 l 178 324 q 255 265 207 290 q 358 226 303 240 q 462 213 413 213 q 553 228 517 213 q 590 274 590 244 q 562 320 590 302 q 459 358 534 339 l 387 378 q 160 498 228 421 q 92 679 92 574 q 121 802 92 745 q 202 902 150 859 q 324 968 253 944 q 476 992 394 992 q 695 957 594 992 q 858 863 797 923 l 723 661 q 660 711 699 690 q 576 746 622 733 q 484 758 531 758 q 420 750 447 758 q 378 726 393 741 q 363 692 363 711 q 376 663 363 674 q 417 642 388 652 q 495 617 446 631 l 566 596 q 794 481 724 549 q 863 306 863 413 q 813 135 863 209 q 673 20 763 62 q 462 -21 583 -21 m 335 1047 l 476 1293 l 763 1293 l 597 1047 l 335 1047 z "},"Š":{"ha":897,"x_min":49,"x_max":863,"o":"m 462 -21 q 235 15 345 -21 q 49 117 125 50 l 178 324 q 255 265 207 290 q 358 226 303 240 q 462 213 413 213 q 553 228 517 213 q 590 274 590 244 q 562 320 590 302 q 459 358 534 339 l 387 378 q 160 498 228 421 q 92 679 92 574 q 121 802 92 745 q 202 902 150 859 q 324 968 253 944 q 476 992 394 992 q 695 957 594 992 q 858 863 797 923 l 723 661 q 660 711 699 690 q 576 746 622 733 q 484 758 531 758 q 420 750 447 758 q 378 726 393 741 q 363 692 363 711 q 376 663 363 674 q 417 642 388 652 q 495 617 446 631 l 566 596 q 794 481 724 549 q 863 306 863 413 q 813 135 863 209 q 673 20 763 62 q 462 -21 583 -21 m 358 1047 l 137 1293 l 408 1293 l 487 1203 l 566 1293 l 827 1293 l 605 1047 l 358 1047 z "},"Ş":{"ha":897,"x_min":49,"x_max":863,"o":"m 462 -21 q 235 15 345 -21 q 49 117 125 50 l 178 324 q 255 265 207 290 q 358 226 303 240 q 462 213 413 213 q 553 228 517 213 q 590 274 590 244 q 562 320 590 302 q 459 358 534 339 l 387 378 q 160 498 228 421 q 92 679 92 574 q 121 802 92 745 q 202 902 150 859 q 324 968 253 944 q 476 992 394 992 q 695 957 594 992 q 858 863 797 923 l 723 661 q 660 711 699 690 q 576 746 622 733 q 484 758 531 758 q 420 750 447 758 q 378 726 393 741 q 363 692 363 711 q 376 663 363 674 q 417 642 388 652 q 495 617 446 631 l 566 596 q 794 481 724 549 q 863 306 863 413 q 813 135 863 209 q 673 20 763 62 q 462 -21 583 -21 m 444 -312 q 334 -297 385 -312 q 248 -260 283 -281 l 294 -144 q 363 -177 321 -167 q 434 -186 405 -186 q 475 -181 461 -186 q 488 -168 488 -176 q 459 -150 488 -156 q 398 -151 431 -145 l 348 -58 l 387 28 l 528 28 l 508 -36 q 632 -77 587 -44 q 677 -168 677 -110 q 642 -250 677 -218 q 554 -297 608 -282 q 444 -312 501 -312 z "},"Ŝ":{"ha":897,"x_min":49,"x_max":863,"o":"m 462 -21 q 235 15 345 -21 q 49 117 125 50 l 178 324 q 255 265 207 290 q 358 226 303 240 q 462 213 413 213 q 553 228 517 213 q 590 274 590 244 q 562 320 590 302 q 459 358 534 339 l 387 378 q 160 498 228 421 q 92 679 92 574 q 121 802 92 745 q 202 902 150 859 q 324 968 253 944 q 476 992 394 992 q 695 957 594 992 q 858 863 797 923 l 723 661 q 660 711 699 690 q 576 746 622 733 q 484 758 531 758 q 420 750 447 758 q 378 726 393 741 q 363 692 363 711 q 376 663 363 674 q 417 642 388 652 q 495 617 446 631 l 566 596 q 794 481 724 549 q 863 306 863 413 q 813 135 863 209 q 673 20 763 62 q 462 -21 583 -21 m 137 1047 l 358 1293 l 605 1293 l 827 1047 l 556 1047 l 477 1138 l 397 1047 l 137 1047 z "},"Ș":{"ha":897,"x_min":49,"x_max":863,"o":"m 462 -21 q 235 15 345 -21 q 49 117 125 50 l 178 324 q 255 265 207 290 q 358 226 303 240 q 462 213 413 213 q 553 228 517 213 q 590 274 590 244 q 562 320 590 302 q 459 358 534 339 l 387 378 q 160 498 228 421 q 92 679 92 574 q 121 802 92 745 q 202 902 150 859 q 324 968 253 944 q 476 992 394 992 q 695 957 594 992 q 858 863 797 923 l 723 661 q 660 711 699 690 q 576 746 622 733 q 484 758 531 758 q 420 750 447 758 q 378 726 393 741 q 363 692 363 711 q 376 663 363 674 q 417 642 388 652 q 495 617 446 631 l 566 596 q 794 481 724 549 q 863 306 863 413 q 813 135 863 209 q 673 20 763 62 q 462 -21 583 -21 m 367 -581 l 298 -481 q 399 -432 353 -465 q 471 -364 444 -400 q 390 -351 427 -366 q 329 -307 352 -336 q 306 -236 306 -277 q 347 -132 306 -170 q 453 -93 388 -93 q 573 -141 526 -93 q 619 -264 619 -189 q 592 -379 619 -324 q 509 -484 565 -434 q 367 -581 453 -534 z "},"ẞ":{"ha":1099,"x_min":105,"x_max":1073,"o":"m 712 -18 q 594 -11 649 -18 q 472 20 538 -3 l 540 231 q 585 213 553 224 q 652 201 616 201 q 707 210 683 201 q 744 235 731 219 q 758 274 758 251 q 744 310 758 294 q 710 344 731 327 q 667 379 690 360 q 623 420 644 397 q 589 473 602 443 q 576 540 576 502 q 588 591 576 563 q 626 649 601 619 q 691 706 651 679 q 658 726 677 717 q 614 740 638 735 q 560 746 590 746 q 450 697 490 746 q 410 567 410 648 l 410 0 l 105 0 l 105 567 q 165 795 105 700 q 329 942 224 891 q 569 993 433 993 q 797 965 697 993 q 985 886 897 936 l 985 721 q 918 671 942 694 q 884 625 894 647 q 874 582 874 603 q 889 535 874 557 q 925 493 903 513 q 974 450 948 472 q 1022 401 999 428 q 1059 342 1044 375 q 1073 267 1073 309 q 1025 121 1073 185 q 896 19 978 57 q 712 -18 815 -18 z "},"T":{"ha":819,"x_min":19,"x_max":801,"o":"m 269 0 l 269 717 l 19 717 l 19 972 l 801 972 l 801 717 l 551 717 l 551 0 l 269 0 z "},"Ŧ":{"ha":847,"x_min":33,"x_max":815,"o":"m 283 0 l 283 717 l 33 717 l 33 972 l 815 972 l 815 717 l 565 717 l 565 0 l 283 0 m 76 340 l 76 554 l 774 554 l 774 340 l 76 340 z "},"Ť":{"ha":819,"x_min":19,"x_max":801,"o":"m 269 0 l 269 717 l 19 717 l 19 972 l 801 972 l 801 717 l 551 717 l 551 0 l 269 0 m 285 1047 l 65 1293 l 335 1293 l 415 1203 l 494 1293 l 755 1293 l 533 1047 l 285 1047 z "},"Ţ":{"ha":819,"x_min":19,"x_max":801,"o":"m 269 0 l 269 717 l 19 717 l 19 972 l 801 972 l 801 717 l 551 717 l 551 0 l 269 0 m 391 -312 q 281 -297 332 -312 q 195 -260 231 -281 l 241 -144 q 310 -177 268 -167 q 381 -186 352 -186 q 422 -181 408 -186 q 435 -168 435 -176 q 407 -150 435 -156 q 345 -151 378 -145 l 295 -58 l 334 28 l 476 28 l 455 -36 q 579 -77 534 -44 q 624 -168 624 -110 q 590 -250 624 -218 q 501 -297 555 -282 q 391 -312 448 -312 z "},"Ț":{"ha":819,"x_min":19,"x_max":801,"o":"m 269 0 l 269 717 l 19 717 l 19 972 l 801 972 l 801 717 l 551 717 l 551 0 l 269 0 m 314 -581 l 245 -481 q 346 -432 301 -465 q 418 -364 391 -400 q 337 -351 374 -366 q 276 -307 299 -336 q 253 -236 253 -277 q 294 -132 253 -170 q 401 -93 335 -93 q 520 -141 473 -93 q 567 -264 567 -189 q 540 -379 567 -324 q 457 -484 513 -434 q 314 -581 401 -534 z "},"U":{"ha":1067,"x_min":101,"x_max":965,"o":"m 533 -21 q 296 34 392 -21 q 151 187 200 89 q 101 414 101 285 l 101 972 l 382 972 l 382 399 q 421 280 382 319 q 533 242 460 242 q 644 280 606 242 q 683 399 683 319 l 683 972 l 965 972 l 965 414 q 916 188 965 285 q 770 34 867 90 q 533 -21 674 -21 z "},"Ú":{"ha":1067,"x_min":101,"x_max":965,"o":"m 533 -21 q 296 34 392 -21 q 151 187 200 89 q 101 414 101 285 l 101 972 l 382 972 l 382 399 q 421 280 382 319 q 533 242 460 242 q 644 280 606 242 q 683 399 683 319 l 683 972 l 965 972 l 965 414 q 916 188 965 285 q 770 34 867 90 q 533 -21 674 -21 m 388 1047 l 528 1293 l 815 1293 l 649 1047 l 388 1047 z "},"Ŭ":{"ha":1067,"x_min":101,"x_max":965,"o":"m 533 -21 q 296 34 392 -21 q 151 187 200 89 q 101 414 101 285 l 101 972 l 382 972 l 382 399 q 421 280 382 319 q 533 242 460 242 q 644 280 606 242 q 683 399 683 319 l 683 972 l 965 972 l 965 414 q 916 188 965 285 q 770 34 867 90 q 533 -21 674 -21 m 533 1040 q 366 1072 438 1040 q 257 1160 295 1103 q 219 1293 218 1217 l 453 1293 q 472 1240 451 1260 q 533 1219 494 1219 q 594 1240 572 1219 q 614 1293 616 1260 l 846 1293 q 808 1160 847 1217 q 697 1072 768 1103 q 533 1040 626 1040 z "},"Û":{"ha":1067,"x_min":101,"x_max":965,"o":"m 533 -21 q 296 34 392 -21 q 151 187 200 89 q 101 414 101 285 l 101 972 l 382 972 l 382 399 q 421 280 382 319 q 533 242 460 242 q 644 280 606 242 q 683 399 683 319 l 683 972 l 965 972 l 965 414 q 916 188 965 285 q 770 34 867 90 q 533 -21 674 -21 m 189 1047 l 410 1293 l 657 1293 l 879 1047 l 608 1047 l 529 1138 l 449 1047 l 189 1047 z "},"Ȕ":{"ha":1067,"x_min":56,"x_max":965,"o":"m 533 -21 q 296 34 392 -21 q 151 187 200 89 q 101 414 101 285 l 101 972 l 382 972 l 382 399 q 421 280 382 319 q 533 242 460 242 q 644 280 606 242 q 683 399 683 319 l 683 972 l 965 972 l 965 414 q 916 188 965 285 q 770 34 867 90 q 533 -21 674 -21 m 872 1047 l 611 1047 l 444 1293 l 731 1293 l 872 1047 m 483 1047 l 222 1047 l 56 1293 l 343 1293 l 483 1047 z "},"Ü":{"ha":1067,"x_min":101,"x_max":965,"o":"m 533 -21 q 296 34 392 -21 q 151 187 200 89 q 101 414 101 285 l 101 972 l 382 972 l 382 399 q 421 280 382 319 q 533 242 460 242 q 644 280 606 242 q 683 399 683 319 l 683 972 l 965 972 l 965 414 q 916 188 965 285 q 770 34 867 90 q 533 -21 674 -21 m 336 1049 q 231 1087 278 1049 q 183 1193 183 1126 q 205 1270 183 1238 q 261 1320 226 1302 q 336 1338 297 1338 q 441 1299 394 1338 q 488 1193 488 1260 q 466 1116 488 1148 q 409 1066 444 1083 q 336 1049 374 1049 m 731 1049 q 625 1087 672 1049 q 578 1193 578 1126 q 600 1270 578 1238 q 656 1320 622 1302 q 731 1338 691 1338 q 835 1299 789 1338 q 882 1193 882 1260 q 860 1116 882 1148 q 803 1066 838 1083 q 731 1049 769 1049 z "},"Ụ":{"ha":1067,"x_min":101,"x_max":965,"o":"m 533 -21 q 296 34 392 -21 q 151 187 200 89 q 101 414 101 285 l 101 972 l 382 972 l 382 399 q 421 280 382 319 q 533 242 460 242 q 644 280 606 242 q 683 399 683 319 l 683 972 l 965 972 l 965 414 q 916 188 965 285 q 770 34 867 90 q 533 -21 674 -21 m 533 -387 q 421 -348 469 -387 q 374 -240 374 -309 q 421 -132 374 -172 q 533 -93 469 -93 q 645 -132 598 -93 q 693 -240 693 -172 q 645 -348 693 -309 q 533 -387 598 -387 z "},"Ù":{"ha":1067,"x_min":101,"x_max":965,"o":"m 533 -21 q 296 34 392 -21 q 151 187 200 89 q 101 414 101 285 l 101 972 l 382 972 l 382 399 q 421 280 382 319 q 533 242 460 242 q 644 280 606 242 q 683 399 683 319 l 683 972 l 965 972 l 965 414 q 916 188 965 285 q 770 34 867 90 q 533 -21 674 -21 m 410 1047 l 247 1293 l 540 1293 l 678 1047 l 410 1047 z "},"Ủ":{"ha":1067,"x_min":101,"x_max":965,"o":"m 533 -21 q 296 34 392 -21 q 151 187 200 89 q 101 414 101 285 l 101 972 l 382 972 l 382 399 q 421 280 382 319 q 533 242 460 242 q 644 280 606 242 q 683 399 683 319 l 683 972 l 965 972 l 965 414 q 916 188 965 285 q 770 34 867 90 q 533 -21 674 -21 m 443 1047 q 427 1117 416 1089 q 482 1158 438 1146 q 515 1169 505 1165 q 525 1183 525 1174 q 511 1195 525 1191 q 476 1199 497 1199 q 419 1192 444 1199 q 369 1174 394 1186 l 332 1304 q 425 1336 369 1324 q 533 1347 481 1347 q 646 1332 599 1347 q 720 1289 694 1317 q 746 1222 746 1261 q 728 1159 746 1185 q 660 1108 710 1133 q 616 1078 626 1092 q 618 1047 606 1065 l 443 1047 z "},"Ư":{"ha":1233,"x_min":101,"x_max":1260,"o":"m 533 -21 q 296 34 392 -21 q 151 187 200 89 q 101 414 101 285 l 101 972 l 382 972 l 382 399 q 421 280 382 319 q 533 242 460 242 q 644 280 606 242 q 683 399 683 319 l 683 972 l 965 972 l 965 414 q 916 188 965 285 q 770 34 867 90 q 533 -21 674 -21 m 1036 719 q 947 731 992 719 q 854 758 901 743 l 854 919 q 928 892 895 904 q 986 881 960 881 q 1035 899 1017 881 q 1053 946 1053 917 q 1041 1000 1053 970 q 1000 1064 1028 1030 l 1158 1153 q 1235 1042 1210 1103 q 1260 928 1260 982 q 1232 822 1260 869 q 1153 747 1203 774 q 1036 719 1103 719 z "},"Ứ":{"ha":1233,"x_min":101,"x_max":1260,"o":"m 533 -21 q 296 34 392 -21 q 151 187 200 89 q 101 414 101 285 l 101 972 l 382 972 l 382 399 q 421 280 382 319 q 533 242 460 242 q 644 280 606 242 q 683 399 683 319 l 683 972 l 965 972 l 965 414 q 916 188 965 285 q 770 34 867 90 q 533 -21 674 -21 m 1036 719 q 947 731 992 719 q 854 758 901 743 l 854 919 q 928 892 895 904 q 986 881 960 881 q 1035 899 1017 881 q 1053 946 1053 917 q 1041 1000 1053 970 q 1000 1064 1028 1030 l 1158 1153 q 1235 1042 1210 1103 q 1260 928 1260 982 q 1232 822 1260 869 q 1153 747 1203 774 q 1036 719 1103 719 m 388 1047 l 528 1293 l 815 1293 l 649 1047 l 388 1047 z "},"Ự":{"ha":1233,"x_min":101,"x_max":1260,"o":"m 533 -21 q 296 34 392 -21 q 151 187 200 89 q 101 414 101 285 l 101 972 l 382 972 l 382 399 q 421 280 382 319 q 533 242 460 242 q 644 280 606 242 q 683 399 683 319 l 683 972 l 965 972 l 965 414 q 916 188 965 285 q 770 34 867 90 q 533 -21 674 -21 m 1036 719 q 947 731 992 719 q 854 758 901 743 l 854 919 q 928 892 895 904 q 986 881 960 881 q 1035 899 1017 881 q 1053 946 1053 917 q 1041 1000 1053 970 q 1000 1064 1028 1030 l 1158 1153 q 1235 1042 1210 1103 q 1260 928 1260 982 q 1232 822 1260 869 q 1153 747 1203 774 q 1036 719 1103 719 m 533 -387 q 421 -348 469 -387 q 374 -240 374 -309 q 421 -132 374 -172 q 533 -93 469 -93 q 645 -132 598 -93 q 693 -240 693 -172 q 645 -348 693 -309 q 533 -387 598 -387 z "},"Ừ":{"ha":1233,"x_min":101,"x_max":1260,"o":"m 533 -21 q 296 34 392 -21 q 151 187 200 89 q 101 414 101 285 l 101 972 l 382 972 l 382 399 q 421 280 382 319 q 533 242 460 242 q 644 280 606 242 q 683 399 683 319 l 683 972 l 965 972 l 965 414 q 916 188 965 285 q 770 34 867 90 q 533 -21 674 -21 m 1036 719 q 947 731 992 719 q 854 758 901 743 l 854 919 q 928 892 895 904 q 986 881 960 881 q 1035 899 1017 881 q 1053 946 1053 917 q 1041 1000 1053 970 q 1000 1064 1028 1030 l 1158 1153 q 1235 1042 1210 1103 q 1260 928 1260 982 q 1232 822 1260 869 q 1153 747 1203 774 q 1036 719 1103 719 m 410 1047 l 247 1293 l 540 1293 l 678 1047 l 410 1047 z "},"Ử":{"ha":1233,"x_min":101,"x_max":1260,"o":"m 533 -21 q 296 34 392 -21 q 151 187 200 89 q 101 414 101 285 l 101 972 l 382 972 l 382 399 q 421 280 382 319 q 533 242 460 242 q 644 280 606 242 q 683 399 683 319 l 683 972 l 965 972 l 965 414 q 916 188 965 285 q 770 34 867 90 q 533 -21 674 -21 m 1036 719 q 947 731 992 719 q 854 758 901 743 l 854 919 q 928 892 895 904 q 986 881 960 881 q 1035 899 1017 881 q 1053 946 1053 917 q 1041 1000 1053 970 q 1000 1064 1028 1030 l 1158 1153 q 1235 1042 1210 1103 q 1260 928 1260 982 q 1232 822 1260 869 q 1153 747 1203 774 q 1036 719 1103 719 m 443 1047 q 427 1117 416 1089 q 482 1158 438 1146 q 515 1169 505 1165 q 525 1183 525 1174 q 511 1195 525 1191 q 476 1199 497 1199 q 419 1192 444 1199 q 369 1174 394 1186 l 332 1304 q 425 1336 369 1324 q 533 1347 481 1347 q 646 1332 599 1347 q 720 1289 694 1317 q 746 1222 746 1261 q 728 1159 746 1185 q 660 1108 710 1133 q 616 1078 626 1092 q 618 1047 606 1065 l 443 1047 z "},"Ữ":{"ha":1233,"x_min":101,"x_max":1260,"o":"m 533 -21 q 296 34 392 -21 q 151 187 200 89 q 101 414 101 285 l 101 972 l 382 972 l 382 399 q 421 280 382 319 q 533 242 460 242 q 644 280 606 242 q 683 399 683 319 l 683 972 l 965 972 l 965 414 q 916 188 965 285 q 770 34 867 90 q 533 -21 674 -21 m 1036 719 q 947 731 992 719 q 854 758 901 743 l 854 919 q 928 892 895 904 q 986 881 960 881 q 1035 899 1017 881 q 1053 946 1053 917 q 1041 1000 1053 970 q 1000 1064 1028 1030 l 1158 1153 q 1235 1042 1210 1103 q 1260 928 1260 982 q 1232 822 1260 869 q 1153 747 1203 774 q 1036 719 1103 719 m 310 1022 l 206 1139 q 292 1260 238 1219 q 415 1301 347 1301 q 507 1284 466 1301 q 585 1248 548 1266 q 660 1231 622 1231 q 718 1251 692 1231 q 758 1317 743 1271 l 861 1199 q 794 1080 848 1119 q 668 1040 741 1040 q 573 1058 617 1040 q 489 1092 528 1075 q 414 1110 450 1110 q 353 1089 381 1110 q 310 1022 326 1068 z "},"Ű":{"ha":1067,"x_min":101,"x_max":1011,"o":"m 533 -21 q 296 34 392 -21 q 151 187 200 89 q 101 414 101 285 l 101 972 l 382 972 l 382 399 q 421 280 382 319 q 533 242 460 242 q 644 280 606 242 q 683 399 683 319 l 683 972 l 965 972 l 965 414 q 916 188 965 285 q 770 34 867 90 q 533 -21 674 -21 m 583 1047 l 724 1293 l 1011 1293 l 843 1047 l 583 1047 m 194 1047 l 335 1293 l 622 1293 l 456 1047 l 194 1047 z "},"Ȗ":{"ha":1067,"x_min":101,"x_max":965,"o":"m 533 -21 q 296 34 392 -21 q 151 187 200 89 q 101 414 101 285 l 101 972 l 382 972 l 382 399 q 421 280 382 319 q 533 242 460 242 q 644 280 606 242 q 683 399 683 319 l 683 972 l 965 972 l 965 414 q 916 188 965 285 q 770 34 867 90 q 533 -21 674 -21 m 219 1047 q 257 1181 218 1124 q 367 1269 296 1238 q 533 1300 438 1300 q 698 1268 627 1300 q 808 1179 769 1236 q 846 1047 847 1122 l 614 1047 q 593 1101 616 1082 q 533 1121 571 1121 q 473 1101 495 1121 q 453 1047 451 1082 l 219 1047 z "},"Ū":{"ha":1067,"x_min":101,"x_max":965,"o":"m 533 -21 q 296 34 392 -21 q 151 187 200 89 q 101 414 101 285 l 101 972 l 382 972 l 382 399 q 421 280 382 319 q 533 242 460 242 q 644 280 606 242 q 683 399 683 319 l 683 972 l 965 972 l 965 414 q 916 188 965 285 q 770 34 867 90 q 533 -21 674 -21 m 256 1086 l 256 1250 l 811 1250 l 811 1086 l 256 1086 z "},"Ų":{"ha":1067,"x_min":101,"x_max":965,"o":"m 649 -312 q 524 -267 573 -312 q 475 -152 475 -222 q 485 -82 475 -115 q 513 -21 494 -49 q 287 39 379 -17 q 148 192 195 95 q 101 414 101 288 l 101 972 l 382 972 l 382 399 q 421 280 382 319 q 533 242 460 242 q 644 280 606 242 q 683 399 683 319 l 683 972 l 965 972 l 965 414 q 901 161 965 267 q 713 8 838 54 q 657 -35 676 -6 q 638 -101 638 -64 q 653 -140 638 -125 q 694 -154 669 -154 q 732 -145 713 -154 q 765 -121 751 -136 l 826 -257 q 742 -298 788 -284 q 649 -312 697 -312 z "},"Ů":{"ha":1067,"x_min":101,"x_max":965,"o":"m 533 -21 q 296 34 392 -21 q 151 187 200 89 q 101 414 101 285 l 101 972 l 382 972 l 382 399 q 421 280 382 319 q 533 242 460 242 q 644 280 606 242 q 683 399 683 319 l 683 972 l 965 972 l 965 414 q 916 188 965 285 q 770 34 867 90 q 533 -21 674 -21 m 533 1025 q 413 1053 467 1025 q 328 1132 360 1082 q 297 1246 297 1182 q 328 1359 297 1309 q 413 1438 360 1409 q 533 1467 467 1467 q 653 1438 599 1467 q 738 1359 706 1409 q 769 1246 769 1309 q 738 1132 769 1182 q 653 1053 706 1082 q 533 1025 599 1025 m 533 1171 q 588 1192 568 1171 q 608 1246 608 1213 q 588 1300 608 1279 q 533 1321 568 1321 q 479 1300 499 1321 q 458 1246 458 1279 q 479 1192 458 1213 q 533 1171 499 1171 z "},"Ũ":{"ha":1067,"x_min":101,"x_max":965,"o":"m 533 -21 q 296 34 392 -21 q 151 187 200 89 q 101 414 101 285 l 101 972 l 382 972 l 382 399 q 421 280 382 319 q 533 242 460 242 q 644 280 606 242 q 683 399 683 319 l 683 972 l 965 972 l 965 414 q 916 188 965 285 q 770 34 867 90 q 533 -21 674 -21 m 310 1022 l 206 1139 q 292 1260 238 1219 q 415 1301 347 1301 q 507 1284 466 1301 q 585 1248 548 1266 q 660 1231 622 1231 q 718 1251 692 1231 q 758 1317 743 1271 l 861 1199 q 794 1080 848 1119 q 668 1040 741 1040 q 573 1058 617 1040 q 489 1092 528 1075 q 414 1110 450 1110 q 353 1089 381 1110 q 310 1022 326 1068 z "},"V":{"ha":996,"x_min":-15,"x_max":1010,"o":"m 334 0 l -15 972 l 302 972 l 501 350 l 699 972 l 1010 972 l 660 0 l 334 0 z "},"W":{"ha":1457,"x_min":12,"x_max":1445,"o":"m 309 0 l 12 972 l 301 972 l 440 429 l 594 972 l 870 972 l 1024 429 l 1163 972 l 1445 972 l 1148 0 l 880 0 l 727 560 l 574 0 l 309 0 z "},"Ẃ":{"ha":1457,"x_min":12,"x_max":1445,"o":"m 309 0 l 12 972 l 301 972 l 440 429 l 594 972 l 870 972 l 1024 429 l 1163 972 l 1445 972 l 1148 0 l 880 0 l 727 560 l 574 0 l 309 0 m 583 1047 l 723 1293 l 1010 1293 l 844 1047 l 583 1047 z "},"Ŵ":{"ha":1457,"x_min":12,"x_max":1445,"o":"m 309 0 l 12 972 l 301 972 l 440 429 l 594 972 l 870 972 l 1024 429 l 1163 972 l 1445 972 l 1148 0 l 880 0 l 727 560 l 574 0 l 309 0 m 384 1047 l 605 1293 l 852 1293 l 1074 1047 l 803 1047 l 724 1138 l 644 1047 l 384 1047 z "},"Ẅ":{"ha":1457,"x_min":12,"x_max":1445,"o":"m 309 0 l 12 972 l 301 972 l 440 429 l 594 972 l 870 972 l 1024 429 l 1163 972 l 1445 972 l 1148 0 l 880 0 l 727 560 l 574 0 l 309 0 m 531 1049 q 426 1087 473 1049 q 378 1193 378 1126 q 400 1270 378 1238 q 457 1320 422 1302 q 531 1338 492 1338 q 636 1299 590 1338 q 683 1193 683 1260 q 661 1116 683 1148 q 604 1066 639 1083 q 531 1049 569 1049 m 926 1049 q 820 1087 867 1049 q 773 1193 773 1126 q 795 1270 773 1238 q 851 1320 817 1302 q 926 1338 886 1338 q 1031 1299 984 1338 q 1077 1193 1077 1260 q 1055 1116 1077 1148 q 999 1066 1033 1083 q 926 1049 964 1049 z "},"Ẁ":{"ha":1457,"x_min":12,"x_max":1445,"o":"m 309 0 l 12 972 l 301 972 l 440 429 l 594 972 l 870 972 l 1024 429 l 1163 972 l 1445 972 l 1148 0 l 880 0 l 727 560 l 574 0 l 309 0 m 605 1047 l 442 1293 l 735 1293 l 873 1047 l 605 1047 z "},"X":{"ha":985,"x_min":8,"x_max":977,"o":"m 8 0 l 299 493 l 17 972 l 356 972 l 499 708 l 642 972 l 973 972 l 691 489 l 977 0 l 635 0 l 488 279 l 341 0 l 8 0 z "},"Y":{"ha":928,"x_min":-16,"x_max":944,"o":"m 323 0 l 323 397 l -16 972 l 297 972 l 469 665 l 640 972 l 944 972 l 605 394 l 605 0 l 323 0 z "},"Ý":{"ha":928,"x_min":-16,"x_max":944,"o":"m 323 0 l 323 397 l -16 972 l 297 972 l 469 665 l 640 972 l 944 972 l 605 394 l 605 0 l 323 0 m 317 1047 l 458 1293 l 745 1293 l 578 1047 l 317 1047 z "},"Ŷ":{"ha":928,"x_min":-16,"x_max":944,"o":"m 323 0 l 323 397 l -16 972 l 297 972 l 469 665 l 640 972 l 944 972 l 605 394 l 605 0 l 323 0 m 119 1047 l 340 1293 l 587 1293 l 809 1047 l 538 1047 l 459 1138 l 378 1047 l 119 1047 z "},"Ÿ":{"ha":928,"x_min":-16,"x_max":944,"o":"m 323 0 l 323 397 l -16 972 l 297 972 l 469 665 l 640 972 l 944 972 l 605 394 l 605 0 l 323 0 m 266 1049 q 160 1087 208 1049 q 113 1193 113 1126 q 135 1270 113 1238 q 191 1320 156 1302 q 266 1338 226 1338 q 371 1299 324 1338 q 417 1193 417 1260 q 395 1116 417 1148 q 339 1066 374 1083 q 266 1049 304 1049 m 660 1049 q 555 1087 602 1049 q 508 1193 508 1126 q 530 1270 508 1238 q 586 1320 551 1302 q 660 1338 621 1338 q 765 1299 719 1338 q 812 1193 812 1260 q 790 1116 812 1148 q 733 1066 768 1083 q 660 1049 699 1049 z "},"Ỵ":{"ha":928,"x_min":-16,"x_max":944,"o":"m 323 0 l 323 397 l -16 972 l 297 972 l 469 665 l 640 972 l 944 972 l 605 394 l 605 0 l 323 0 m 465 -387 q 352 -348 400 -387 q 305 -240 305 -309 q 352 -132 305 -172 q 465 -93 400 -93 q 577 -132 529 -93 q 624 -240 624 -172 q 577 -348 624 -309 q 465 -387 529 -387 z "},"Ỳ":{"ha":928,"x_min":-16,"x_max":944,"o":"m 323 0 l 323 397 l -16 972 l 297 972 l 469 665 l 640 972 l 944 972 l 605 394 l 605 0 l 323 0 m 340 1047 l 177 1293 l 470 1293 l 608 1047 l 340 1047 z "},"Ỷ":{"ha":928,"x_min":-16,"x_max":944,"o":"m 323 0 l 323 397 l -16 972 l 297 972 l 469 665 l 640 972 l 944 972 l 605 394 l 605 0 l 323 0 m 373 1047 q 357 1117 346 1089 q 412 1158 367 1146 q 445 1169 435 1165 q 455 1183 455 1174 q 441 1195 455 1191 q 406 1199 426 1199 q 349 1192 374 1199 q 299 1174 324 1186 l 262 1304 q 355 1336 299 1324 q 463 1347 410 1347 q 576 1332 528 1347 q 650 1289 624 1317 q 676 1222 676 1261 q 658 1159 676 1185 q 590 1108 640 1133 q 545 1078 556 1092 q 548 1047 535 1065 l 373 1047 z "},"Ȳ":{"ha":928,"x_min":-16,"x_max":944,"o":"m 323 0 l 323 397 l -16 972 l 297 972 l 469 665 l 640 972 l 944 972 l 605 394 l 605 0 l 323 0 m 185 1086 l 185 1250 l 741 1250 l 741 1086 l 185 1086 z "},"Ỹ":{"ha":928,"x_min":-16,"x_max":944,"o":"m 323 0 l 323 397 l -16 972 l 297 972 l 469 665 l 640 972 l 944 972 l 605 394 l 605 0 l 323 0 m 240 1022 l 135 1139 q 222 1260 168 1219 q 345 1301 276 1301 q 437 1284 396 1301 q 515 1248 478 1266 q 590 1231 551 1231 q 648 1251 622 1231 q 688 1317 673 1271 l 791 1199 q 724 1080 778 1119 q 598 1040 671 1040 q 502 1058 547 1040 q 419 1092 458 1075 q 344 1110 380 1110 q 283 1089 310 1110 q 240 1022 256 1068 z "},"Z":{"ha":822,"x_min":47,"x_max":778,"o":"m 47 0 l 47 233 l 435 717 l 63 717 l 63 972 l 776 972 l 776 740 l 390 256 l 778 256 l 778 0 l 47 0 z "},"Ź":{"ha":822,"x_min":47,"x_max":778,"o":"m 47 0 l 47 233 l 435 717 l 63 717 l 63 972 l 776 972 l 776 740 l 390 256 l 778 256 l 778 0 l 47 0 m 267 1047 l 408 1293 l 695 1293 l 528 1047 l 267 1047 z "},"Ž":{"ha":822,"x_min":47,"x_max":778,"o":"m 47 0 l 47 233 l 435 717 l 63 717 l 63 972 l 776 972 l 776 740 l 390 256 l 778 256 l 778 0 l 47 0 m 290 1047 l 69 1293 l 340 1293 l 419 1203 l 498 1293 l 759 1293 l 537 1047 l 290 1047 z "},"Ż":{"ha":822,"x_min":47,"x_max":778,"o":"m 47 0 l 47 233 l 435 717 l 63 717 l 63 972 l 776 972 l 776 740 l 390 256 l 778 256 l 778 0 l 47 0 m 413 1051 q 297 1091 347 1051 q 247 1201 247 1131 q 296 1313 247 1272 q 413 1353 346 1353 q 531 1313 481 1353 q 580 1201 580 1272 q 531 1092 580 1132 q 413 1051 481 1051 z "},"a":{"ha":831,"x_min":37,"x_max":753,"o":"m 291 -21 q 164 7 222 -21 q 72 87 106 35 q 37 214 37 140 q 68 327 37 278 q 162 407 100 376 q 315 449 224 438 q 526 450 406 460 l 527 285 q 437 298 480 295 q 360 294 394 300 q 308 272 327 288 q 288 230 288 256 q 311 188 288 201 q 371 174 334 174 q 431 185 404 174 q 474 219 458 196 q 490 279 490 242 l 490 426 q 476 486 490 460 q 432 527 463 512 q 345 542 401 542 q 235 525 290 542 q 140 478 181 508 l 72 663 q 228 728 144 706 q 394 750 312 750 q 578 717 497 750 q 707 614 660 684 q 753 431 753 543 l 753 0 l 517 0 l 517 71 q 426 3 484 27 q 291 -21 367 -21 z "},"á":{"ha":831,"x_min":37,"x_max":753,"o":"m 291 -21 q 164 7 222 -21 q 72 87 106 35 q 37 214 37 140 q 68 327 37 278 q 162 407 100 376 q 315 449 224 438 q 526 450 406 460 l 527 285 q 437 298 480 295 q 360 294 394 300 q 308 272 327 288 q 288 230 288 256 q 311 188 288 201 q 371 174 334 174 q 431 185 404 174 q 474 219 458 196 q 490 279 490 242 l 490 426 q 476 486 490 460 q 432 527 463 512 q 345 542 401 542 q 235 525 290 542 q 140 478 181 508 l 72 663 q 228 728 144 706 q 394 750 312 750 q 578 717 497 750 q 707 614 660 684 q 753 431 753 543 l 753 0 l 517 0 l 517 71 q 426 3 484 27 q 291 -21 367 -21 m 255 813 l 392 1072 l 666 1072 l 503 813 l 255 813 z "},"ă":{"ha":831,"x_min":37,"x_max":753,"o":"m 291 -21 q 164 7 222 -21 q 72 87 106 35 q 37 214 37 140 q 68 327 37 278 q 162 407 100 376 q 315 449 224 438 q 526 450 406 460 l 527 285 q 437 298 480 295 q 360 294 394 300 q 308 272 327 288 q 288 230 288 256 q 311 188 288 201 q 371 174 334 174 q 431 185 404 174 q 474 219 458 196 q 490 279 490 242 l 490 426 q 476 486 490 460 q 432 527 463 512 q 345 542 401 542 q 235 525 290 542 q 140 478 181 508 l 72 663 q 228 728 144 706 q 394 750 312 750 q 578 717 497 750 q 707 614 660 684 q 753 431 753 543 l 753 0 l 517 0 l 517 71 q 426 3 484 27 q 291 -21 367 -21 m 394 806 q 232 839 301 806 q 126 932 163 872 q 90 1072 88 992 l 312 1072 q 332 1005 310 1030 q 394 979 354 979 q 456 1005 433 979 q 476 1072 478 1030 l 698 1072 q 661 934 699 994 q 554 840 623 874 q 394 806 485 806 z "},"ắ":{"ha":831,"x_min":37,"x_max":753,"o":"m 291 -21 q 164 7 222 -21 q 72 87 106 35 q 37 214 37 140 q 68 327 37 278 q 162 407 100 376 q 315 449 224 438 q 526 450 406 460 l 527 285 q 437 298 480 295 q 360 294 394 300 q 308 272 327 288 q 288 230 288 256 q 311 188 288 201 q 371 174 334 174 q 431 185 404 174 q 474 219 458 196 q 490 279 490 242 l 490 426 q 476 486 490 460 q 432 527 463 512 q 345 542 401 542 q 235 525 290 542 q 140 478 181 508 l 72 663 q 228 728 144 706 q 394 750 312 750 q 578 717 497 750 q 707 614 660 684 q 753 431 753 543 l 753 0 l 517 0 l 517 71 q 426 3 484 27 q 291 -21 367 -21 m 394 806 q 232 839 301 806 q 126 932 163 872 q 90 1072 88 992 l 312 1072 q 332 1005 310 1030 q 394 979 354 979 q 456 1005 433 979 q 476 1072 478 1030 l 698 1072 q 661 934 699 994 q 554 840 623 874 q 394 806 485 806 m 255 1121 l 392 1381 l 666 1381 l 503 1121 l 255 1121 z "},"ặ":{"ha":831,"x_min":37,"x_max":753,"o":"m 291 -21 q 164 7 222 -21 q 72 87 106 35 q 37 214 37 140 q 68 327 37 278 q 162 407 100 376 q 315 449 224 438 q 526 450 406 460 l 527 285 q 437 298 480 295 q 360 294 394 300 q 308 272 327 288 q 288 230 288 256 q 311 188 288 201 q 371 174 334 174 q 431 185 404 174 q 474 219 458 196 q 490 279 490 242 l 490 426 q 476 486 490 460 q 432 527 463 512 q 345 542 401 542 q 235 525 290 542 q 140 478 181 508 l 72 663 q 228 728 144 706 q 394 750 312 750 q 578 717 497 750 q 707 614 660 684 q 753 431 753 543 l 753 0 l 517 0 l 517 71 q 426 3 484 27 q 291 -21 367 -21 m 394 -387 q 282 -348 329 -387 q 234 -240 234 -309 q 282 -132 234 -172 q 394 -93 329 -93 q 506 -132 458 -93 q 553 -240 553 -172 q 506 -348 553 -309 q 394 -387 458 -387 m 394 806 q 232 839 301 806 q 126 932 163 872 q 90 1072 88 992 l 312 1072 q 332 1005 310 1030 q 394 979 354 979 q 456 1005 433 979 q 476 1072 478 1030 l 698 1072 q 661 934 699 994 q 554 840 623 874 q 394 806 485 806 z "},"ằ":{"ha":831,"x_min":37,"x_max":753,"o":"m 291 -21 q 164 7 222 -21 q 72 87 106 35 q 37 214 37 140 q 68 327 37 278 q 162 407 100 376 q 315 449 224 438 q 526 450 406 460 l 527 285 q 437 298 480 295 q 360 294 394 300 q 308 272 327 288 q 288 230 288 256 q 311 188 288 201 q 371 174 334 174 q 431 185 404 174 q 474 219 458 196 q 490 279 490 242 l 490 426 q 476 486 490 460 q 432 527 463 512 q 345 542 401 542 q 235 525 290 542 q 140 478 181 508 l 72 663 q 228 728 144 706 q 394 750 312 750 q 578 717 497 750 q 707 614 660 684 q 753 431 753 543 l 753 0 l 517 0 l 517 71 q 426 3 484 27 q 291 -21 367 -21 m 394 806 q 232 839 301 806 q 126 932 163 872 q 90 1072 88 992 l 312 1072 q 332 1005 310 1030 q 394 979 354 979 q 456 1005 433 979 q 476 1072 478 1030 l 698 1072 q 661 934 699 994 q 554 840 623 874 q 394 806 485 806 m 277 1121 l 119 1381 l 398 1381 l 533 1121 l 277 1121 z "},"ẳ":{"ha":831,"x_min":37,"x_max":753,"o":"m 291 -21 q 164 7 222 -21 q 72 87 106 35 q 37 214 37 140 q 68 327 37 278 q 162 407 100 376 q 315 449 224 438 q 526 450 406 460 l 527 285 q 437 298 480 295 q 360 294 394 300 q 308 272 327 288 q 288 230 288 256 q 311 188 288 201 q 371 174 334 174 q 431 185 404 174 q 474 219 458 196 q 490 279 490 242 l 490 426 q 476 486 490 460 q 432 527 463 512 q 345 542 401 542 q 235 525 290 542 q 140 478 181 508 l 72 663 q 228 728 144 706 q 394 750 312 750 q 578 717 497 750 q 707 614 660 684 q 753 431 753 543 l 753 0 l 517 0 l 517 71 q 426 3 484 27 q 291 -21 367 -21 m 394 806 q 232 839 301 806 q 126 932 163 872 q 90 1072 88 992 l 312 1072 q 332 1005 310 1030 q 394 979 354 979 q 456 1005 433 979 q 476 1072 478 1030 l 698 1072 q 661 934 699 994 q 554 840 623 874 q 394 806 485 806 m 308 1121 q 291 1197 281 1167 q 348 1243 302 1228 q 381 1258 373 1251 q 390 1275 390 1264 q 375 1293 390 1287 q 340 1299 360 1299 q 282 1292 306 1299 q 234 1272 258 1285 l 198 1399 q 288 1431 235 1419 q 394 1443 342 1443 q 545 1408 490 1443 q 601 1313 601 1373 q 582 1244 601 1272 q 516 1192 564 1217 q 471 1158 478 1172 q 474 1121 463 1143 l 308 1121 z "},"ẵ":{"ha":831,"x_min":37,"x_max":753,"o":"m 291 -21 q 164 7 222 -21 q 72 87 106 35 q 37 214 37 140 q 68 327 37 278 q 162 407 100 376 q 315 449 224 438 q 526 450 406 460 l 527 285 q 437 298 480 295 q 360 294 394 300 q 308 272 327 288 q 288 230 288 256 q 311 188 288 201 q 371 174 334 174 q 431 185 404 174 q 474 219 458 196 q 490 279 490 242 l 490 426 q 476 486 490 460 q 432 527 463 512 q 345 542 401 542 q 235 525 290 542 q 140 478 181 508 l 72 663 q 228 728 144 706 q 394 750 312 750 q 578 717 497 750 q 707 614 660 684 q 753 431 753 543 l 753 0 l 517 0 l 517 71 q 426 3 484 27 q 291 -21 367 -21 m 394 806 q 232 839 301 806 q 126 932 163 872 q 90 1072 88 992 l 312 1072 q 332 1005 310 1030 q 394 979 354 979 q 456 1005 433 979 q 476 1072 478 1030 l 698 1072 q 661 934 699 994 q 554 840 623 874 q 394 806 485 806 m 176 1103 l 76 1214 q 159 1338 107 1295 q 278 1381 211 1381 q 368 1362 328 1381 q 444 1324 408 1343 q 517 1306 480 1306 q 574 1327 550 1306 q 613 1397 598 1349 l 712 1285 q 647 1162 699 1203 q 524 1121 594 1121 q 432 1140 474 1121 q 351 1177 389 1158 q 277 1196 313 1196 q 218 1173 244 1196 q 176 1103 192 1151 z "},"ǎ":{"ha":831,"x_min":37,"x_max":753,"o":"m 291 -21 q 164 7 222 -21 q 72 87 106 35 q 37 214 37 140 q 68 327 37 278 q 162 407 100 376 q 315 449 224 438 q 526 450 406 460 l 527 285 q 437 298 480 295 q 360 294 394 300 q 308 272 327 288 q 288 230 288 256 q 311 188 288 201 q 371 174 334 174 q 431 185 404 174 q 474 219 458 196 q 490 279 490 242 l 490 426 q 476 486 490 460 q 432 527 463 512 q 345 542 401 542 q 235 525 290 542 q 140 478 181 508 l 72 663 q 228 728 144 706 q 394 750 312 750 q 578 717 497 750 q 707 614 660 684 q 753 431 753 543 l 753 0 l 517 0 l 517 71 q 426 3 484 27 q 291 -21 367 -21 m 276 813 l 60 1072 l 319 1072 l 398 963 l 478 1072 l 727 1072 l 512 813 l 276 813 z "},"â":{"ha":831,"x_min":37,"x_max":753,"o":"m 291 -21 q 164 7 222 -21 q 72 87 106 35 q 37 214 37 140 q 68 327 37 278 q 162 407 100 376 q 315 449 224 438 q 526 450 406 460 l 527 285 q 437 298 480 295 q 360 294 394 300 q 308 272 327 288 q 288 230 288 256 q 311 188 288 201 q 371 174 334 174 q 431 185 404 174 q 474 219 458 196 q 490 279 490 242 l 490 426 q 476 486 490 460 q 432 527 463 512 q 345 542 401 542 q 235 525 290 542 q 140 478 181 508 l 72 663 q 228 728 144 706 q 394 750 312 750 q 578 717 497 750 q 707 614 660 684 q 753 431 753 543 l 753 0 l 517 0 l 517 71 q 426 3 484 27 q 291 -21 367 -21 m 60 813 l 276 1072 l 512 1072 l 727 813 l 469 813 l 390 922 l 309 813 l 60 813 z "},"ấ":{"ha":831,"x_min":37,"x_max":1023,"o":"m 291 -21 q 164 7 222 -21 q 72 87 106 35 q 37 214 37 140 q 68 327 37 278 q 162 407 100 376 q 315 449 224 438 q 526 450 406 460 l 527 285 q 437 298 480 295 q 360 294 394 300 q 308 272 327 288 q 288 230 288 256 q 311 188 288 201 q 371 174 334 174 q 431 185 404 174 q 474 219 458 196 q 490 279 490 242 l 490 426 q 476 486 490 460 q 432 527 463 512 q 345 542 401 542 q 235 525 290 542 q 140 478 181 508 l 72 663 q 228 728 144 706 q 394 750 312 750 q 578 717 497 750 q 707 614 660 684 q 753 431 753 543 l 753 0 l 517 0 l 517 71 q 426 3 484 27 q 291 -21 367 -21 m 60 813 l 276 1072 l 512 1072 l 727 813 l 469 813 l 390 922 l 309 813 l 60 813 m 612 1051 l 749 1311 l 1023 1311 l 860 1051 l 612 1051 z "},"ậ":{"ha":831,"x_min":37,"x_max":753,"o":"m 291 -21 q 164 7 222 -21 q 72 87 106 35 q 37 214 37 140 q 68 327 37 278 q 162 407 100 376 q 315 449 224 438 q 526 450 406 460 l 527 285 q 437 298 480 295 q 360 294 394 300 q 308 272 327 288 q 288 230 288 256 q 311 188 288 201 q 371 174 334 174 q 431 185 404 174 q 474 219 458 196 q 490 279 490 242 l 490 426 q 476 486 490 460 q 432 527 463 512 q 345 542 401 542 q 235 525 290 542 q 140 478 181 508 l 72 663 q 228 728 144 706 q 394 750 312 750 q 578 717 497 750 q 707 614 660 684 q 753 431 753 543 l 753 0 l 517 0 l 517 71 q 426 3 484 27 q 291 -21 367 -21 m 394 -387 q 282 -348 329 -387 q 234 -240 234 -309 q 282 -132 234 -172 q 394 -93 329 -93 q 506 -132 458 -93 q 553 -240 553 -172 q 506 -348 553 -309 q 394 -387 458 -387 m 60 813 l 276 1072 l 512 1072 l 727 813 l 469 813 l 390 922 l 309 813 l 60 813 z "},"ầ":{"ha":831,"x_min":37,"x_max":860,"o":"m 291 -21 q 164 7 222 -21 q 72 87 106 35 q 37 214 37 140 q 68 327 37 278 q 162 407 100 376 q 315 449 224 438 q 526 450 406 460 l 527 285 q 437 298 480 295 q 360 294 394 300 q 308 272 327 288 q 288 230 288 256 q 311 188 288 201 q 371 174 334 174 q 431 185 404 174 q 474 219 458 196 q 490 279 490 242 l 490 426 q 476 486 490 460 q 432 527 463 512 q 345 542 401 542 q 235 525 290 542 q 140 478 181 508 l 72 663 q 228 728 144 706 q 394 750 312 750 q 578 717 497 750 q 707 614 660 684 q 753 431 753 543 l 753 0 l 517 0 l 517 71 q 426 3 484 27 q 291 -21 367 -21 m 60 813 l 276 1072 l 512 1072 l 727 813 l 469 813 l 390 922 l 309 813 l 60 813 m 605 1051 l 447 1311 l 726 1311 l 860 1051 l 605 1051 z "},"ẩ":{"ha":831,"x_min":37,"x_max":958,"o":"m 291 -21 q 164 7 222 -21 q 72 87 106 35 q 37 214 37 140 q 68 327 37 278 q 162 407 100 376 q 315 449 224 438 q 526 450 406 460 l 527 285 q 437 298 480 295 q 360 294 394 300 q 308 272 327 288 q 288 230 288 256 q 311 188 288 201 q 371 174 334 174 q 431 185 404 174 q 474 219 458 196 q 490 279 490 242 l 490 426 q 476 486 490 460 q 432 527 463 512 q 345 542 401 542 q 235 525 290 542 q 140 478 181 508 l 72 663 q 228 728 144 706 q 394 750 312 750 q 578 717 497 750 q 707 614 660 684 q 753 431 753 543 l 753 0 l 517 0 l 517 71 q 426 3 484 27 q 291 -21 367 -21 m 60 813 l 276 1072 l 512 1072 l 727 813 l 469 813 l 390 922 l 309 813 l 60 813 m 665 1051 q 648 1128 638 1097 q 705 1174 659 1158 q 738 1188 730 1182 q 747 1206 747 1194 q 732 1223 747 1217 q 697 1229 717 1229 q 639 1222 663 1229 q 591 1203 615 1215 l 555 1329 q 645 1362 592 1350 q 751 1374 699 1374 q 902 1339 847 1374 q 958 1243 958 1303 q 939 1175 958 1203 q 873 1122 921 1147 q 828 1088 835 1103 q 831 1051 820 1074 l 665 1051 z "},"ẫ":{"ha":831,"x_min":37,"x_max":753,"o":"m 291 -21 q 164 7 222 -21 q 72 87 106 35 q 37 214 37 140 q 68 327 37 278 q 162 407 100 376 q 315 449 224 438 q 526 450 406 460 l 527 285 q 437 298 480 295 q 360 294 394 300 q 308 272 327 288 q 288 230 288 256 q 311 188 288 201 q 371 174 334 174 q 431 185 404 174 q 474 219 458 196 q 490 279 490 242 l 490 426 q 476 486 490 460 q 432 527 463 512 q 345 542 401 542 q 235 525 290 542 q 140 478 181 508 l 72 663 q 228 728 144 706 q 394 750 312 750 q 578 717 497 750 q 707 614 660 684 q 753 431 753 543 l 753 0 l 517 0 l 517 71 q 426 3 484 27 q 291 -21 367 -21 m 60 813 l 276 1072 l 512 1072 l 727 813 l 469 813 l 390 922 l 309 813 l 60 813 m 176 1103 l 76 1214 q 159 1338 107 1295 q 278 1381 211 1381 q 368 1362 328 1381 q 444 1324 408 1343 q 517 1306 480 1306 q 574 1327 550 1306 q 613 1397 598 1349 l 712 1285 q 647 1162 699 1203 q 524 1121 594 1121 q 432 1140 474 1121 q 351 1177 389 1158 q 277 1196 313 1196 q 218 1173 244 1196 q 176 1103 192 1151 z "},"ȁ":{"ha":831,"x_min":-33,"x_max":753,"o":"m 291 -21 q 164 7 222 -21 q 72 87 106 35 q 37 214 37 140 q 68 327 37 278 q 162 407 100 376 q 315 449 224 438 q 526 450 406 460 l 527 285 q 437 298 480 295 q 360 294 394 300 q 308 272 327 288 q 288 230 288 256 q 311 188 288 201 q 371 174 334 174 q 431 185 404 174 q 474 219 458 196 q 490 279 490 242 l 490 426 q 476 486 490 460 q 432 527 463 512 q 345 542 401 542 q 235 525 290 542 q 140 478 181 508 l 72 663 q 228 728 144 706 q 394 750 312 750 q 578 717 497 750 q 707 614 660 684 q 753 431 753 543 l 753 0 l 517 0 l 517 71 q 426 3 484 27 q 291 -21 367 -21 m 470 813 l 322 1072 l 574 1072 l 698 813 l 470 813 m 116 813 l -33 1072 l 220 1072 l 344 813 l 116 813 z "},"ä":{"ha":831,"x_min":37,"x_max":753,"o":"m 291 -21 q 164 7 222 -21 q 72 87 106 35 q 37 214 37 140 q 68 327 37 278 q 162 407 100 376 q 315 449 224 438 q 526 450 406 460 l 527 285 q 437 298 480 295 q 360 294 394 300 q 308 272 327 288 q 288 230 288 256 q 311 188 288 201 q 371 174 334 174 q 431 185 404 174 q 474 219 458 196 q 490 279 490 242 l 490 426 q 476 486 490 460 q 432 527 463 512 q 345 542 401 542 q 235 525 290 542 q 140 478 181 508 l 72 663 q 228 728 144 706 q 394 750 312 750 q 578 717 497 750 q 707 614 660 684 q 753 431 753 543 l 753 0 l 517 0 l 517 71 q 426 3 484 27 q 291 -21 367 -21 m 203 813 q 102 851 147 813 q 58 954 58 889 q 78 1030 58 998 q 133 1079 99 1062 q 203 1096 166 1096 q 305 1058 260 1096 q 349 954 349 1020 q 328 879 349 910 q 274 830 308 847 q 203 813 241 813 m 584 813 q 483 851 528 813 q 438 954 438 889 q 459 1030 438 998 q 513 1079 480 1062 q 584 1096 547 1096 q 685 1058 640 1096 q 730 954 730 1020 q 709 879 730 910 q 655 830 688 847 q 584 813 622 813 z "},"ạ":{"ha":831,"x_min":37,"x_max":753,"o":"m 291 -21 q 164 7 222 -21 q 72 87 106 35 q 37 214 37 140 q 68 327 37 278 q 162 407 100 376 q 315 449 224 438 q 526 450 406 460 l 527 285 q 437 298 480 295 q 360 294 394 300 q 308 272 327 288 q 288 230 288 256 q 311 188 288 201 q 371 174 334 174 q 431 185 404 174 q 474 219 458 196 q 490 279 490 242 l 490 426 q 476 486 490 460 q 432 527 463 512 q 345 542 401 542 q 235 525 290 542 q 140 478 181 508 l 72 663 q 228 728 144 706 q 394 750 312 750 q 578 717 497 750 q 707 614 660 684 q 753 431 753 543 l 753 0 l 517 0 l 517 71 q 426 3 484 27 q 291 -21 367 -21 m 394 -387 q 282 -348 329 -387 q 234 -240 234 -309 q 282 -132 234 -172 q 394 -93 329 -93 q 506 -132 458 -93 q 553 -240 553 -172 q 506 -348 553 -309 q 394 -387 458 -387 z "},"à":{"ha":831,"x_min":37,"x_max":753,"o":"m 291 -21 q 164 7 222 -21 q 72 87 106 35 q 37 214 37 140 q 68 327 37 278 q 162 407 100 376 q 315 449 224 438 q 526 450 406 460 l 527 285 q 437 298 480 295 q 360 294 394 300 q 308 272 327 288 q 288 230 288 256 q 311 188 288 201 q 371 174 334 174 q 431 185 404 174 q 474 219 458 196 q 490 279 490 242 l 490 426 q 476 486 490 460 q 432 527 463 512 q 345 542 401 542 q 235 525 290 542 q 140 478 181 508 l 72 663 q 228 728 144 706 q 394 750 312 750 q 578 717 497 750 q 707 614 660 684 q 753 431 753 543 l 753 0 l 517 0 l 517 71 q 426 3 484 27 q 291 -21 367 -21 m 277 813 l 119 1072 l 398 1072 l 533 813 l 277 813 z "},"ả":{"ha":831,"x_min":37,"x_max":753,"o":"m 291 -21 q 164 7 222 -21 q 72 87 106 35 q 37 214 37 140 q 68 327 37 278 q 162 407 100 376 q 315 449 224 438 q 526 450 406 460 l 527 285 q 437 298 480 295 q 360 294 394 300 q 308 272 327 288 q 288 230 288 256 q 311 188 288 201 q 371 174 334 174 q 431 185 404 174 q 474 219 458 196 q 490 279 490 242 l 490 426 q 476 486 490 460 q 432 527 463 512 q 345 542 401 542 q 235 525 290 542 q 140 478 181 508 l 72 663 q 228 728 144 706 q 394 750 312 750 q 578 717 497 750 q 707 614 660 684 q 753 431 753 543 l 753 0 l 517 0 l 517 71 q 426 3 484 27 q 291 -21 367 -21 m 308 813 q 291 889 281 858 q 348 935 302 919 q 381 949 373 943 q 390 967 390 956 q 375 984 390 978 q 340 990 360 990 q 282 983 306 990 q 234 964 258 976 l 198 1090 q 288 1123 235 1111 q 394 1135 342 1135 q 545 1100 490 1135 q 601 1004 601 1065 q 582 936 601 964 q 516 883 564 908 q 471 849 478 864 q 474 813 463 835 l 308 813 z "},"ȃ":{"ha":831,"x_min":37,"x_max":753,"o":"m 291 -21 q 164 7 222 -21 q 72 87 106 35 q 37 214 37 140 q 68 327 37 278 q 162 407 100 376 q 315 449 224 438 q 526 450 406 460 l 527 285 q 437 298 480 295 q 360 294 394 300 q 308 272 327 288 q 288 230 288 256 q 311 188 288 201 q 371 174 334 174 q 431 185 404 174 q 474 219 458 196 q 490 279 490 242 l 490 426 q 476 486 490 460 q 432 527 463 512 q 345 542 401 542 q 235 525 290 542 q 140 478 181 508 l 72 663 q 228 728 144 706 q 394 750 312 750 q 578 717 497 750 q 707 614 660 684 q 753 431 753 543 l 753 0 l 517 0 l 517 71 q 426 3 484 27 q 291 -21 367 -21 m 90 813 q 126 952 88 892 q 232 1046 163 1013 q 394 1079 301 1079 q 554 1045 485 1079 q 661 951 623 1011 q 698 813 699 891 l 476 813 q 456 881 478 856 q 394 906 433 906 q 332 881 354 906 q 312 813 310 856 l 90 813 z "},"ā":{"ha":831,"x_min":37,"x_max":753,"o":"m 291 -21 q 164 7 222 -21 q 72 87 106 35 q 37 214 37 140 q 68 327 37 278 q 162 407 100 376 q 315 449 224 438 q 526 450 406 460 l 527 285 q 437 298 480 295 q 360 294 394 300 q 308 272 327 288 q 288 230 288 256 q 311 188 288 201 q 371 174 334 174 q 431 185 404 174 q 474 219 458 196 q 490 279 490 242 l 490 426 q 476 486 490 460 q 432 527 463 512 q 345 542 401 542 q 235 525 290 542 q 140 478 181 508 l 72 663 q 228 728 144 706 q 394 750 312 750 q 578 717 497 750 q 707 614 660 684 q 753 431 753 543 l 753 0 l 517 0 l 517 71 q 426 3 484 27 q 291 -21 367 -21 m 124 854 l 124 1015 l 663 1015 l 663 854 l 124 854 z "},"ą":{"ha":831,"x_min":37,"x_max":757,"o":"m 580 -312 q 455 -268 504 -312 q 406 -156 406 -224 q 448 -41 406 -90 q 566 38 490 9 q 742 69 642 67 l 753 0 q 650 -13 691 0 q 589 -48 609 -26 q 569 -101 569 -71 q 584 -140 569 -125 q 626 -154 600 -154 q 663 -145 644 -154 q 697 -121 682 -136 l 757 -257 q 673 -298 719 -284 q 580 -312 628 -312 m 291 -21 q 164 7 222 -21 q 72 87 106 35 q 37 214 37 140 q 68 327 37 278 q 162 407 100 376 q 315 449 224 438 q 526 450 406 460 l 527 285 q 437 298 480 295 q 360 294 394 300 q 308 272 327 288 q 288 230 288 256 q 311 188 288 201 q 371 174 334 174 q 431 185 404 174 q 474 219 458 196 q 490 279 490 242 l 490 426 q 476 486 490 460 q 432 527 463 512 q 345 542 401 542 q 235 525 290 542 q 140 478 181 508 l 72 663 q 228 728 144 706 q 394 750 312 750 q 578 717 497 750 q 707 614 660 684 q 753 431 753 543 l 753 0 l 517 0 l 517 71 q 426 3 484 27 q 291 -21 367 -21 z "},"å":{"ha":831,"x_min":37,"x_max":753,"o":"m 291 -21 q 164 7 222 -21 q 72 87 106 35 q 37 214 37 140 q 68 327 37 278 q 162 407 100 376 q 315 449 224 438 q 526 450 406 460 l 527 285 q 437 298 480 295 q 360 294 394 300 q 308 272 327 288 q 288 230 288 256 q 311 188 288 201 q 371 174 334 174 q 431 185 404 174 q 474 219 458 196 q 490 279 490 242 l 490 426 q 476 486 490 460 q 432 527 463 512 q 345 542 401 542 q 235 525 290 542 q 140 478 181 508 l 72 663 q 228 728 144 706 q 394 750 312 750 q 578 717 497 750 q 707 614 660 684 q 753 431 753 543 l 753 0 l 517 0 l 517 71 q 426 3 484 27 q 291 -21 367 -21 m 394 771 q 289 797 335 771 q 214 866 242 822 q 187 964 187 910 q 214 1062 187 1018 q 289 1131 242 1106 q 394 1157 335 1157 q 498 1131 451 1157 q 573 1062 545 1106 q 601 964 601 1018 q 573 866 601 910 q 498 797 545 822 q 394 771 451 771 m 394 894 q 444 914 425 894 q 463 964 463 934 q 444 1014 463 994 q 394 1033 425 1033 q 343 1014 363 1033 q 324 964 324 994 q 343 914 324 934 q 394 894 363 894 z "},"ǻ":{"ha":831,"x_min":37,"x_max":753,"o":"m 291 -21 q 164 7 222 -21 q 72 87 106 35 q 37 214 37 140 q 68 327 37 278 q 162 407 100 376 q 315 449 224 438 q 526 450 406 460 l 527 285 q 437 298 480 295 q 360 294 394 300 q 308 272 327 288 q 288 230 288 256 q 311 188 288 201 q 371 174 334 174 q 431 185 404 174 q 474 219 458 196 q 490 279 490 242 l 490 426 q 476 486 490 460 q 432 527 463 512 q 345 542 401 542 q 235 525 290 542 q 140 478 181 508 l 72 663 q 228 728 144 706 q 394 750 312 750 q 578 717 497 750 q 707 614 660 684 q 753 431 753 543 l 753 0 l 517 0 l 517 71 q 426 3 484 27 q 291 -21 367 -21 m 394 771 q 289 797 335 771 q 214 866 242 822 q 187 964 187 910 q 214 1062 187 1018 q 289 1131 242 1106 q 394 1157 335 1157 q 498 1131 451 1157 q 573 1062 545 1106 q 601 964 601 1018 q 573 866 601 910 q 498 797 545 822 q 394 771 451 771 m 394 894 q 444 914 425 894 q 463 964 463 934 q 444 1014 463 994 q 394 1033 425 1033 q 343 1014 363 1033 q 324 964 324 994 q 343 914 324 934 q 394 894 363 894 m 255 1190 l 392 1450 l 666 1450 l 503 1190 l 255 1190 z "},"ã":{"ha":831,"x_min":37,"x_max":753,"o":"m 291 -21 q 164 7 222 -21 q 72 87 106 35 q 37 214 37 140 q 68 327 37 278 q 162 407 100 376 q 315 449 224 438 q 526 450 406 460 l 527 285 q 437 298 480 295 q 360 294 394 300 q 308 272 327 288 q 288 230 288 256 q 311 188 288 201 q 371 174 334 174 q 431 185 404 174 q 474 219 458 196 q 490 279 490 242 l 490 426 q 476 486 490 460 q 432 527 463 512 q 345 542 401 542 q 235 525 290 542 q 140 478 181 508 l 72 663 q 228 728 144 706 q 394 750 312 750 q 578 717 497 750 q 707 614 660 684 q 753 431 753 543 l 753 0 l 517 0 l 517 71 q 426 3 484 27 q 291 -21 367 -21 m 176 794 l 76 906 q 159 1030 107 987 q 278 1072 211 1072 q 368 1053 328 1072 q 444 1016 408 1035 q 517 997 480 997 q 574 1019 550 997 q 613 1089 598 1041 l 712 976 q 647 854 699 895 q 524 813 594 813 q 432 831 474 813 q 351 869 389 850 q 277 888 313 888 q 218 865 244 888 q 176 794 192 842 z "},"æ":{"ha":1306,"x_min":37,"x_max":1288,"o":"m 319 -21 q 115 41 194 -21 q 37 214 37 103 q 92 357 37 300 q 256 439 148 415 q 523 450 365 463 l 522 286 q 407 298 460 299 q 321 280 353 297 q 288 228 288 263 q 310 187 288 201 q 369 174 331 174 q 429 184 401 174 q 473 217 456 194 q 490 279 490 240 l 491 432 q 459 506 491 477 q 337 535 428 535 q 236 518 292 535 q 140 471 181 501 l 72 656 q 228 721 144 699 q 394 743 313 743 q 596 701 508 743 q 726 561 683 659 l 602 585 q 752 702 670 662 q 926 743 834 743 q 1131 682 1046 743 q 1252 517 1215 622 q 1263 283 1288 413 l 762 283 q 808 214 766 241 q 913 188 851 188 q 1030 203 975 188 q 1142 251 1085 218 l 1222 68 q 1144 24 1193 44 q 1035 -9 1094 3 q 919 -21 976 -21 q 672 49 779 -21 q 523 258 564 118 l 642 282 q 599 116 643 183 q 481 14 555 49 q 319 -21 407 -21 m 780 464 l 1010 464 q 980 525 1010 501 q 902 549 949 549 q 816 525 850 549 q 780 464 782 501 z "},"ǽ":{"ha":1306,"x_min":37,"x_max":1288,"o":"m 319 -21 q 115 41 194 -21 q 37 214 37 103 q 92 357 37 300 q 256 439 148 415 q 523 450 365 463 l 522 286 q 407 298 460 299 q 321 280 353 297 q 288 228 288 263 q 310 187 288 201 q 369 174 331 174 q 429 184 401 174 q 473 217 456 194 q 490 279 490 240 l 491 432 q 459 506 491 477 q 337 535 428 535 q 236 518 292 535 q 140 471 181 501 l 72 656 q 228 721 144 699 q 394 743 313 743 q 596 701 508 743 q 726 561 683 659 l 602 585 q 752 702 670 662 q 926 743 834 743 q 1131 682 1046 743 q 1252 517 1215 622 q 1263 283 1288 413 l 762 283 q 808 214 766 241 q 913 188 851 188 q 1030 203 975 188 q 1142 251 1085 218 l 1222 68 q 1144 24 1193 44 q 1035 -9 1094 3 q 919 -21 976 -21 q 672 49 779 -21 q 523 258 564 118 l 642 282 q 599 116 643 183 q 481 14 555 49 q 319 -21 407 -21 m 780 464 l 1010 464 q 980 525 1010 501 q 902 549 949 549 q 816 525 850 549 q 780 464 782 501 m 515 813 l 652 1072 l 926 1072 l 763 813 l 515 813 z "},"b":{"ha":943,"x_min":87,"x_max":910,"o":"m 553 -21 q 434 -2 489 -21 q 341 52 380 17 q 285 133 303 87 l 323 196 l 323 0 l 87 0 l 87 1000 l 363 1000 l 363 561 l 299 625 q 412 715 349 687 q 548 743 475 743 q 735 693 653 743 q 864 557 817 643 q 910 361 910 470 q 883 202 910 273 q 808 82 856 131 q 695 6 760 32 q 553 -21 630 -21 m 502 215 q 573 233 541 215 q 623 283 604 251 q 641 361 641 316 q 623 439 641 406 q 573 489 605 472 q 502 507 542 507 q 431 489 463 507 q 381 439 399 472 q 363 361 363 406 q 382 283 363 316 q 432 233 400 251 q 502 215 463 215 z "},"c":{"ha":763,"x_min":33,"x_max":747,"o":"m 437 -21 q 230 29 322 -21 q 86 166 139 79 q 33 361 33 252 q 64 512 33 442 q 151 633 95 581 q 283 714 208 685 q 445 743 358 743 q 607 719 532 743 q 741 647 682 694 l 623 443 q 548 492 588 476 q 465 507 508 507 q 379 490 415 507 q 325 440 344 473 q 306 361 306 408 q 349 254 306 292 q 466 215 391 215 q 557 233 514 215 q 641 289 601 251 l 747 79 q 601 6 684 33 q 437 -21 518 -21 z "},"ć":{"ha":763,"x_min":33,"x_max":747,"o":"m 437 -21 q 230 29 322 -21 q 86 166 139 79 q 33 361 33 252 q 64 512 33 442 q 151 633 95 581 q 283 714 208 685 q 445 743 358 743 q 607 719 532 743 q 741 647 682 694 l 623 443 q 548 492 588 476 q 465 507 508 507 q 379 490 415 507 q 325 440 344 473 q 306 361 306 408 q 349 254 306 292 q 466 215 391 215 q 557 233 514 215 q 641 289 601 251 l 747 79 q 601 6 684 33 q 437 -21 518 -21 m 278 813 l 416 1072 l 690 1072 l 527 813 l 278 813 z "},"č":{"ha":763,"x_min":33,"x_max":751,"o":"m 437 -21 q 230 29 322 -21 q 86 166 139 79 q 33 361 33 252 q 64 512 33 442 q 151 633 95 581 q 283 714 208 685 q 445 743 358 743 q 607 719 532 743 q 741 647 682 694 l 623 443 q 548 492 588 476 q 465 507 508 507 q 379 490 415 507 q 325 440 344 473 q 306 361 306 408 q 349 254 306 292 q 466 215 391 215 q 557 233 514 215 q 641 289 601 251 l 747 79 q 601 6 684 33 q 437 -21 518 -21 m 299 813 l 84 1072 l 342 1072 l 422 963 l 502 1072 l 751 1072 l 535 813 l 299 813 z "},"ç":{"ha":763,"x_min":33,"x_max":747,"o":"m 437 -21 q 230 29 322 -21 q 86 166 139 79 q 33 361 33 252 q 64 512 33 442 q 151 633 95 581 q 283 714 208 685 q 445 743 358 743 q 607 719 532 743 q 741 647 682 694 l 623 443 q 548 492 588 476 q 465 507 508 507 q 379 490 415 507 q 325 440 344 473 q 306 361 306 408 q 349 254 306 292 q 466 215 391 215 q 557 233 514 215 q 641 289 601 251 l 747 79 q 601 6 684 33 q 437 -21 518 -21 m 391 -312 q 281 -297 332 -312 q 195 -260 231 -281 l 241 -144 q 310 -177 268 -167 q 381 -186 352 -186 q 422 -181 408 -186 q 435 -168 435 -176 q 407 -150 435 -156 q 345 -151 378 -145 l 295 -58 l 334 28 l 476 28 l 455 -36 q 579 -77 534 -44 q 624 -168 624 -110 q 590 -250 624 -218 q 501 -297 555 -282 q 391 -312 448 -312 z "},"ĉ":{"ha":763,"x_min":33,"x_max":751,"o":"m 437 -21 q 230 29 322 -21 q 86 166 139 79 q 33 361 33 252 q 64 512 33 442 q 151 633 95 581 q 283 714 208 685 q 445 743 358 743 q 607 719 532 743 q 741 647 682 694 l 623 443 q 548 492 588 476 q 465 507 508 507 q 379 490 415 507 q 325 440 344 473 q 306 361 306 408 q 349 254 306 292 q 466 215 391 215 q 557 233 514 215 q 641 289 601 251 l 747 79 q 601 6 684 33 q 437 -21 518 -21 m 84 813 l 299 1072 l 535 1072 l 751 813 l 492 813 l 413 922 l 333 813 l 84 813 z "},"ċ":{"ha":763,"x_min":33,"x_max":747,"o":"m 437 -21 q 230 29 322 -21 q 86 166 139 79 q 33 361 33 252 q 64 512 33 442 q 151 633 95 581 q 283 714 208 685 q 445 743 358 743 q 607 719 532 743 q 741 647 682 694 l 623 443 q 548 492 588 476 q 465 507 508 507 q 379 490 415 507 q 325 440 344 473 q 306 361 306 408 q 349 254 306 292 q 466 215 391 215 q 557 233 514 215 q 641 289 601 251 l 747 79 q 601 6 684 33 q 437 -21 518 -21 m 417 815 q 305 855 353 815 q 258 963 258 894 q 305 1070 258 1031 q 417 1110 353 1110 q 530 1070 482 1110 q 577 963 577 1031 q 530 855 577 894 q 417 815 482 815 z "},"d":{"ha":943,"x_min":33,"x_max":856,"o":"m 390 -21 q 207 25 288 -21 q 80 157 126 72 q 33 361 33 243 q 59 513 33 443 q 135 634 86 582 q 250 714 183 685 q 395 743 316 743 q 531 715 468 743 q 644 625 594 687 l 578 561 l 578 1000 l 856 1000 l 856 0 l 620 0 l 620 196 l 658 133 q 559 22 632 64 q 390 -21 487 -21 m 441 215 q 511 233 480 215 q 561 283 543 251 q 580 361 580 316 q 562 439 580 406 q 512 489 544 472 q 441 507 481 507 q 370 489 401 507 q 320 439 338 472 q 302 361 302 406 q 320 283 302 316 q 370 233 339 251 q 441 215 402 215 z "},"ð":{"ha":872,"x_min":33,"x_max":835,"o":"m 427 -21 q 223 24 312 -21 q 83 145 134 68 q 33 319 33 222 q 60 447 33 388 q 138 550 88 506 q 254 620 188 595 q 397 646 320 646 q 457 641 424 646 q 523 622 490 636 q 581 581 556 608 l 508 611 q 446 682 482 647 q 365 751 410 717 q 267 816 320 785 q 155 875 215 847 l 359 1018 q 606 850 499 949 q 775 633 714 751 q 835 383 835 514 q 805 226 835 299 q 720 97 775 152 q 590 10 665 42 q 427 -21 516 -21 m 427 208 q 492 224 464 208 q 536 268 520 240 q 552 333 552 297 q 536 398 552 370 q 492 442 520 426 q 427 458 464 458 q 362 442 390 458 q 318 398 334 426 q 302 333 302 370 q 318 268 302 297 q 362 224 334 240 q 427 208 390 208 m 177 626 l 177 778 l 435 893 l 435 903 l 692 1021 l 692 869 l 435 751 l 435 742 l 177 626 z "},"ď":{"ha":1082,"x_min":33,"x_max":1141,"o":"m 390 -21 q 207 25 288 -21 q 80 157 126 72 q 33 361 33 243 q 59 513 33 443 q 135 634 86 582 q 250 714 183 685 q 395 743 316 743 q 531 715 468 743 q 644 625 594 687 l 578 561 l 578 1000 l 856 1000 l 856 0 l 620 0 l 620 196 l 658 133 q 559 22 632 64 q 390 -21 487 -21 m 441 215 q 511 233 480 215 q 561 283 543 251 q 580 361 580 316 q 562 439 580 406 q 512 489 544 472 q 441 507 481 507 q 370 489 401 507 q 320 439 338 472 q 302 361 302 406 q 320 283 302 316 q 370 233 339 251 q 441 215 402 215 m 905 758 l 905 1000 l 1141 1000 l 1087 758 l 905 758 z "},"đ":{"ha":943,"x_min":33,"x_max":941,"o":"m 385 776 l 385 924 l 941 924 l 941 776 l 385 776 m 390 -21 q 207 25 288 -21 q 80 157 126 72 q 33 361 33 243 q 59 513 33 443 q 135 634 86 582 q 250 714 183 685 q 395 743 316 743 q 531 715 468 743 q 644 625 594 687 l 578 561 l 578 1000 l 856 1000 l 856 0 l 620 0 l 620 196 l 658 133 q 559 22 632 64 q 390 -21 487 -21 m 441 215 q 511 233 480 215 q 561 283 543 251 q 580 361 580 316 q 562 439 580 406 q 512 489 544 472 q 441 507 481 507 q 370 489 401 507 q 320 439 338 472 q 302 361 302 406 q 320 283 302 316 q 370 233 339 251 q 441 215 402 215 z "},"ǆ":{"ha":1682,"x_min":33,"x_max":1647,"o":"m 390 -21 q 207 25 288 -21 q 80 157 126 72 q 33 361 33 243 q 59 513 33 443 q 135 634 86 582 q 250 714 183 685 q 395 743 316 743 q 531 715 468 743 q 644 625 594 687 l 578 561 l 578 1000 l 856 1000 l 856 0 l 620 0 l 620 196 l 658 133 q 559 22 632 64 q 390 -21 487 -21 m 441 215 q 511 233 480 215 q 561 283 543 251 q 580 361 580 316 q 562 439 580 406 q 512 489 544 472 q 441 507 481 507 q 370 489 401 507 q 320 439 338 472 q 302 361 302 406 q 320 283 302 316 q 370 233 339 251 q 441 215 402 215 m 997 0 l 997 181 l 1278 479 l 1009 479 l 1009 722 l 1623 722 l 1623 542 l 1362 243 l 1628 243 l 1628 0 l 997 0 m 1195 813 l 980 1072 l 1238 1072 l 1317 963 l 1398 1072 l 1647 1072 l 1431 813 l 1195 813 z "},"e":{"ha":845,"x_min":33,"x_max":822,"o":"m 437 -21 q 224 27 315 -21 q 83 161 133 75 q 33 363 33 247 q 62 516 33 447 q 145 637 92 586 q 273 715 199 688 q 434 743 346 743 q 609 708 533 743 q 736 611 686 674 q 804 466 786 549 q 802 283 822 382 l 281 283 q 305 233 284 255 q 362 200 326 212 q 442 188 397 188 q 565 203 508 188 q 678 251 622 218 l 759 68 q 672 24 727 44 q 555 -9 617 3 q 437 -21 492 -21 m 299 464 l 541 464 q 509 525 541 501 q 426 549 477 549 q 338 525 373 549 q 299 464 303 501 z "},"é":{"ha":845,"x_min":33,"x_max":822,"o":"m 437 -21 q 224 27 315 -21 q 83 161 133 75 q 33 363 33 247 q 62 516 33 447 q 145 637 92 586 q 273 715 199 688 q 434 743 346 743 q 609 708 533 743 q 736 611 686 674 q 804 466 786 549 q 802 283 822 382 l 281 283 q 305 233 284 255 q 362 200 326 212 q 442 188 397 188 q 565 203 508 188 q 678 251 622 218 l 759 68 q 672 24 727 44 q 555 -9 617 3 q 437 -21 492 -21 m 299 464 l 541 464 q 509 525 541 501 q 426 549 477 549 q 338 525 373 549 q 299 464 303 501 m 287 813 l 424 1072 l 698 1072 l 535 813 l 287 813 z "},"ĕ":{"ha":845,"x_min":33,"x_max":822,"o":"m 437 -21 q 224 27 315 -21 q 83 161 133 75 q 33 363 33 247 q 62 516 33 447 q 145 637 92 586 q 273 715 199 688 q 434 743 346 743 q 609 708 533 743 q 736 611 686 674 q 804 466 786 549 q 802 283 822 382 l 281 283 q 305 233 284 255 q 362 200 326 212 q 442 188 397 188 q 565 203 508 188 q 678 251 622 218 l 759 68 q 672 24 727 44 q 555 -9 617 3 q 437 -21 492 -21 m 299 464 l 541 464 q 509 525 541 501 q 426 549 477 549 q 338 525 373 549 q 299 464 303 501 m 426 806 q 264 839 333 806 q 158 932 195 872 q 122 1072 120 992 l 344 1072 q 364 1005 342 1030 q 426 979 386 979 q 488 1005 465 979 q 508 1072 510 1030 l 730 1072 q 693 934 731 994 q 586 840 655 874 q 426 806 517 806 z "},"ě":{"ha":845,"x_min":33,"x_max":822,"o":"m 437 -21 q 224 27 315 -21 q 83 161 133 75 q 33 363 33 247 q 62 516 33 447 q 145 637 92 586 q 273 715 199 688 q 434 743 346 743 q 609 708 533 743 q 736 611 686 674 q 804 466 786 549 q 802 283 822 382 l 281 283 q 305 233 284 255 q 362 200 326 212 q 442 188 397 188 q 565 203 508 188 q 678 251 622 218 l 759 68 q 672 24 727 44 q 555 -9 617 3 q 437 -21 492 -21 m 299 464 l 541 464 q 509 525 541 501 q 426 549 477 549 q 338 525 373 549 q 299 464 303 501 m 308 813 l 92 1072 l 351 1072 l 430 963 l 510 1072 l 759 1072 l 544 813 l 308 813 z "},"ê":{"ha":845,"x_min":33,"x_max":822,"o":"m 437 -21 q 224 27 315 -21 q 83 161 133 75 q 33 363 33 247 q 62 516 33 447 q 145 637 92 586 q 273 715 199 688 q 434 743 346 743 q 609 708 533 743 q 736 611 686 674 q 804 466 786 549 q 802 283 822 382 l 281 283 q 305 233 284 255 q 362 200 326 212 q 442 188 397 188 q 565 203 508 188 q 678 251 622 218 l 759 68 q 672 24 727 44 q 555 -9 617 3 q 437 -21 492 -21 m 299 464 l 541 464 q 509 525 541 501 q 426 549 477 549 q 338 525 373 549 q 299 464 303 501 m 92 813 l 308 1072 l 544 1072 l 759 813 l 501 813 l 422 922 l 341 813 l 92 813 z "},"ế":{"ha":845,"x_min":33,"x_max":1055,"o":"m 437 -21 q 224 27 315 -21 q 83 161 133 75 q 33 363 33 247 q 62 516 33 447 q 145 637 92 586 q 273 715 199 688 q 434 743 346 743 q 609 708 533 743 q 736 611 686 674 q 804 466 786 549 q 802 283 822 382 l 281 283 q 305 233 284 255 q 362 200 326 212 q 442 188 397 188 q 565 203 508 188 q 678 251 622 218 l 759 68 q 672 24 727 44 q 555 -9 617 3 q 437 -21 492 -21 m 299 464 l 541 464 q 509 525 541 501 q 426 549 477 549 q 338 525 373 549 q 299 464 303 501 m 92 813 l 308 1072 l 544 1072 l 759 813 l 501 813 l 422 922 l 341 813 l 92 813 m 644 1051 l 781 1311 l 1055 1311 l 892 1051 l 644 1051 z "},"ệ":{"ha":845,"x_min":33,"x_max":822,"o":"m 437 -21 q 224 27 315 -21 q 83 161 133 75 q 33 363 33 247 q 62 516 33 447 q 145 637 92 586 q 273 715 199 688 q 434 743 346 743 q 609 708 533 743 q 736 611 686 674 q 804 466 786 549 q 802 283 822 382 l 281 283 q 305 233 284 255 q 362 200 326 212 q 442 188 397 188 q 565 203 508 188 q 678 251 622 218 l 759 68 q 672 24 727 44 q 555 -9 617 3 q 437 -21 492 -21 m 299 464 l 541 464 q 509 525 541 501 q 426 549 477 549 q 338 525 373 549 q 299 464 303 501 m 412 -387 q 300 -348 347 -387 q 252 -240 252 -309 q 300 -132 252 -172 q 412 -93 347 -93 q 524 -132 476 -93 q 572 -240 572 -172 q 524 -348 572 -309 q 412 -387 476 -387 m 92 813 l 308 1072 l 544 1072 l 759 813 l 501 813 l 422 922 l 341 813 l 92 813 z "},"ề":{"ha":845,"x_min":33,"x_max":892,"o":"m 437 -21 q 224 27 315 -21 q 83 161 133 75 q 33 363 33 247 q 62 516 33 447 q 145 637 92 586 q 273 715 199 688 q 434 743 346 743 q 609 708 533 743 q 736 611 686 674 q 804 466 786 549 q 802 283 822 382 l 281 283 q 305 233 284 255 q 362 200 326 212 q 442 188 397 188 q 565 203 508 188 q 678 251 622 218 l 759 68 q 672 24 727 44 q 555 -9 617 3 q 437 -21 492 -21 m 299 464 l 541 464 q 509 525 541 501 q 426 549 477 549 q 338 525 373 549 q 299 464 303 501 m 92 813 l 308 1072 l 544 1072 l 759 813 l 501 813 l 422 922 l 341 813 l 92 813 m 637 1051 l 478 1311 l 758 1311 l 892 1051 l 637 1051 z "},"ể":{"ha":845,"x_min":33,"x_max":990,"o":"m 437 -21 q 224 27 315 -21 q 83 161 133 75 q 33 363 33 247 q 62 516 33 447 q 145 637 92 586 q 273 715 199 688 q 434 743 346 743 q 609 708 533 743 q 736 611 686 674 q 804 466 786 549 q 802 283 822 382 l 281 283 q 305 233 284 255 q 362 200 326 212 q 442 188 397 188 q 565 203 508 188 q 678 251 622 218 l 759 68 q 672 24 727 44 q 555 -9 617 3 q 437 -21 492 -21 m 299 464 l 541 464 q 509 525 541 501 q 426 549 477 549 q 338 525 373 549 q 299 464 303 501 m 92 813 l 308 1072 l 544 1072 l 759 813 l 501 813 l 422 922 l 341 813 l 92 813 m 697 1051 q 680 1128 669 1097 q 737 1174 691 1158 q 770 1188 762 1182 q 778 1206 778 1194 q 764 1223 778 1217 q 728 1229 749 1229 q 671 1222 695 1229 q 623 1203 647 1215 l 587 1329 q 677 1362 624 1350 q 783 1374 731 1374 q 934 1339 878 1374 q 990 1243 990 1303 q 971 1175 990 1203 q 905 1122 953 1147 q 860 1088 867 1103 q 863 1051 852 1074 l 697 1051 z "},"ễ":{"ha":845,"x_min":33,"x_max":822,"o":"m 437 -21 q 224 27 315 -21 q 83 161 133 75 q 33 363 33 247 q 62 516 33 447 q 145 637 92 586 q 273 715 199 688 q 434 743 346 743 q 609 708 533 743 q 736 611 686 674 q 804 466 786 549 q 802 283 822 382 l 281 283 q 305 233 284 255 q 362 200 326 212 q 442 188 397 188 q 565 203 508 188 q 678 251 622 218 l 759 68 q 672 24 727 44 q 555 -9 617 3 q 437 -21 492 -21 m 299 464 l 541 464 q 509 525 541 501 q 426 549 477 549 q 338 525 373 549 q 299 464 303 501 m 92 813 l 308 1072 l 544 1072 l 759 813 l 501 813 l 422 922 l 341 813 l 92 813 m 208 1103 l 108 1214 q 191 1338 139 1295 q 310 1381 243 1381 q 400 1362 360 1381 q 476 1324 440 1343 q 549 1306 512 1306 q 606 1327 582 1306 q 645 1397 630 1349 l 744 1285 q 678 1162 731 1203 q 556 1121 626 1121 q 464 1140 506 1121 q 383 1177 421 1158 q 309 1196 344 1196 q 250 1173 276 1196 q 208 1103 224 1151 z "},"ȅ":{"ha":845,"x_min":-1,"x_max":822,"o":"m 437 -21 q 224 27 315 -21 q 83 161 133 75 q 33 363 33 247 q 62 516 33 447 q 145 637 92 586 q 273 715 199 688 q 434 743 346 743 q 609 708 533 743 q 736 611 686 674 q 804 466 786 549 q 802 283 822 382 l 281 283 q 305 233 284 255 q 362 200 326 212 q 442 188 397 188 q 565 203 508 188 q 678 251 622 218 l 759 68 q 672 24 727 44 q 555 -9 617 3 q 437 -21 492 -21 m 299 464 l 541 464 q 509 525 541 501 q 426 549 477 549 q 338 525 373 549 q 299 464 303 501 m 502 813 l 353 1072 l 606 1072 l 730 813 l 502 813 m 148 813 l -1 1072 l 252 1072 l 376 813 l 148 813 z "},"ë":{"ha":845,"x_min":33,"x_max":822,"o":"m 437 -21 q 224 27 315 -21 q 83 161 133 75 q 33 363 33 247 q 62 516 33 447 q 145 637 92 586 q 273 715 199 688 q 434 743 346 743 q 609 708 533 743 q 736 611 686 674 q 804 466 786 549 q 802 283 822 382 l 281 283 q 305 233 284 255 q 362 200 326 212 q 442 188 397 188 q 565 203 508 188 q 678 251 622 218 l 759 68 q 672 24 727 44 q 555 -9 617 3 q 437 -21 492 -21 m 299 464 l 541 464 q 509 525 541 501 q 426 549 477 549 q 338 525 373 549 q 299 464 303 501 m 235 813 q 134 851 179 813 q 90 954 90 889 q 110 1030 90 998 q 165 1079 131 1062 q 235 1096 198 1096 q 336 1058 292 1096 q 381 954 381 1020 q 360 879 381 910 q 306 830 340 847 q 235 813 273 813 m 616 813 q 515 851 560 813 q 470 954 470 889 q 491 1030 470 998 q 545 1079 512 1062 q 616 1096 578 1096 q 717 1058 672 1096 q 762 954 762 1020 q 741 879 762 910 q 687 830 720 847 q 616 813 653 813 z "},"ė":{"ha":845,"x_min":33,"x_max":822,"o":"m 437 -21 q 224 27 315 -21 q 83 161 133 75 q 33 363 33 247 q 62 516 33 447 q 145 637 92 586 q 273 715 199 688 q 434 743 346 743 q 609 708 533 743 q 736 611 686 674 q 804 466 786 549 q 802 283 822 382 l 281 283 q 305 233 284 255 q 362 200 326 212 q 442 188 397 188 q 565 203 508 188 q 678 251 622 218 l 759 68 q 672 24 727 44 q 555 -9 617 3 q 437 -21 492 -21 m 299 464 l 541 464 q 509 525 541 501 q 426 549 477 549 q 338 525 373 549 q 299 464 303 501 m 426 815 q 314 855 361 815 q 266 963 266 894 q 314 1070 266 1031 q 426 1110 361 1110 q 538 1070 490 1110 q 585 963 585 1031 q 538 855 585 894 q 426 815 490 815 z "},"ẹ":{"ha":845,"x_min":33,"x_max":822,"o":"m 437 -21 q 224 27 315 -21 q 83 161 133 75 q 33 363 33 247 q 62 516 33 447 q 145 637 92 586 q 273 715 199 688 q 434 743 346 743 q 609 708 533 743 q 736 611 686 674 q 804 466 786 549 q 802 283 822 382 l 281 283 q 305 233 284 255 q 362 200 326 212 q 442 188 397 188 q 565 203 508 188 q 678 251 622 218 l 759 68 q 672 24 727 44 q 555 -9 617 3 q 437 -21 492 -21 m 299 464 l 541 464 q 509 525 541 501 q 426 549 477 549 q 338 525 373 549 q 299 464 303 501 m 412 -387 q 300 -348 347 -387 q 252 -240 252 -309 q 300 -132 252 -172 q 412 -93 347 -93 q 524 -132 476 -93 q 572 -240 572 -172 q 524 -348 572 -309 q 412 -387 476 -387 z "},"è":{"ha":845,"x_min":33,"x_max":822,"o":"m 437 -21 q 224 27 315 -21 q 83 161 133 75 q 33 363 33 247 q 62 516 33 447 q 145 637 92 586 q 273 715 199 688 q 434 743 346 743 q 609 708 533 743 q 736 611 686 674 q 804 466 786 549 q 802 283 822 382 l 281 283 q 305 233 284 255 q 362 200 326 212 q 442 188 397 188 q 565 203 508 188 q 678 251 622 218 l 759 68 q 672 24 727 44 q 555 -9 617 3 q 437 -21 492 -21 m 299 464 l 541 464 q 509 525 541 501 q 426 549 477 549 q 338 525 373 549 q 299 464 303 501 m 309 813 l 151 1072 l 430 1072 l 565 813 l 309 813 z "},"ẻ":{"ha":845,"x_min":33,"x_max":822,"o":"m 437 -21 q 224 27 315 -21 q 83 161 133 75 q 33 363 33 247 q 62 516 33 447 q 145 637 92 586 q 273 715 199 688 q 434 743 346 743 q 609 708 533 743 q 736 611 686 674 q 804 466 786 549 q 802 283 822 382 l 281 283 q 305 233 284 255 q 362 200 326 212 q 442 188 397 188 q 565 203 508 188 q 678 251 622 218 l 759 68 q 672 24 727 44 q 555 -9 617 3 q 437 -21 492 -21 m 299 464 l 541 464 q 509 525 541 501 q 426 549 477 549 q 338 525 373 549 q 299 464 303 501 m 340 813 q 323 889 313 858 q 380 935 334 919 q 413 949 405 943 q 422 967 422 956 q 407 984 422 978 q 372 990 392 990 q 314 983 338 990 q 266 964 290 976 l 230 1090 q 320 1123 267 1111 q 426 1135 374 1135 q 577 1100 522 1135 q 633 1004 633 1065 q 614 936 633 964 q 548 883 596 908 q 503 849 510 864 q 506 813 495 835 l 340 813 z "},"ȇ":{"ha":845,"x_min":33,"x_max":822,"o":"m 437 -21 q 224 27 315 -21 q 83 161 133 75 q 33 363 33 247 q 62 516 33 447 q 145 637 92 586 q 273 715 199 688 q 434 743 346 743 q 609 708 533 743 q 736 611 686 674 q 804 466 786 549 q 802 283 822 382 l 281 283 q 305 233 284 255 q 362 200 326 212 q 442 188 397 188 q 565 203 508 188 q 678 251 622 218 l 759 68 q 672 24 727 44 q 555 -9 617 3 q 437 -21 492 -21 m 299 464 l 541 464 q 509 525 541 501 q 426 549 477 549 q 338 525 373 549 q 299 464 303 501 m 122 813 q 158 952 120 892 q 264 1046 195 1013 q 426 1079 333 1079 q 586 1045 517 1079 q 693 951 655 1011 q 730 813 731 891 l 508 813 q 488 881 510 856 q 426 906 465 906 q 364 881 386 906 q 344 813 342 856 l 122 813 z "},"ē":{"ha":845,"x_min":33,"x_max":822,"o":"m 437 -21 q 224 27 315 -21 q 83 161 133 75 q 33 363 33 247 q 62 516 33 447 q 145 637 92 586 q 273 715 199 688 q 434 743 346 743 q 609 708 533 743 q 736 611 686 674 q 804 466 786 549 q 802 283 822 382 l 281 283 q 305 233 284 255 q 362 200 326 212 q 442 188 397 188 q 565 203 508 188 q 678 251 622 218 l 759 68 q 672 24 727 44 q 555 -9 617 3 q 437 -21 492 -21 m 299 464 l 541 464 q 509 525 541 501 q 426 549 477 549 q 338 525 373 549 q 299 464 303 501 m 156 854 l 156 1015 l 695 1015 l 695 854 l 156 854 z "},"ę":{"ha":845,"x_min":33,"x_max":822,"o":"m 437 -21 q 224 27 315 -21 q 83 161 133 75 q 33 363 33 247 q 62 516 33 447 q 145 637 92 586 q 273 715 199 688 q 434 743 346 743 q 609 708 533 743 q 736 611 686 674 q 804 466 786 549 q 802 283 822 382 l 281 283 q 305 233 284 255 q 362 200 326 212 q 442 188 397 188 q 565 203 508 188 q 678 251 622 218 l 759 68 q 672 24 727 44 q 555 -9 617 3 q 437 -21 492 -21 m 299 464 l 541 464 q 509 525 541 501 q 426 549 477 549 q 338 525 373 549 q 299 464 303 501 m 574 -312 q 450 -267 499 -312 q 401 -152 401 -222 q 441 -37 401 -90 q 553 53 482 15 q 717 111 624 91 l 727 48 q 657 12 688 30 q 606 -24 627 -6 q 574 -61 585 -42 q 563 -101 563 -81 q 579 -140 563 -125 q 620 -154 594 -154 q 658 -145 639 -154 q 691 -121 676 -136 l 751 -257 q 668 -298 713 -284 q 574 -312 622 -312 z "},"ẽ":{"ha":845,"x_min":33,"x_max":822,"o":"m 437 -21 q 224 27 315 -21 q 83 161 133 75 q 33 363 33 247 q 62 516 33 447 q 145 637 92 586 q 273 715 199 688 q 434 743 346 743 q 609 708 533 743 q 736 611 686 674 q 804 466 786 549 q 802 283 822 382 l 281 283 q 305 233 284 255 q 362 200 326 212 q 442 188 397 188 q 565 203 508 188 q 678 251 622 218 l 759 68 q 672 24 727 44 q 555 -9 617 3 q 437 -21 492 -21 m 299 464 l 541 464 q 509 525 541 501 q 426 549 477 549 q 338 525 373 549 q 299 464 303 501 m 208 794 l 108 906 q 191 1030 139 987 q 310 1072 243 1072 q 400 1053 360 1072 q 476 1016 440 1035 q 549 997 512 997 q 606 1019 582 997 q 645 1089 630 1041 l 744 976 q 678 854 731 895 q 556 813 626 813 q 464 831 506 813 q 383 869 421 850 q 309 888 344 888 q 250 865 276 888 q 208 794 224 842 z "},"ə":{"ha":844,"x_min":24,"x_max":812,"o":"m 419 -21 q 243 15 321 -21 q 114 114 165 50 q 43 262 63 177 q 41 446 24 347 l 653 446 l 653 265 l 176 265 l 267 351 q 305 219 267 264 q 413 174 342 174 q 502 195 466 174 q 556 259 538 217 q 574 365 574 302 q 553 460 574 422 q 491 516 533 497 q 387 535 449 535 q 270 517 326 535 q 163 465 215 500 l 83 649 q 166 696 114 674 q 277 730 218 717 q 388 743 336 743 q 615 698 520 743 q 761 567 710 652 q 812 365 812 483 q 782 212 812 283 q 699 89 753 142 q 574 8 646 37 q 419 -21 503 -21 z "},"f":{"ha":610,"x_min":26,"x_max":598,"o":"m 140 0 l 140 754 q 213 948 140 875 q 426 1021 286 1021 q 511 1013 469 1021 q 598 983 554 1004 l 560 775 q 523 791 541 787 q 488 794 505 794 q 436 780 454 794 q 417 739 417 765 l 417 722 l 585 722 l 585 506 l 417 506 l 417 0 l 140 0 m 26 506 l 26 722 l 162 722 l 162 506 l 26 506 z "},"g":{"ha":864,"x_min":12,"x_max":851,"o":"m 366 -312 q 220 -299 285 -312 q 108 -261 155 -286 q 37 -200 62 -235 q 12 -119 12 -164 q 31 -56 12 -86 q 85 -2 50 -25 q 169 31 120 20 q 111 85 129 55 q 92 153 92 115 q 113 219 92 188 q 171 276 134 251 q 257 315 208 301 q 363 326 306 329 l 409 228 q 351 225 372 228 q 321 213 330 221 q 312 196 312 206 q 327 176 312 185 q 390 163 342 167 l 513 151 q 668 121 601 143 q 772 58 735 99 q 809 -50 809 17 q 778 -155 809 -107 q 688 -239 747 -203 q 548 -293 630 -274 q 366 -312 467 -312 m 410 -144 q 520 -129 479 -144 q 560 -87 560 -113 q 539 -57 560 -67 q 469 -43 518 -47 l 328 -32 q 284 -43 302 -35 q 256 -61 265 -51 q 247 -85 247 -72 q 267 -116 247 -103 q 324 -137 287 -130 q 410 -144 360 -144 m 397 222 q 223 257 297 222 q 107 350 149 291 q 66 483 66 409 q 108 615 66 556 q 225 708 150 674 q 397 743 299 743 q 567 709 493 743 q 684 616 642 674 q 726 483 726 557 q 684 352 726 411 q 569 257 643 292 q 397 222 495 222 m 397 403 q 449 413 425 403 q 486 442 472 424 q 501 483 501 460 q 470 541 501 519 q 397 564 440 564 q 344 553 367 564 q 306 525 320 543 q 292 483 292 507 q 323 425 292 448 q 397 403 353 403 m 502 519 l 397 694 l 851 722 l 851 506 l 502 519 z "},"ğ":{"ha":864,"x_min":12,"x_max":851,"o":"m 366 -312 q 220 -299 285 -312 q 108 -261 155 -286 q 37 -200 62 -235 q 12 -119 12 -164 q 31 -56 12 -86 q 85 -2 50 -25 q 169 31 120 20 q 111 85 129 55 q 92 153 92 115 q 113 219 92 188 q 171 276 134 251 q 257 315 208 301 q 363 326 306 329 l 409 228 q 351 225 372 228 q 321 213 330 221 q 312 196 312 206 q 327 176 312 185 q 390 163 342 167 l 513 151 q 668 121 601 143 q 772 58 735 99 q 809 -50 809 17 q 778 -155 809 -107 q 688 -239 747 -203 q 548 -293 630 -274 q 366 -312 467 -312 m 410 -144 q 520 -129 479 -144 q 560 -87 560 -113 q 539 -57 560 -67 q 469 -43 518 -47 l 328 -32 q 284 -43 302 -35 q 256 -61 265 -51 q 247 -85 247 -72 q 267 -116 247 -103 q 324 -137 287 -130 q 410 -144 360 -144 m 397 222 q 223 257 297 222 q 107 350 149 291 q 66 483 66 409 q 108 615 66 556 q 225 708 150 674 q 397 743 299 743 q 567 709 493 743 q 684 616 642 674 q 726 483 726 557 q 684 352 726 411 q 569 257 643 292 q 397 222 495 222 m 397 403 q 449 413 425 403 q 486 442 472 424 q 501 483 501 460 q 470 541 501 519 q 397 564 440 564 q 344 553 367 564 q 306 525 320 543 q 292 483 292 507 q 323 425 292 448 q 397 403 353 403 m 502 519 l 397 694 l 851 722 l 851 506 l 502 519 m 410 806 q 249 839 317 806 q 142 932 180 872 q 106 1072 105 992 l 328 1072 q 349 1005 326 1030 q 410 979 371 979 q 472 1005 450 979 q 492 1072 494 1030 l 715 1072 q 678 934 716 994 q 570 840 640 874 q 410 806 501 806 z "},"ǧ":{"ha":864,"x_min":12,"x_max":851,"o":"m 366 -312 q 220 -299 285 -312 q 108 -261 155 -286 q 37 -200 62 -235 q 12 -119 12 -164 q 31 -56 12 -86 q 85 -2 50 -25 q 169 31 120 20 q 111 85 129 55 q 92 153 92 115 q 113 219 92 188 q 171 276 134 251 q 257 315 208 301 q 363 326 306 329 l 409 228 q 351 225 372 228 q 321 213 330 221 q 312 196 312 206 q 327 176 312 185 q 390 163 342 167 l 513 151 q 668 121 601 143 q 772 58 735 99 q 809 -50 809 17 q 778 -155 809 -107 q 688 -239 747 -203 q 548 -293 630 -274 q 366 -312 467 -312 m 410 -144 q 520 -129 479 -144 q 560 -87 560 -113 q 539 -57 560 -67 q 469 -43 518 -47 l 328 -32 q 284 -43 302 -35 q 256 -61 265 -51 q 247 -85 247 -72 q 267 -116 247 -103 q 324 -137 287 -130 q 410 -144 360 -144 m 397 222 q 223 257 297 222 q 107 350 149 291 q 66 483 66 409 q 108 615 66 556 q 225 708 150 674 q 397 743 299 743 q 567 709 493 743 q 684 616 642 674 q 726 483 726 557 q 684 352 726 411 q 569 257 643 292 q 397 222 495 222 m 397 403 q 449 413 425 403 q 486 442 472 424 q 501 483 501 460 q 470 541 501 519 q 397 564 440 564 q 344 553 367 564 q 306 525 320 543 q 292 483 292 507 q 323 425 292 448 q 397 403 353 403 m 502 519 l 397 694 l 851 722 l 851 506 l 502 519 m 292 813 l 77 1072 l 335 1072 l 415 963 l 495 1072 l 744 1072 l 528 813 l 292 813 z "},"ĝ":{"ha":864,"x_min":12,"x_max":851,"o":"m 366 -312 q 220 -299 285 -312 q 108 -261 155 -286 q 37 -200 62 -235 q 12 -119 12 -164 q 31 -56 12 -86 q 85 -2 50 -25 q 169 31 120 20 q 111 85 129 55 q 92 153 92 115 q 113 219 92 188 q 171 276 134 251 q 257 315 208 301 q 363 326 306 329 l 409 228 q 351 225 372 228 q 321 213 330 221 q 312 196 312 206 q 327 176 312 185 q 390 163 342 167 l 513 151 q 668 121 601 143 q 772 58 735 99 q 809 -50 809 17 q 778 -155 809 -107 q 688 -239 747 -203 q 548 -293 630 -274 q 366 -312 467 -312 m 410 -144 q 520 -129 479 -144 q 560 -87 560 -113 q 539 -57 560 -67 q 469 -43 518 -47 l 328 -32 q 284 -43 302 -35 q 256 -61 265 -51 q 247 -85 247 -72 q 267 -116 247 -103 q 324 -137 287 -130 q 410 -144 360 -144 m 397 222 q 223 257 297 222 q 107 350 149 291 q 66 483 66 409 q 108 615 66 556 q 225 708 150 674 q 397 743 299 743 q 567 709 493 743 q 684 616 642 674 q 726 483 726 557 q 684 352 726 411 q 569 257 643 292 q 397 222 495 222 m 397 403 q 449 413 425 403 q 486 442 472 424 q 501 483 501 460 q 470 541 501 519 q 397 564 440 564 q 344 553 367 564 q 306 525 320 543 q 292 483 292 507 q 323 425 292 448 q 397 403 353 403 m 502 519 l 397 694 l 851 722 l 851 506 l 502 519 m 77 813 l 292 1072 l 528 1072 l 744 813 l 485 813 l 406 922 l 326 813 l 77 813 z "},"ģ":{"ha":864,"x_min":12,"x_max":851,"o":"m 366 -312 q 220 -299 285 -312 q 108 -261 155 -286 q 37 -200 62 -235 q 12 -119 12 -164 q 31 -56 12 -86 q 85 -2 50 -25 q 169 31 120 20 q 111 85 129 55 q 92 153 92 115 q 113 219 92 188 q 171 276 134 251 q 257 315 208 301 q 363 326 306 329 l 409 228 q 351 225 372 228 q 321 213 330 221 q 312 196 312 206 q 327 176 312 185 q 390 163 342 167 l 513 151 q 668 121 601 143 q 772 58 735 99 q 809 -50 809 17 q 778 -155 809 -107 q 688 -239 747 -203 q 548 -293 630 -274 q 366 -312 467 -312 m 410 -144 q 520 -129 479 -144 q 560 -87 560 -113 q 539 -57 560 -67 q 469 -43 518 -47 l 328 -32 q 284 -43 302 -35 q 256 -61 265 -51 q 247 -85 247 -72 q 267 -116 247 -103 q 324 -137 287 -130 q 410 -144 360 -144 m 397 222 q 223 257 297 222 q 107 350 149 291 q 66 483 66 409 q 108 615 66 556 q 225 708 150 674 q 397 743 299 743 q 567 709 493 743 q 684 616 642 674 q 726 483 726 557 q 684 352 726 411 q 569 257 643 292 q 397 222 495 222 m 397 403 q 449 413 425 403 q 486 442 472 424 q 501 483 501 460 q 470 541 501 519 q 397 564 440 564 q 344 553 367 564 q 306 525 320 543 q 292 483 292 507 q 323 425 292 448 q 397 403 353 403 m 502 519 l 397 694 l 851 722 l 851 506 l 502 519 m 419 815 q 300 863 347 815 q 253 986 253 911 q 280 1101 253 1047 q 363 1207 307 1156 q 506 1303 419 1257 l 574 1203 q 474 1155 519 1187 q 401 1086 428 1122 q 483 1074 446 1089 q 543 1030 520 1059 q 566 958 566 1000 q 525 854 566 893 q 419 815 484 815 z "},"ġ":{"ha":864,"x_min":12,"x_max":851,"o":"m 366 -312 q 220 -299 285 -312 q 108 -261 155 -286 q 37 -200 62 -235 q 12 -119 12 -164 q 31 -56 12 -86 q 85 -2 50 -25 q 169 31 120 20 q 111 85 129 55 q 92 153 92 115 q 113 219 92 188 q 171 276 134 251 q 257 315 208 301 q 363 326 306 329 l 409 228 q 351 225 372 228 q 321 213 330 221 q 312 196 312 206 q 327 176 312 185 q 390 163 342 167 l 513 151 q 668 121 601 143 q 772 58 735 99 q 809 -50 809 17 q 778 -155 809 -107 q 688 -239 747 -203 q 548 -293 630 -274 q 366 -312 467 -312 m 410 -144 q 520 -129 479 -144 q 560 -87 560 -113 q 539 -57 560 -67 q 469 -43 518 -47 l 328 -32 q 284 -43 302 -35 q 256 -61 265 -51 q 247 -85 247 -72 q 267 -116 247 -103 q 324 -137 287 -130 q 410 -144 360 -144 m 397 222 q 223 257 297 222 q 107 350 149 291 q 66 483 66 409 q 108 615 66 556 q 225 708 150 674 q 397 743 299 743 q 567 709 493 743 q 684 616 642 674 q 726 483 726 557 q 684 352 726 411 q 569 257 643 292 q 397 222 495 222 m 397 403 q 449 413 425 403 q 486 442 472 424 q 501 483 501 460 q 470 541 501 519 q 397 564 440 564 q 344 553 367 564 q 306 525 320 543 q 292 483 292 507 q 323 425 292 448 q 397 403 353 403 m 502 519 l 397 694 l 851 722 l 851 506 l 502 519 m 410 815 q 298 855 346 815 q 251 963 251 894 q 298 1070 251 1031 q 410 1110 346 1110 q 523 1070 475 1110 q 570 963 570 1031 q 523 855 570 894 q 410 815 475 815 z "},"h":{"ha":944,"x_min":87,"x_max":865,"o":"m 87 0 l 87 1000 l 365 1000 l 365 551 l 306 622 q 415 709 352 674 q 556 743 477 743 q 728 702 660 743 q 831 595 797 662 q 865 449 865 528 l 865 0 l 587 0 l 587 371 q 558 459 587 425 q 474 493 528 492 q 413 479 437 494 q 376 437 388 465 q 365 371 365 409 l 365 0 l 87 0 z "},"ħ":{"ha":944,"x_min":2,"x_max":865,"o":"m 87 0 l 87 1000 l 365 1000 l 365 551 l 306 622 q 415 709 352 674 q 556 743 477 743 q 728 702 660 743 q 831 595 797 662 q 865 449 865 528 l 865 0 l 587 0 l 587 371 q 558 459 587 425 q 474 493 528 492 q 413 479 437 494 q 376 437 388 465 q 365 371 365 409 l 365 0 l 87 0 m 2 776 l 2 924 l 558 924 l 558 776 l 2 776 z "},"ĥ":{"ha":944,"x_min":-119,"x_max":865,"o":"m 87 0 l 87 1000 l 365 1000 l 365 551 l 306 622 q 415 709 352 674 q 556 743 477 743 q 728 702 660 743 q 831 595 797 662 q 865 449 865 528 l 865 0 l 587 0 l 587 371 q 558 459 587 425 q 474 493 528 492 q 413 479 437 494 q 376 437 388 465 q 365 371 365 409 l 365 0 l 87 0 m -119 1075 l 102 1321 l 349 1321 l 572 1075 l 301 1075 l 222 1165 l 141 1075 l -119 1075 z "},"i":{"ha":451,"x_min":66,"x_max":385,"o":"m 87 0 l 87 722 l 365 722 l 365 0 l 87 0 m 226 815 q 114 855 161 815 q 66 963 66 894 q 114 1070 66 1031 q 226 1110 161 1110 q 338 1070 290 1110 q 385 963 385 1031 q 338 855 385 894 q 226 815 290 815 z "},"ı":{"ha":451,"x_min":87,"x_max":365,"o":"m 87 0 l 87 722 l 365 722 l 365 0 l 87 0 z "},"í":{"ha":451,"x_min":87,"x_max":484,"o":"m 87 0 l 87 722 l 365 722 l 365 0 l 87 0 m 88 813 l 210 1072 l 484 1072 l 335 813 l 88 813 z "},"ĭ":{"ha":451,"x_min":-50,"x_max":501,"o":"m 87 0 l 87 722 l 365 722 l 365 0 l 87 0 m 226 806 q 80 839 142 806 q -16 932 17 872 q -49 1072 -50 992 l 172 1072 q 185 1005 169 1030 q 226 979 200 979 q 266 1005 251 979 q 280 1072 282 1030 l 501 1072 q 467 934 501 994 q 370 840 433 874 q 226 806 308 806 z "},"î":{"ha":451,"x_min":-81,"x_max":534,"o":"m 87 0 l 87 722 l 365 722 l 365 0 l 87 0 m -81 813 l 109 1072 l 341 1072 l 534 813 l 277 813 l 220 922 l 165 813 l -81 813 z "},"ȉ":{"ha":451,"x_min":-110,"x_max":487,"o":"m 87 0 l 87 722 l 365 722 l 365 0 l 87 0 m 487 813 l 281 813 l 184 1072 l 415 1072 l 487 813 m 198 813 l -13 813 l -110 1072 l 126 1072 l 198 813 z "},"ï":{"ha":451,"x_min":-70,"x_max":522,"o":"m 87 0 l 87 722 l 365 722 l 365 0 l 87 0 m 65 813 q -32 851 6 813 q -70 954 -70 889 q -32 1058 -70 1020 q 65 1096 6 1096 q 159 1058 121 1096 q 198 954 198 1020 q 159 851 198 889 q 65 813 121 813 m 387 813 q 292 851 331 813 q 253 954 253 889 q 292 1058 253 1020 q 387 1096 331 1096 q 483 1058 445 1096 q 522 954 522 1020 q 483 851 522 889 q 387 813 445 813 z "},"ị":{"ha":451,"x_min":66,"x_max":385,"o":"m 87 0 l 87 722 l 365 722 l 365 0 l 87 0 m 226 815 q 114 855 161 815 q 66 963 66 894 q 114 1070 66 1031 q 226 1110 161 1110 q 338 1070 290 1110 q 385 963 385 1031 q 338 855 385 894 q 226 815 290 815 m 226 -387 q 114 -348 161 -387 q 66 -240 66 -309 q 114 -132 66 -172 q 226 -93 161 -93 q 338 -132 290 -93 q 385 -240 385 -172 q 338 -348 385 -309 q 226 -387 290 -387 z "},"ì":{"ha":451,"x_min":-35,"x_max":365,"o":"m 87 0 l 87 722 l 365 722 l 365 0 l 87 0 m 108 813 l -35 1072 l 242 1072 l 362 813 l 108 813 z "},"ỉ":{"ha":451,"x_min":47,"x_max":415,"o":"m 87 0 l 87 722 l 365 722 l 365 0 l 87 0 m 142 813 q 127 889 117 860 q 174 935 136 918 q 198 949 191 942 q 205 967 205 956 q 194 984 205 978 q 169 990 183 990 q 121 983 141 990 q 80 964 101 976 l 47 1090 q 129 1123 79 1111 q 226 1135 179 1135 q 364 1100 313 1135 q 415 1004 415 1065 q 399 936 415 965 q 342 883 383 908 q 304 849 310 864 q 306 813 297 835 l 142 813 z "},"ȋ":{"ha":451,"x_min":-50,"x_max":501,"o":"m 87 0 l 87 722 l 365 722 l 365 0 l 87 0 m -49 813 q -16 952 -50 892 q 80 1046 17 1013 q 226 1079 142 1079 q 370 1045 308 1079 q 467 951 433 1011 q 501 813 501 891 l 280 813 q 267 881 282 856 q 226 906 252 906 q 185 881 200 906 q 172 813 169 856 l -49 813 z "},"ĳ":{"ha":903,"x_min":66,"x_max":837,"o":"m 87 0 l 87 722 l 365 722 l 365 0 l 87 0 m 226 815 q 114 855 161 815 q 66 963 66 894 q 114 1070 66 1031 q 226 1110 161 1110 q 338 1070 290 1110 q 385 963 385 1031 q 338 855 385 894 q 226 815 290 815 m 530 -312 q 428 -304 469 -312 q 344 -272 388 -295 l 395 -69 q 431 -83 413 -78 q 467 -87 448 -87 q 520 -68 503 -87 q 538 -10 538 -49 l 538 722 l 816 722 l 816 -25 q 780 -175 816 -110 q 679 -276 744 -240 q 530 -312 615 -312 m 677 815 q 565 855 613 815 q 517 963 517 894 q 565 1070 517 1031 q 677 1110 613 1110 q 789 1070 742 1110 q 837 963 837 1031 q 789 855 837 894 q 677 815 742 815 z "},"ī":{"ha":451,"x_min":-17,"x_max":470,"o":"m 87 0 l 87 722 l 365 722 l 365 0 l 87 0 m -17 854 l -17 1015 l 470 1015 l 470 854 l -17 854 z "},"į":{"ha":451,"x_min":17,"x_max":385,"o":"m 87 0 l 87 722 l 365 722 l 365 0 l 87 0 m 226 815 q 114 855 161 815 q 66 963 66 894 q 114 1070 66 1031 q 226 1110 161 1110 q 338 1070 290 1110 q 385 963 385 1031 q 338 855 385 894 q 226 815 290 815 m 191 -312 q 66 -267 115 -312 q 17 -152 17 -222 q 59 -36 17 -87 q 176 45 101 15 q 351 81 251 76 l 365 0 q 261 -13 302 0 q 200 -48 220 -26 q 180 -101 180 -71 q 195 -140 180 -125 q 237 -154 211 -154 q 274 -145 256 -154 q 308 -121 293 -136 l 368 -257 q 284 -298 330 -284 q 191 -312 239 -312 z "},"ĩ":{"ha":451,"x_min":-62,"x_max":512,"o":"m 87 0 l 87 722 l 365 722 l 365 0 l 87 0 m 33 794 l -62 906 q 15 1030 -33 987 q 124 1072 62 1072 q 204 1053 169 1072 q 270 1016 239 1035 q 335 997 302 997 q 384 1019 363 997 q 419 1089 406 1041 l 512 976 q 455 854 503 895 q 342 813 407 813 q 259 831 297 813 q 188 869 221 850 q 123 888 154 888 q 73 867 97 888 q 33 794 49 846 z "},"j":{"ha":451,"x_min":-108,"x_max":385,"o":"m 78 -312 q -23 -304 17 -312 q -108 -272 -64 -295 l -56 -69 q -21 -83 -38 -78 q 16 -87 -3 -87 q 69 -68 51 -87 q 87 -10 87 -49 l 87 722 l 365 722 l 365 -25 q 328 -175 365 -110 q 228 -276 292 -240 q 78 -312 163 -312 m 226 815 q 114 855 161 815 q 66 963 66 894 q 114 1070 66 1031 q 226 1110 161 1110 q 338 1070 290 1110 q 385 963 385 1031 q 338 855 385 894 q 226 815 290 815 z "},"ȷ":{"ha":451,"x_min":-108,"x_max":365,"o":"m 78 -312 q -23 -304 17 -312 q -108 -272 -64 -295 l -56 -69 q -21 -83 -38 -78 q 16 -87 -3 -87 q 69 -68 51 -87 q 87 -10 87 -49 l 87 722 l 365 722 l 365 -25 q 328 -175 365 -110 q 228 -276 292 -240 q 78 -312 163 -312 z "},"ĵ":{"ha":451,"x_min":-108,"x_max":534,"o":"m 78 -312 q -23 -304 17 -312 q -108 -272 -64 -295 l -56 -69 q -21 -83 -38 -78 q 16 -87 -3 -87 q 69 -68 51 -87 q 87 -10 87 -49 l 87 722 l 365 722 l 365 -25 q 328 -175 365 -110 q 228 -276 292 -240 q 78 -312 163 -312 m -81 813 l 109 1072 l 341 1072 l 534 813 l 277 813 l 220 922 l 165 813 l -81 813 z "},"k":{"ha":879,"x_min":87,"x_max":872,"o":"m 87 0 l 87 1000 l 365 1000 l 365 517 l 540 722 l 859 722 l 608 421 l 872 0 l 545 0 l 406 239 l 365 192 l 365 0 l 87 0 z "},"ķ":{"ha":879,"x_min":87,"x_max":872,"o":"m 87 0 l 87 1000 l 365 1000 l 365 517 l 540 722 l 859 722 l 608 421 l 872 0 l 545 0 l 406 239 l 365 192 l 365 0 l 87 0 m 369 -581 l 301 -481 q 401 -432 356 -465 q 474 -364 447 -400 q 392 -351 430 -366 q 332 -307 355 -336 q 309 -236 309 -277 q 350 -132 309 -170 q 456 -93 391 -93 q 575 -141 528 -93 q 622 -264 622 -189 q 595 -379 622 -324 q 512 -484 568 -434 q 369 -581 456 -534 z "},"ĸ":{"ha":879,"x_min":87,"x_max":872,"o":"m 87 0 l 87 722 l 365 722 l 365 517 l 540 722 l 859 722 l 608 421 l 872 0 l 545 0 l 406 239 l 365 192 l 365 0 l 87 0 z "},"l":{"ha":451,"x_min":87,"x_max":365,"o":"m 87 0 l 87 1000 l 365 1000 l 365 0 l 87 0 z "},"ĺ":{"ha":451,"x_min":80,"x_max":508,"o":"m 87 0 l 87 1000 l 365 1000 l 365 0 l 87 0 m 80 1075 l 220 1321 l 508 1321 l 341 1075 l 80 1075 z "},"ľ":{"ha":590,"x_min":87,"x_max":649,"o":"m 87 0 l 87 1000 l 365 1000 l 365 0 l 87 0 m 413 758 l 413 1000 l 649 1000 l 595 758 l 413 758 z "},"ļ":{"ha":451,"x_min":62,"x_max":383,"o":"m 87 0 l 87 1000 l 365 1000 l 365 0 l 87 0 m 131 -581 l 62 -481 q 163 -432 117 -465 q 235 -364 208 -400 q 153 -351 191 -366 q 93 -307 116 -336 q 70 -236 70 -277 q 111 -132 70 -170 q 217 -93 152 -93 q 336 -141 290 -93 q 383 -264 383 -189 q 356 -379 383 -324 q 273 -484 329 -434 q 131 -581 217 -534 z "},"ŀ":{"ha":759,"x_min":87,"x_max":769,"o":"m 87 0 l 87 1000 l 365 1000 l 365 0 l 87 0 m 606 342 q 492 383 541 342 q 444 496 444 424 q 466 579 444 544 q 525 633 488 614 q 606 651 563 651 q 720 610 672 651 q 769 496 769 569 q 746 413 769 448 q 687 360 724 378 q 606 342 650 342 z "},"ǉ":{"ha":903,"x_min":87,"x_max":837,"o":"m 87 0 l 87 1000 l 365 1000 l 365 0 l 87 0 m 530 -312 q 428 -304 469 -312 q 344 -272 388 -295 l 395 -69 q 431 -83 413 -78 q 467 -87 448 -87 q 520 -68 503 -87 q 538 -10 538 -49 l 538 722 l 816 722 l 816 -25 q 780 -175 816 -110 q 679 -276 744 -240 q 530 -312 615 -312 m 677 815 q 565 855 613 815 q 517 963 517 894 q 565 1070 517 1031 q 677 1110 613 1110 q 789 1070 742 1110 q 837 963 837 1031 q 789 855 837 894 q 677 815 742 815 z "},"ł":{"ha":576,"x_min":-32,"x_max":608,"o":"m 64 259 l -32 455 l 288 610 l 288 582 l 513 686 l 608 489 l 288 340 l 288 368 l 64 259 m 149 0 l 149 1000 l 427 1000 l 427 0 l 149 0 z "},"m":{"ha":1403,"x_min":87,"x_max":1323,"o":"m 87 0 l 87 722 l 365 722 l 365 639 q 422 695 388 672 q 495 731 456 719 q 574 743 535 743 q 705 709 647 743 q 781 615 762 676 q 888 710 817 677 q 1045 743 960 743 q 1213 703 1153 743 q 1298 598 1274 663 q 1323 460 1323 533 l 1323 0 l 1045 0 l 1045 381 q 1019 463 1045 432 q 944 493 992 493 q 891 481 913 493 q 856 449 868 469 q 844 407 844 430 l 844 0 l 566 0 l 566 381 q 540 463 566 432 q 465 493 513 493 q 411 481 434 493 q 377 449 389 469 q 365 407 365 430 l 365 0 l 87 0 z "},"n":{"ha":944,"x_min":87,"x_max":865,"o":"m 87 0 l 87 722 l 365 722 l 365 656 q 454 722 402 701 q 565 743 506 743 q 735 703 669 743 q 833 598 801 663 q 865 460 865 533 l 865 0 l 587 0 l 587 372 q 560 461 587 430 q 477 493 533 493 q 416 478 441 493 q 378 435 391 463 q 365 372 365 408 l 365 0 l 87 0 z "},"ń":{"ha":944,"x_min":87,"x_max":865,"o":"m 87 0 l 87 722 l 365 722 l 365 656 q 454 722 402 701 q 565 743 506 743 q 735 703 669 743 q 833 598 801 663 q 865 460 865 533 l 865 0 l 587 0 l 587 372 q 560 461 587 430 q 477 493 533 493 q 416 478 441 493 q 378 435 391 463 q 365 372 365 408 l 365 0 l 87 0 m 338 813 l 476 1072 l 749 1072 l 587 813 l 338 813 z "},"ň":{"ha":944,"x_min":87,"x_max":865,"o":"m 87 0 l 87 722 l 365 722 l 365 656 q 454 722 402 701 q 565 743 506 743 q 735 703 669 743 q 833 598 801 663 q 865 460 865 533 l 865 0 l 587 0 l 587 372 q 560 461 587 430 q 477 493 533 493 q 416 478 441 493 q 378 435 391 463 q 365 372 365 408 l 365 0 l 87 0 m 359 813 l 144 1072 l 402 1072 l 481 963 l 562 1072 l 810 1072 l 595 813 l 359 813 z "},"ņ":{"ha":944,"x_min":87,"x_max":865,"o":"m 87 0 l 87 722 l 365 722 l 365 656 q 454 722 402 701 q 565 743 506 743 q 735 703 669 743 q 833 598 801 663 q 865 460 865 533 l 865 0 l 587 0 l 587 372 q 560 461 587 430 q 477 493 533 493 q 416 478 441 493 q 378 435 391 463 q 365 372 365 408 l 365 0 l 87 0 m 381 -581 l 312 -481 q 413 -432 367 -465 q 485 -364 458 -400 q 403 -351 441 -366 q 343 -307 366 -336 q 320 -236 320 -277 q 361 -132 320 -170 q 467 -93 402 -93 q 586 -141 540 -93 q 633 -264 633 -189 q 606 -379 633 -324 q 523 -484 579 -434 q 381 -581 467 -534 z "},"ǌ":{"ha":1396,"x_min":87,"x_max":1330,"o":"m 87 0 l 87 722 l 365 722 l 365 656 q 454 722 402 701 q 565 743 506 743 q 735 703 669 743 q 833 598 801 663 q 865 460 865 533 l 865 0 l 587 0 l 587 372 q 560 461 587 430 q 477 493 533 493 q 416 478 441 493 q 378 435 391 463 q 365 372 365 408 l 365 0 l 87 0 m 1023 -312 q 921 -304 962 -312 q 837 -272 881 -295 l 888 -69 q 924 -83 906 -78 q 960 -87 941 -87 q 1014 -68 996 -87 q 1031 -10 1031 -49 l 1031 722 l 1309 722 l 1309 -25 q 1273 -175 1309 -110 q 1172 -276 1237 -240 q 1023 -312 1108 -312 m 1170 815 q 1058 855 1106 815 q 1010 963 1010 894 q 1058 1070 1010 1031 q 1170 1110 1106 1110 q 1282 1070 1235 1110 q 1330 963 1330 1031 q 1282 855 1330 894 q 1170 815 1235 815 z "},"ñ":{"ha":944,"x_min":87,"x_max":865,"o":"m 87 0 l 87 722 l 365 722 l 365 656 q 454 722 402 701 q 565 743 506 743 q 735 703 669 743 q 833 598 801 663 q 865 460 865 533 l 865 0 l 587 0 l 587 372 q 560 461 587 430 q 477 493 533 493 q 416 478 441 493 q 378 435 391 463 q 365 372 365 408 l 365 0 l 87 0 m 259 794 l 159 906 q 242 1030 190 987 q 362 1072 294 1072 q 451 1053 411 1072 q 527 1016 491 1035 q 601 997 563 997 q 657 1019 633 997 q 697 1089 681 1041 l 795 976 q 730 854 782 895 q 608 813 678 813 q 515 831 558 813 q 434 869 472 850 q 360 888 396 888 q 301 865 327 888 q 259 794 276 842 z "},"ŋ":{"ha":939,"x_min":87,"x_max":859,"o":"m 573 -312 q 471 -303 512 -312 q 387 -271 431 -294 l 438 -69 q 474 -83 456 -78 q 510 -87 491 -87 q 564 -68 546 -87 q 581 -10 581 -49 l 581 372 q 556 461 581 430 q 474 493 530 493 q 415 478 439 493 q 377 435 390 463 q 365 372 365 408 l 365 0 l 87 0 l 87 722 l 365 722 l 365 656 q 453 722 402 701 q 562 743 503 743 q 731 703 665 743 q 828 598 797 663 q 859 460 859 533 l 859 -25 q 823 -175 859 -110 q 722 -276 787 -240 q 573 -312 658 -312 z "},"o":{"ha":882,"x_min":33,"x_max":849,"o":"m 441 -21 q 228 31 320 -21 q 84 170 136 83 q 33 361 33 257 q 62 505 33 436 q 146 627 92 574 q 276 712 201 681 q 441 743 351 743 q 654 691 562 743 q 798 552 746 639 q 849 361 849 465 q 820 217 849 286 q 736 95 790 149 q 607 10 681 42 q 441 -21 532 -21 m 441 215 q 511 233 480 215 q 561 283 543 251 q 580 361 580 316 q 562 439 580 406 q 512 489 544 472 q 441 507 481 507 q 370 489 401 507 q 320 439 338 472 q 302 361 302 406 q 320 283 302 316 q 370 233 339 251 q 441 215 402 215 z "},"ó":{"ha":882,"x_min":33,"x_max":849,"o":"m 441 -21 q 228 31 320 -21 q 84 170 136 83 q 33 361 33 257 q 62 505 33 436 q 146 627 92 574 q 276 712 201 681 q 441 743 351 743 q 654 691 562 743 q 798 552 746 639 q 849 361 849 465 q 820 217 849 286 q 736 95 790 149 q 607 10 681 42 q 441 -21 532 -21 m 441 215 q 511 233 480 215 q 561 283 543 251 q 580 361 580 316 q 562 439 580 406 q 512 489 544 472 q 441 507 481 507 q 370 489 401 507 q 320 439 338 472 q 302 361 302 406 q 320 283 302 316 q 370 233 339 251 q 441 215 402 215 m 302 813 l 440 1072 l 713 1072 l 551 813 l 302 813 z "},"ŏ":{"ha":882,"x_min":33,"x_max":849,"o":"m 441 -21 q 228 31 320 -21 q 84 170 136 83 q 33 361 33 257 q 62 505 33 436 q 146 627 92 574 q 276 712 201 681 q 441 743 351 743 q 654 691 562 743 q 798 552 746 639 q 849 361 849 465 q 820 217 849 286 q 736 95 790 149 q 607 10 681 42 q 441 -21 532 -21 m 441 215 q 511 233 480 215 q 561 283 543 251 q 580 361 580 316 q 562 439 580 406 q 512 489 544 472 q 441 507 481 507 q 370 489 401 507 q 320 439 338 472 q 302 361 302 406 q 320 283 302 316 q 370 233 339 251 q 441 215 402 215 m 441 806 q 279 839 348 806 q 173 932 210 872 q 137 1072 135 992 l 359 1072 q 379 1005 357 1030 q 441 979 401 979 q 503 1005 481 979 q 523 1072 525 1030 l 745 1072 q 708 934 747 994 q 601 840 670 874 q 441 806 532 806 z "},"ô":{"ha":882,"x_min":33,"x_max":849,"o":"m 441 -21 q 228 31 320 -21 q 84 170 136 83 q 33 361 33 257 q 62 505 33 436 q 146 627 92 574 q 276 712 201 681 q 441 743 351 743 q 654 691 562 743 q 798 552 746 639 q 849 361 849 465 q 820 217 849 286 q 736 95 790 149 q 607 10 681 42 q 441 -21 532 -21 m 441 215 q 511 233 480 215 q 561 283 543 251 q 580 361 580 316 q 562 439 580 406 q 512 489 544 472 q 441 507 481 507 q 370 489 401 507 q 320 439 338 472 q 302 361 302 406 q 320 283 302 316 q 370 233 339 251 q 441 215 402 215 m 108 813 l 323 1072 l 559 1072 l 774 813 l 516 813 l 437 922 l 356 813 l 108 813 z "},"ố":{"ha":882,"x_min":33,"x_max":1070,"o":"m 441 -21 q 228 31 320 -21 q 84 170 136 83 q 33 361 33 257 q 62 505 33 436 q 146 627 92 574 q 276 712 201 681 q 441 743 351 743 q 654 691 562 743 q 798 552 746 639 q 849 361 849 465 q 820 217 849 286 q 736 95 790 149 q 607 10 681 42 q 441 -21 532 -21 m 441 215 q 511 233 480 215 q 561 283 543 251 q 580 361 580 316 q 562 439 580 406 q 512 489 544 472 q 441 507 481 507 q 370 489 401 507 q 320 439 338 472 q 302 361 302 406 q 320 283 302 316 q 370 233 339 251 q 441 215 402 215 m 108 813 l 323 1072 l 559 1072 l 774 813 l 516 813 l 437 922 l 356 813 l 108 813 m 659 1051 l 797 1311 l 1070 1311 l 908 1051 l 659 1051 z "},"ộ":{"ha":882,"x_min":33,"x_max":849,"o":"m 441 -21 q 228 31 320 -21 q 84 170 136 83 q 33 361 33 257 q 62 505 33 436 q 146 627 92 574 q 276 712 201 681 q 441 743 351 743 q 654 691 562 743 q 798 552 746 639 q 849 361 849 465 q 820 217 849 286 q 736 95 790 149 q 607 10 681 42 q 441 -21 532 -21 m 441 215 q 511 233 480 215 q 561 283 543 251 q 580 361 580 316 q 562 439 580 406 q 512 489 544 472 q 441 507 481 507 q 370 489 401 507 q 320 439 338 472 q 302 361 302 406 q 320 283 302 316 q 370 233 339 251 q 441 215 402 215 m 441 -387 q 329 -348 376 -387 q 281 -240 281 -309 q 329 -132 281 -172 q 441 -93 376 -93 q 553 -132 506 -93 q 601 -240 601 -172 q 553 -348 601 -309 q 441 -387 506 -387 m 108 813 l 323 1072 l 559 1072 l 774 813 l 516 813 l 437 922 l 356 813 l 108 813 z "},"ồ":{"ha":882,"x_min":33,"x_max":908,"o":"m 441 -21 q 228 31 320 -21 q 84 170 136 83 q 33 361 33 257 q 62 505 33 436 q 146 627 92 574 q 276 712 201 681 q 441 743 351 743 q 654 691 562 743 q 798 552 746 639 q 849 361 849 465 q 820 217 849 286 q 736 95 790 149 q 607 10 681 42 q 441 -21 532 -21 m 441 215 q 511 233 480 215 q 561 283 543 251 q 580 361 580 316 q 562 439 580 406 q 512 489 544 472 q 441 507 481 507 q 370 489 401 507 q 320 439 338 472 q 302 361 302 406 q 320 283 302 316 q 370 233 339 251 q 441 215 402 215 m 108 813 l 323 1072 l 559 1072 l 774 813 l 516 813 l 437 922 l 356 813 l 108 813 m 652 1051 l 494 1311 l 773 1311 l 908 1051 l 652 1051 z "},"ổ":{"ha":882,"x_min":33,"x_max":1005,"o":"m 441 -21 q 228 31 320 -21 q 84 170 136 83 q 33 361 33 257 q 62 505 33 436 q 146 627 92 574 q 276 712 201 681 q 441 743 351 743 q 654 691 562 743 q 798 552 746 639 q 849 361 849 465 q 820 217 849 286 q 736 95 790 149 q 607 10 681 42 q 441 -21 532 -21 m 441 215 q 511 233 480 215 q 561 283 543 251 q 580 361 580 316 q 562 439 580 406 q 512 489 544 472 q 441 507 481 507 q 370 489 401 507 q 320 439 338 472 q 302 361 302 406 q 320 283 302 316 q 370 233 339 251 q 441 215 402 215 m 108 813 l 323 1072 l 559 1072 l 774 813 l 516 813 l 437 922 l 356 813 l 108 813 m 712 1051 q 695 1128 685 1097 q 752 1174 706 1158 q 785 1188 777 1182 q 794 1206 794 1194 q 779 1223 794 1217 q 744 1229 765 1229 q 686 1222 710 1229 q 638 1203 663 1215 l 602 1329 q 692 1362 639 1350 q 798 1374 746 1374 q 949 1339 894 1374 q 1005 1243 1005 1303 q 986 1175 1005 1203 q 920 1122 968 1147 q 875 1088 883 1103 q 878 1051 867 1074 l 712 1051 z "},"ỗ":{"ha":882,"x_min":33,"x_max":849,"o":"m 441 -21 q 228 31 320 -21 q 84 170 136 83 q 33 361 33 257 q 62 505 33 436 q 146 627 92 574 q 276 712 201 681 q 441 743 351 743 q 654 691 562 743 q 798 552 746 639 q 849 361 849 465 q 820 217 849 286 q 736 95 790 149 q 607 10 681 42 q 441 -21 532 -21 m 441 215 q 511 233 480 215 q 561 283 543 251 q 580 361 580 316 q 562 439 580 406 q 512 489 544 472 q 441 507 481 507 q 370 489 401 507 q 320 439 338 472 q 302 361 302 406 q 320 283 302 316 q 370 233 339 251 q 441 215 402 215 m 108 813 l 323 1072 l 559 1072 l 774 813 l 516 813 l 437 922 l 356 813 l 108 813 m 223 1103 l 123 1214 q 206 1338 154 1295 q 326 1381 258 1381 q 415 1362 375 1381 q 491 1324 455 1343 q 565 1306 527 1306 q 621 1327 597 1306 q 660 1397 645 1349 l 759 1285 q 694 1162 746 1203 q 572 1121 642 1121 q 479 1140 522 1121 q 398 1177 436 1158 q 324 1196 360 1196 q 265 1173 291 1196 q 223 1103 240 1151 z "},"ȍ":{"ha":882,"x_min":15,"x_max":849,"o":"m 441 -21 q 228 31 320 -21 q 84 170 136 83 q 33 361 33 257 q 62 505 33 436 q 146 627 92 574 q 276 712 201 681 q 441 743 351 743 q 654 691 562 743 q 798 552 746 639 q 849 361 849 465 q 820 217 849 286 q 736 95 790 149 q 607 10 681 42 q 441 -21 532 -21 m 441 215 q 511 233 480 215 q 561 283 543 251 q 580 361 580 316 q 562 439 580 406 q 512 489 544 472 q 441 507 481 507 q 370 489 401 507 q 320 439 338 472 q 302 361 302 406 q 320 283 302 316 q 370 233 339 251 q 441 215 402 215 m 517 813 l 369 1072 l 622 1072 l 745 813 l 517 813 m 163 813 l 15 1072 l 267 1072 l 391 813 l 163 813 z "},"ö":{"ha":882,"x_min":33,"x_max":849,"o":"m 441 -21 q 228 31 320 -21 q 84 170 136 83 q 33 361 33 257 q 62 505 33 436 q 146 627 92 574 q 276 712 201 681 q 441 743 351 743 q 654 691 562 743 q 798 552 746 639 q 849 361 849 465 q 820 217 849 286 q 736 95 790 149 q 607 10 681 42 q 441 -21 532 -21 m 441 215 q 511 233 480 215 q 561 283 543 251 q 580 361 580 316 q 562 439 580 406 q 512 489 544 472 q 441 507 481 507 q 370 489 401 507 q 320 439 338 472 q 302 361 302 406 q 320 283 302 316 q 370 233 339 251 q 441 215 402 215 m 251 813 q 150 851 194 813 q 105 954 105 889 q 126 1030 105 998 q 180 1079 147 1062 q 251 1096 213 1096 q 352 1058 307 1096 q 397 954 397 1020 q 376 879 397 910 q 322 830 355 847 q 251 813 288 813 m 631 813 q 530 851 575 813 q 485 954 485 889 q 506 1030 485 998 q 560 1079 527 1062 q 631 1096 594 1096 q 732 1058 688 1096 q 777 954 777 1020 q 756 879 777 910 q 702 830 735 847 q 631 813 669 813 z "},"ȫ":{"ha":882,"x_min":33,"x_max":849,"o":"m 441 -21 q 228 31 320 -21 q 84 170 136 83 q 33 361 33 257 q 62 505 33 436 q 146 627 92 574 q 276 712 201 681 q 441 743 351 743 q 654 691 562 743 q 798 552 746 639 q 849 361 849 465 q 820 217 849 286 q 736 95 790 149 q 607 10 681 42 q 441 -21 532 -21 m 441 215 q 511 233 480 215 q 561 283 543 251 q 580 361 580 316 q 562 439 580 406 q 512 489 544 472 q 441 507 481 507 q 370 489 401 507 q 320 439 338 472 q 302 361 302 406 q 320 283 302 316 q 370 233 339 251 q 441 215 402 215 m 251 813 q 150 851 194 813 q 105 954 105 889 q 126 1030 105 998 q 180 1079 147 1062 q 251 1096 213 1096 q 352 1058 307 1096 q 397 954 397 1020 q 376 879 397 910 q 322 830 355 847 q 251 813 288 813 m 631 813 q 530 851 575 813 q 485 954 485 889 q 506 1030 485 998 q 560 1079 527 1062 q 631 1096 594 1096 q 732 1058 688 1096 q 777 954 777 1020 q 756 879 777 910 q 702 830 735 847 q 631 813 669 813 m 172 1163 l 172 1324 l 710 1324 l 710 1163 l 172 1163 z "},"ȱ":{"ha":882,"x_min":33,"x_max":849,"o":"m 441 -21 q 228 31 320 -21 q 84 170 136 83 q 33 361 33 257 q 62 505 33 436 q 146 627 92 574 q 276 712 201 681 q 441 743 351 743 q 654 691 562 743 q 798 552 746 639 q 849 361 849 465 q 820 217 849 286 q 736 95 790 149 q 607 10 681 42 q 441 -21 532 -21 m 441 215 q 511 233 480 215 q 561 283 543 251 q 580 361 580 316 q 562 439 580 406 q 512 489 544 472 q 441 507 481 507 q 370 489 401 507 q 320 439 338 472 q 302 361 302 406 q 320 283 302 316 q 370 233 339 251 q 441 215 402 215 m 441 815 q 329 855 376 815 q 281 963 281 894 q 329 1070 281 1031 q 441 1110 376 1110 q 553 1070 506 1110 q 601 963 601 1031 q 553 855 601 894 q 441 815 506 815 m 172 1163 l 172 1324 l 710 1324 l 710 1163 l 172 1163 z "},"ọ":{"ha":882,"x_min":33,"x_max":849,"o":"m 441 -21 q 228 31 320 -21 q 84 170 136 83 q 33 361 33 257 q 62 505 33 436 q 146 627 92 574 q 276 712 201 681 q 441 743 351 743 q 654 691 562 743 q 798 552 746 639 q 849 361 849 465 q 820 217 849 286 q 736 95 790 149 q 607 10 681 42 q 441 -21 532 -21 m 441 215 q 511 233 480 215 q 561 283 543 251 q 580 361 580 316 q 562 439 580 406 q 512 489 544 472 q 441 507 481 507 q 370 489 401 507 q 320 439 338 472 q 302 361 302 406 q 320 283 302 316 q 370 233 339 251 q 441 215 402 215 m 441 -387 q 329 -348 376 -387 q 281 -240 281 -309 q 329 -132 281 -172 q 441 -93 376 -93 q 553 -132 506 -93 q 601 -240 601 -172 q 553 -348 601 -309 q 441 -387 506 -387 z "},"ò":{"ha":882,"x_min":33,"x_max":849,"o":"m 441 -21 q 228 31 320 -21 q 84 170 136 83 q 33 361 33 257 q 62 505 33 436 q 146 627 92 574 q 276 712 201 681 q 441 743 351 743 q 654 691 562 743 q 798 552 746 639 q 849 361 849 465 q 820 217 849 286 q 736 95 790 149 q 607 10 681 42 q 441 -21 532 -21 m 441 215 q 511 233 480 215 q 561 283 543 251 q 580 361 580 316 q 562 439 580 406 q 512 489 544 472 q 441 507 481 507 q 370 489 401 507 q 320 439 338 472 q 302 361 302 406 q 320 283 302 316 q 370 233 339 251 q 441 215 402 215 m 324 813 l 166 1072 l 445 1072 l 580 813 l 324 813 z "},"ỏ":{"ha":882,"x_min":33,"x_max":849,"o":"m 441 -21 q 228 31 320 -21 q 84 170 136 83 q 33 361 33 257 q 62 505 33 436 q 146 627 92 574 q 276 712 201 681 q 441 743 351 743 q 654 691 562 743 q 798 552 746 639 q 849 361 849 465 q 820 217 849 286 q 736 95 790 149 q 607 10 681 42 q 441 -21 532 -21 m 441 215 q 511 233 480 215 q 561 283 543 251 q 580 361 580 316 q 562 439 580 406 q 512 489 544 472 q 441 507 481 507 q 370 489 401 507 q 320 439 338 472 q 302 361 302 406 q 320 283 302 316 q 370 233 339 251 q 441 215 402 215 m 355 813 q 339 889 328 858 q 395 935 349 919 q 428 949 420 943 q 437 967 437 956 q 422 984 437 978 q 387 990 408 990 q 330 983 353 990 q 281 964 306 976 l 245 1090 q 335 1123 282 1111 q 441 1135 389 1135 q 592 1100 537 1135 q 648 1004 648 1065 q 630 936 648 964 q 563 883 611 908 q 518 849 526 864 q 522 813 510 835 l 355 813 z "},"ơ":{"ha":951,"x_min":33,"x_max":969,"o":"m 441 -21 q 228 31 320 -21 q 84 170 136 83 q 33 361 33 257 q 62 505 33 436 q 146 627 92 574 q 276 712 201 681 q 441 743 351 743 q 654 691 562 743 q 798 552 746 639 q 849 361 849 465 q 820 217 849 286 q 736 95 790 149 q 607 10 681 42 q 441 -21 532 -21 m 441 215 q 511 233 480 215 q 561 283 543 251 q 580 361 580 316 q 562 439 580 406 q 512 489 544 472 q 441 507 481 507 q 370 489 401 507 q 320 439 338 472 q 302 361 302 406 q 320 283 302 316 q 370 233 339 251 q 441 215 402 215 m 766 528 q 688 538 728 528 q 607 563 648 549 q 525 587 566 576 q 444 597 485 597 l 442 743 q 562 728 510 743 q 652 698 614 713 q 719 683 691 683 q 758 695 745 683 q 772 726 772 708 q 759 770 772 745 q 720 822 747 795 l 872 907 q 945 810 921 863 q 969 710 969 758 q 943 618 969 659 q 873 552 918 576 q 766 528 827 528 z "},"ớ":{"ha":951,"x_min":33,"x_max":969,"o":"m 441 -21 q 228 31 320 -21 q 84 170 136 83 q 33 361 33 257 q 62 505 33 436 q 146 627 92 574 q 276 712 201 681 q 441 743 351 743 q 654 691 562 743 q 798 552 746 639 q 849 361 849 465 q 820 217 849 286 q 736 95 790 149 q 607 10 681 42 q 441 -21 532 -21 m 441 215 q 511 233 480 215 q 561 283 543 251 q 580 361 580 316 q 562 439 580 406 q 512 489 544 472 q 441 507 481 507 q 370 489 401 507 q 320 439 338 472 q 302 361 302 406 q 320 283 302 316 q 370 233 339 251 q 441 215 402 215 m 766 528 q 688 538 728 528 q 607 563 648 549 q 525 587 566 576 q 444 597 485 597 l 442 743 q 562 728 510 743 q 652 698 614 713 q 719 683 691 683 q 758 695 745 683 q 772 726 772 708 q 759 770 772 745 q 720 822 747 795 l 872 907 q 945 810 921 863 q 969 710 969 758 q 943 618 969 659 q 873 552 918 576 q 766 528 827 528 m 302 813 l 440 1072 l 713 1072 l 551 813 l 302 813 z "},"ợ":{"ha":951,"x_min":33,"x_max":969,"o":"m 441 -21 q 228 31 320 -21 q 84 170 136 83 q 33 361 33 257 q 62 505 33 436 q 146 627 92 574 q 276 712 201 681 q 441 743 351 743 q 654 691 562 743 q 798 552 746 639 q 849 361 849 465 q 820 217 849 286 q 736 95 790 149 q 607 10 681 42 q 441 -21 532 -21 m 441 215 q 511 233 480 215 q 561 283 543 251 q 580 361 580 316 q 562 439 580 406 q 512 489 544 472 q 441 507 481 507 q 370 489 401 507 q 320 439 338 472 q 302 361 302 406 q 320 283 302 316 q 370 233 339 251 q 441 215 402 215 m 766 528 q 688 538 728 528 q 607 563 648 549 q 525 587 566 576 q 444 597 485 597 l 442 743 q 562 728 510 743 q 652 698 614 713 q 719 683 691 683 q 758 695 745 683 q 772 726 772 708 q 759 770 772 745 q 720 822 747 795 l 872 907 q 945 810 921 863 q 969 710 969 758 q 943 618 969 659 q 873 552 918 576 q 766 528 827 528 m 441 -387 q 329 -348 376 -387 q 281 -240 281 -309 q 329 -132 281 -172 q 441 -93 376 -93 q 553 -132 506 -93 q 601 -240 601 -172 q 553 -348 601 -309 q 441 -387 506 -387 z "},"ờ":{"ha":951,"x_min":33,"x_max":969,"o":"m 441 -21 q 228 31 320 -21 q 84 170 136 83 q 33 361 33 257 q 62 505 33 436 q 146 627 92 574 q 276 712 201 681 q 441 743 351 743 q 654 691 562 743 q 798 552 746 639 q 849 361 849 465 q 820 217 849 286 q 736 95 790 149 q 607 10 681 42 q 441 -21 532 -21 m 441 215 q 511 233 480 215 q 561 283 543 251 q 580 361 580 316 q 562 439 580 406 q 512 489 544 472 q 441 507 481 507 q 370 489 401 507 q 320 439 338 472 q 302 361 302 406 q 320 283 302 316 q 370 233 339 251 q 441 215 402 215 m 766 528 q 688 538 728 528 q 607 563 648 549 q 525 587 566 576 q 444 597 485 597 l 442 743 q 562 728 510 743 q 652 698 614 713 q 719 683 691 683 q 758 695 745 683 q 772 726 772 708 q 759 770 772 745 q 720 822 747 795 l 872 907 q 945 810 921 863 q 969 710 969 758 q 943 618 969 659 q 873 552 918 576 q 766 528 827 528 m 324 813 l 166 1072 l 445 1072 l 580 813 l 324 813 z "},"ở":{"ha":951,"x_min":33,"x_max":969,"o":"m 441 -21 q 228 31 320 -21 q 84 170 136 83 q 33 361 33 257 q 62 505 33 436 q 146 627 92 574 q 276 712 201 681 q 441 743 351 743 q 654 691 562 743 q 798 552 746 639 q 849 361 849 465 q 820 217 849 286 q 736 95 790 149 q 607 10 681 42 q 441 -21 532 -21 m 441 215 q 511 233 480 215 q 561 283 543 251 q 580 361 580 316 q 562 439 580 406 q 512 489 544 472 q 441 507 481 507 q 370 489 401 507 q 320 439 338 472 q 302 361 302 406 q 320 283 302 316 q 370 233 339 251 q 441 215 402 215 m 766 528 q 688 538 728 528 q 607 563 648 549 q 525 587 566 576 q 444 597 485 597 l 442 743 q 562 728 510 743 q 652 698 614 713 q 719 683 691 683 q 758 695 745 683 q 772 726 772 708 q 759 770 772 745 q 720 822 747 795 l 872 907 q 945 810 921 863 q 969 710 969 758 q 943 618 969 659 q 873 552 918 576 q 766 528 827 528 m 355 813 q 339 889 328 858 q 395 935 349 919 q 428 949 420 943 q 437 967 437 956 q 422 984 437 978 q 387 990 408 990 q 330 983 353 990 q 281 964 306 976 l 245 1090 q 335 1123 282 1111 q 441 1135 389 1135 q 592 1100 537 1135 q 648 1004 648 1065 q 630 936 648 964 q 563 883 611 908 q 518 849 526 864 q 522 813 510 835 l 355 813 z "},"ỡ":{"ha":951,"x_min":33,"x_max":969,"o":"m 441 -21 q 228 31 320 -21 q 84 170 136 83 q 33 361 33 257 q 62 505 33 436 q 146 627 92 574 q 276 712 201 681 q 441 743 351 743 q 654 691 562 743 q 798 552 746 639 q 849 361 849 465 q 820 217 849 286 q 736 95 790 149 q 607 10 681 42 q 441 -21 532 -21 m 441 215 q 511 233 480 215 q 561 283 543 251 q 580 361 580 316 q 562 439 580 406 q 512 489 544 472 q 441 507 481 507 q 370 489 401 507 q 320 439 338 472 q 302 361 302 406 q 320 283 302 316 q 370 233 339 251 q 441 215 402 215 m 766 528 q 688 538 728 528 q 607 563 648 549 q 525 587 566 576 q 444 597 485 597 l 442 743 q 562 728 510 743 q 652 698 614 713 q 719 683 691 683 q 758 695 745 683 q 772 726 772 708 q 759 770 772 745 q 720 822 747 795 l 872 907 q 945 810 921 863 q 969 710 969 758 q 943 618 969 659 q 873 552 918 576 q 766 528 827 528 m 223 794 l 123 906 q 206 1030 154 987 q 326 1072 258 1072 q 415 1053 375 1072 q 491 1016 455 1035 q 565 997 527 997 q 621 1019 597 997 q 660 1089 645 1041 l 759 976 q 694 854 746 895 q 572 813 642 813 q 479 831 522 813 q 398 869 436 850 q 324 888 360 888 q 265 865 291 888 q 223 794 240 842 z "},"ő":{"ha":882,"x_min":33,"x_max":867,"o":"m 441 -21 q 228 31 320 -21 q 84 170 136 83 q 33 361 33 257 q 62 505 33 436 q 146 627 92 574 q 276 712 201 681 q 441 743 351 743 q 654 691 562 743 q 798 552 746 639 q 849 361 849 465 q 820 217 849 286 q 736 95 790 149 q 607 10 681 42 q 441 -21 532 -21 m 441 215 q 511 233 480 215 q 561 283 543 251 q 580 361 580 316 q 562 439 580 406 q 512 489 544 472 q 441 507 481 507 q 370 489 401 507 q 320 439 338 472 q 302 361 302 406 q 320 283 302 316 q 370 233 339 251 q 441 215 402 215 m 491 813 l 615 1072 l 867 1072 l 719 813 l 491 813 m 137 813 l 260 1072 l 513 1072 l 365 813 l 137 813 z "},"ȏ":{"ha":882,"x_min":33,"x_max":849,"o":"m 441 -21 q 228 31 320 -21 q 84 170 136 83 q 33 361 33 257 q 62 505 33 436 q 146 627 92 574 q 276 712 201 681 q 441 743 351 743 q 654 691 562 743 q 798 552 746 639 q 849 361 849 465 q 820 217 849 286 q 736 95 790 149 q 607 10 681 42 q 441 -21 532 -21 m 441 215 q 511 233 480 215 q 561 283 543 251 q 580 361 580 316 q 562 439 580 406 q 512 489 544 472 q 441 507 481 507 q 370 489 401 507 q 320 439 338 472 q 302 361 302 406 q 320 283 302 316 q 370 233 339 251 q 441 215 402 215 m 137 813 q 173 952 135 892 q 279 1046 210 1013 q 441 1079 348 1079 q 601 1045 532 1079 q 708 951 670 1011 q 745 813 747 891 l 523 813 q 503 881 525 856 q 441 906 481 906 q 379 881 401 906 q 359 813 357 856 l 137 813 z "},"ō":{"ha":882,"x_min":33,"x_max":849,"o":"m 441 -21 q 228 31 320 -21 q 84 170 136 83 q 33 361 33 257 q 62 505 33 436 q 146 627 92 574 q 276 712 201 681 q 441 743 351 743 q 654 691 562 743 q 798 552 746 639 q 849 361 849 465 q 820 217 849 286 q 736 95 790 149 q 607 10 681 42 q 441 -21 532 -21 m 441 215 q 511 233 480 215 q 561 283 543 251 q 580 361 580 316 q 562 439 580 406 q 512 489 544 472 q 441 507 481 507 q 370 489 401 507 q 320 439 338 472 q 302 361 302 406 q 320 283 302 316 q 370 233 339 251 q 441 215 402 215 m 172 854 l 172 1015 l 710 1015 l 710 854 l 172 854 z "},"ǫ":{"ha":882,"x_min":33,"x_max":849,"o":"m 458 -312 q 333 -267 382 -312 q 284 -152 284 -222 q 299 -75 284 -110 q 341 -10 313 -39 q 178 64 248 10 q 71 195 109 118 q 33 361 33 272 q 62 505 33 436 q 146 627 92 574 q 276 712 201 681 q 441 743 351 743 q 654 691 562 743 q 798 552 746 639 q 849 361 849 465 q 811 199 849 276 q 704 67 773 122 q 542 -10 635 12 q 471 -43 496 -19 q 447 -101 447 -67 q 462 -140 447 -125 q 503 -154 478 -154 q 541 -145 522 -154 q 574 -121 560 -136 l 635 -257 q 551 -298 597 -284 q 458 -312 506 -312 m 441 215 q 511 233 480 215 q 561 283 543 251 q 580 361 580 316 q 562 439 580 406 q 512 489 544 472 q 441 507 481 507 q 370 489 401 507 q 320 439 338 472 q 302 361 302 406 q 320 283 302 316 q 370 233 339 251 q 441 215 402 215 z "},"ø":{"ha":882,"x_min":33,"x_max":849,"o":"m 181 -96 l 47 24 l 123 117 q 57 229 81 167 q 33 361 33 292 q 62 505 33 436 q 146 627 92 574 q 276 712 201 681 q 441 743 351 743 q 531 735 488 743 q 610 711 573 727 l 699 819 l 834 700 l 758 607 q 825 494 801 557 q 849 361 849 431 q 820 217 849 286 q 736 95 790 149 q 607 10 681 42 q 441 -21 532 -21 q 351 -12 394 -21 q 270 11 308 -4 l 181 -96 m 290 304 l 472 525 q 461 526 467 526 q 449 526 455 526 q 365 505 402 526 q 306 445 327 484 q 284 354 284 407 q 285 328 284 341 q 290 304 287 316 m 433 196 q 517 217 479 196 q 576 276 554 238 q 598 368 598 315 q 597 395 598 382 q 592 421 596 408 l 408 197 q 420 196 414 197 q 433 196 426 196 z "},"ǿ":{"ha":882,"x_min":33,"x_max":849,"o":"m 181 -96 l 47 24 l 123 117 q 57 229 81 167 q 33 361 33 292 q 62 505 33 436 q 146 627 92 574 q 276 712 201 681 q 441 743 351 743 q 531 735 488 743 q 610 711 573 727 l 699 819 l 834 700 l 758 607 q 825 494 801 557 q 849 361 849 431 q 820 217 849 286 q 736 95 790 149 q 607 10 681 42 q 441 -21 532 -21 q 351 -12 394 -21 q 270 11 308 -4 l 181 -96 m 290 304 l 472 525 q 461 526 467 526 q 449 526 455 526 q 365 505 402 526 q 306 445 327 484 q 284 354 284 407 q 285 328 284 341 q 290 304 287 316 m 433 196 q 517 217 479 196 q 576 276 554 238 q 598 368 598 315 q 597 395 598 382 q 592 421 596 408 l 408 197 q 420 196 414 197 q 433 196 426 196 m 302 813 l 440 1072 l 713 1072 l 551 813 l 302 813 z "},"õ":{"ha":882,"x_min":33,"x_max":849,"o":"m 441 -21 q 228 31 320 -21 q 84 170 136 83 q 33 361 33 257 q 62 505 33 436 q 146 627 92 574 q 276 712 201 681 q 441 743 351 743 q 654 691 562 743 q 798 552 746 639 q 849 361 849 465 q 820 217 849 286 q 736 95 790 149 q 607 10 681 42 q 441 -21 532 -21 m 441 215 q 511 233 480 215 q 561 283 543 251 q 580 361 580 316 q 562 439 580 406 q 512 489 544 472 q 441 507 481 507 q 370 489 401 507 q 320 439 338 472 q 302 361 302 406 q 320 283 302 316 q 370 233 339 251 q 441 215 402 215 m 223 794 l 123 906 q 206 1030 154 987 q 326 1072 258 1072 q 415 1053 375 1072 q 491 1016 455 1035 q 565 997 527 997 q 621 1019 597 997 q 660 1089 645 1041 l 759 976 q 694 854 746 895 q 572 813 642 813 q 479 831 522 813 q 398 869 436 850 q 324 888 360 888 q 265 865 291 888 q 223 794 240 842 z "},"ȭ":{"ha":882,"x_min":33,"x_max":849,"o":"m 441 -21 q 228 31 320 -21 q 84 170 136 83 q 33 361 33 257 q 62 505 33 436 q 146 627 92 574 q 276 712 201 681 q 441 743 351 743 q 654 691 562 743 q 798 552 746 639 q 849 361 849 465 q 820 217 849 286 q 736 95 790 149 q 607 10 681 42 q 441 -21 532 -21 m 441 215 q 511 233 480 215 q 561 283 543 251 q 580 361 580 316 q 562 439 580 406 q 512 489 544 472 q 441 507 481 507 q 370 489 401 507 q 320 439 338 472 q 302 361 302 406 q 320 283 302 316 q 370 233 339 251 q 441 215 402 215 m 223 794 l 123 906 q 206 1030 154 987 q 326 1072 258 1072 q 415 1053 375 1072 q 491 1016 455 1035 q 565 997 527 997 q 621 1019 597 997 q 660 1089 645 1041 l 759 976 q 694 854 746 895 q 572 813 642 813 q 479 831 522 813 q 398 869 436 850 q 324 888 360 888 q 265 865 291 888 q 223 794 240 842 m 172 1149 l 172 1310 l 710 1310 l 710 1149 l 172 1149 z "},"œ":{"ha":1392,"x_min":33,"x_max":1375,"o":"m 433 -21 q 224 31 315 -21 q 83 170 134 83 q 33 361 33 257 q 62 505 33 436 q 144 627 91 574 q 271 712 197 681 q 433 743 344 743 q 635 691 548 743 q 772 552 723 639 q 822 361 822 465 q 793 217 822 286 q 714 95 765 149 q 591 10 662 42 q 433 -21 519 -21 m 441 215 q 511 233 480 215 q 561 283 543 251 q 580 361 580 316 q 562 439 580 406 q 512 489 544 472 q 441 507 481 507 q 370 489 401 507 q 320 439 338 472 q 302 361 302 406 q 320 283 302 316 q 370 233 339 251 q 441 215 402 215 m 992 -21 q 790 27 876 -21 q 656 161 703 75 q 608 363 608 247 q 636 516 608 447 q 715 637 664 586 q 836 715 766 688 q 990 743 906 743 q 1208 683 1118 743 q 1336 519 1298 623 q 1349 283 1375 415 l 828 283 q 852 233 831 255 q 909 200 874 212 q 990 188 944 188 q 1113 203 1056 188 q 1226 251 1169 218 l 1306 68 q 1222 24 1275 44 q 1108 -9 1169 3 q 992 -21 1047 -21 m 847 464 l 1088 464 q 1056 525 1088 501 q 973 549 1024 549 q 885 525 920 549 q 847 464 850 501 z "},"p":{"ha":943,"x_min":87,"x_max":910,"o":"m 87 -292 l 87 722 l 323 722 l 323 651 q 420 719 360 694 q 553 743 481 743 q 736 697 655 743 q 864 565 817 651 q 910 361 910 479 q 884 210 910 279 q 808 89 857 140 q 693 8 760 37 q 548 -21 627 -21 q 451 -7 497 -21 q 363 36 404 7 l 363 -292 l 87 -292 m 502 215 q 573 233 542 215 q 623 283 605 251 q 641 361 641 316 q 623 439 641 406 q 573 489 604 472 q 502 507 541 507 q 432 489 463 507 q 382 439 400 472 q 363 361 363 406 q 381 283 363 316 q 431 233 399 251 q 502 215 463 215 z "},"þ":{"ha":943,"x_min":87,"x_max":910,"o":"m 87 -292 l 87 1000 l 363 1000 l 363 686 q 451 729 404 715 q 548 743 497 743 q 735 693 653 743 q 864 557 817 643 q 910 361 910 470 q 884 210 910 279 q 808 89 857 140 q 693 8 760 37 q 548 -21 627 -21 q 451 -7 497 -21 q 363 36 404 7 l 363 -292 l 87 -292 m 502 215 q 573 233 542 215 q 623 283 605 251 q 641 361 641 316 q 623 439 641 406 q 573 489 605 472 q 502 507 542 507 q 431 489 463 507 q 381 439 399 472 q 363 361 363 406 q 381 283 363 316 q 431 233 399 251 q 502 215 463 215 z "},"q":{"ha":943,"x_min":33,"x_max":856,"o":"m 580 -292 l 580 161 l 644 97 q 531 8 594 36 q 395 -21 468 -21 q 208 29 290 -21 q 79 166 126 79 q 33 361 33 252 q 60 520 33 450 q 135 641 87 591 q 249 717 183 690 q 390 743 314 743 q 509 724 454 743 q 602 670 563 705 q 658 589 640 635 l 620 526 l 620 722 l 856 722 l 856 -292 l 580 -292 m 441 215 q 512 233 481 215 q 562 283 544 251 q 580 361 580 316 q 561 439 580 406 q 511 489 543 472 q 441 507 480 507 q 370 489 402 507 q 320 439 339 472 q 302 361 302 406 q 320 283 302 316 q 370 233 338 251 q 441 215 401 215 z "},"r":{"ha":646,"x_min":87,"x_max":635,"o":"m 87 0 l 87 722 l 365 722 l 365 647 q 442 720 392 697 q 554 744 493 744 q 598 741 580 744 q 635 735 617 738 l 603 450 q 548 466 578 460 q 490 472 519 472 q 400 443 435 472 q 365 351 365 414 l 365 0 l 87 0 z "},"ŕ":{"ha":646,"x_min":87,"x_max":637,"o":"m 87 0 l 87 722 l 365 722 l 365 647 q 442 720 392 697 q 554 744 493 744 q 598 741 580 744 q 635 735 617 738 l 603 450 q 548 466 578 460 q 490 472 519 472 q 400 443 435 472 q 365 351 365 414 l 365 0 l 87 0 m 226 813 l 363 1072 l 637 1072 l 474 813 l 226 813 z "},"ř":{"ha":646,"x_min":31,"x_max":698,"o":"m 87 0 l 87 722 l 365 722 l 365 647 q 442 720 392 697 q 554 744 493 744 q 598 741 580 744 q 635 735 617 738 l 603 450 q 548 466 578 460 q 490 472 519 472 q 400 443 435 472 q 365 351 365 414 l 365 0 l 87 0 m 247 813 l 31 1072 l 290 1072 l 369 963 l 449 1072 l 698 1072 l 483 813 l 247 813 z "},"ŗ":{"ha":646,"x_min":62,"x_max":635,"o":"m 87 0 l 87 722 l 365 722 l 365 647 q 442 720 392 697 q 554 744 493 744 q 598 741 580 744 q 635 735 617 738 l 603 450 q 548 466 578 460 q 490 472 519 472 q 400 443 435 472 q 365 351 365 414 l 365 0 l 87 0 m 131 -581 l 62 -481 q 163 -432 117 -465 q 235 -364 208 -400 q 153 -351 191 -366 q 93 -307 116 -336 q 70 -236 70 -277 q 111 -132 70 -170 q 217 -93 152 -93 q 336 -141 290 -93 q 383 -264 383 -189 q 356 -379 383 -324 q 273 -484 329 -434 q 131 -581 217 -534 z "},"ȑ":{"ha":646,"x_min":-62,"x_max":669,"o":"m 87 0 l 87 722 l 365 722 l 365 647 q 442 720 392 697 q 554 744 493 744 q 598 741 580 744 q 635 735 617 738 l 603 450 q 548 466 578 460 q 490 472 519 472 q 400 443 435 472 q 365 351 365 414 l 365 0 l 87 0 m 441 813 l 292 1072 l 545 1072 l 669 813 l 441 813 m 87 813 l -62 1072 l 191 1072 l 315 813 l 87 813 z "},"ȓ":{"ha":646,"x_min":59,"x_max":670,"o":"m 87 0 l 87 722 l 365 722 l 365 647 q 442 720 392 697 q 554 744 493 744 q 598 741 580 744 q 635 735 617 738 l 603 450 q 548 466 578 460 q 490 472 519 472 q 400 443 435 472 q 365 351 365 414 l 365 0 l 87 0 m 60 813 q 97 952 59 892 q 203 1046 134 1013 q 365 1079 272 1079 q 525 1045 456 1079 q 632 951 594 1011 q 669 813 670 891 l 447 813 q 426 881 449 856 q 365 906 404 906 q 303 881 325 906 q 283 813 281 856 l 60 813 z "},"s":{"ha":751,"x_min":30,"x_max":706,"o":"m 376 -19 q 182 5 268 -19 q 30 76 95 30 l 110 263 q 244 205 174 226 q 373 183 314 183 q 441 193 418 183 q 463 221 463 202 q 442 243 463 237 q 353 260 420 250 q 130 342 201 282 q 59 506 59 401 q 100 635 59 580 q 213 720 141 690 q 380 750 285 750 q 554 726 472 750 q 695 661 637 702 l 617 475 q 547 513 586 497 q 467 538 508 529 q 390 547 426 547 q 327 539 350 547 q 303 514 303 530 q 322 491 303 499 q 409 469 340 483 q 639 384 572 438 q 706 232 706 330 q 664 100 706 156 q 548 12 622 43 q 376 -19 474 -19 z "},"ś":{"ha":751,"x_min":30,"x_max":706,"o":"m 376 -19 q 182 5 268 -19 q 30 76 95 30 l 110 263 q 244 205 174 226 q 373 183 314 183 q 441 193 418 183 q 463 221 463 202 q 442 243 463 237 q 353 260 420 250 q 130 342 201 282 q 59 506 59 401 q 100 635 59 580 q 213 720 141 690 q 380 750 285 750 q 554 726 472 750 q 695 661 637 702 l 617 475 q 547 513 586 497 q 467 538 508 529 q 390 547 426 547 q 327 539 350 547 q 303 514 303 530 q 322 491 303 499 q 409 469 340 483 q 639 384 572 438 q 706 232 706 330 q 664 100 706 156 q 548 12 622 43 q 376 -19 474 -19 m 241 813 l 378 1072 l 652 1072 l 490 813 l 241 813 z "},"š":{"ha":751,"x_min":30,"x_max":713,"o":"m 376 -19 q 182 5 268 -19 q 30 76 95 30 l 110 263 q 244 205 174 226 q 373 183 314 183 q 441 193 418 183 q 463 221 463 202 q 442 243 463 237 q 353 260 420 250 q 130 342 201 282 q 59 506 59 401 q 100 635 59 580 q 213 720 141 690 q 380 750 285 750 q 554 726 472 750 q 695 661 637 702 l 617 475 q 547 513 586 497 q 467 538 508 529 q 390 547 426 547 q 327 539 350 547 q 303 514 303 530 q 322 491 303 499 q 409 469 340 483 q 639 384 572 438 q 706 232 706 330 q 664 100 706 156 q 548 12 622 43 q 376 -19 474 -19 m 262 813 l 47 1072 l 305 1072 l 384 963 l 465 1072 l 713 1072 l 498 813 l 262 813 z "},"ş":{"ha":751,"x_min":30,"x_max":706,"o":"m 376 -19 q 182 5 268 -19 q 30 76 95 30 l 110 263 q 244 205 174 226 q 373 183 314 183 q 441 193 418 183 q 463 221 463 202 q 442 243 463 237 q 353 260 420 250 q 130 342 201 282 q 59 506 59 401 q 100 635 59 580 q 213 720 141 690 q 380 750 285 750 q 554 726 472 750 q 695 661 637 702 l 617 475 q 547 513 586 497 q 467 538 508 529 q 390 547 426 547 q 327 539 350 547 q 303 514 303 530 q 322 491 303 499 q 409 469 340 483 q 639 384 572 438 q 706 232 706 330 q 664 100 706 156 q 548 12 622 43 q 376 -19 474 -19 m 358 -312 q 248 -297 299 -312 q 162 -260 197 -281 l 208 -144 q 277 -177 235 -167 q 348 -186 319 -186 q 389 -181 375 -186 q 402 -168 402 -176 q 373 -150 402 -156 q 312 -151 344 -145 l 262 -58 l 301 28 l 442 28 l 422 -36 q 546 -77 501 -44 q 591 -168 591 -110 q 556 -250 591 -218 q 468 -297 522 -282 q 358 -312 415 -312 z "}}}
